%TF.GenerationSoftware,KiCad,Pcbnew,(5.1.10)-1*%
%TF.CreationDate,2022-05-18T17:56:24+01:00*%
%TF.ProjectId,handifinder,68616e64-6966-4696-9e64-65722e6b6963,rev?*%
%TF.SameCoordinates,Original*%
%TF.FileFunction,Copper,L1,Top*%
%TF.FilePolarity,Positive*%
%FSLAX46Y46*%
G04 Gerber Fmt 4.6, Leading zero omitted, Abs format (unit mm)*
G04 Created by KiCad (PCBNEW (5.1.10)-1) date 2022-05-18 17:56:24*
%MOMM*%
%LPD*%
G01*
G04 APERTURE LIST*
%TA.AperFunction,WasherPad*%
%ADD10C,3.435000*%
%TD*%
%TA.AperFunction,ComponentPad*%
%ADD11C,2.000000*%
%TD*%
%TA.AperFunction,ComponentPad*%
%ADD12C,2.050000*%
%TD*%
%TA.AperFunction,ComponentPad*%
%ADD13C,2.250000*%
%TD*%
%TA.AperFunction,SMDPad,CuDef*%
%ADD14R,1.200000X0.900000*%
%TD*%
%TA.AperFunction,ComponentPad*%
%ADD15C,6.400000*%
%TD*%
%TA.AperFunction,ComponentPad*%
%ADD16C,0.800000*%
%TD*%
%TA.AperFunction,ComponentPad*%
%ADD17C,1.450000*%
%TD*%
%TA.AperFunction,SMDPad,CuDef*%
%ADD18C,2.500000*%
%TD*%
%TA.AperFunction,ViaPad*%
%ADD19C,0.800000*%
%TD*%
%TA.AperFunction,Conductor*%
%ADD20C,0.381000*%
%TD*%
%TA.AperFunction,Conductor*%
%ADD21C,0.250000*%
%TD*%
%TA.AperFunction,Conductor*%
%ADD22C,0.254000*%
%TD*%
%TA.AperFunction,Conductor*%
%ADD23C,0.100000*%
%TD*%
G04 APERTURE END LIST*
D10*
%TO.P,BT1,*%
%TO.N,*%
X157875000Y-108855000D03*
X135525000Y-122335000D03*
X135525000Y-95365000D03*
D11*
%TO.P,BT1,1*%
%TO.N,+BATT*%
X152965000Y-83765000D03*
%TO.P,BT1,2*%
%TO.N,GND*%
X140265000Y-83765000D03*
%TD*%
D12*
%TO.P,J1,1*%
%TO.N,Net-(C7-Pad2)*%
X135525000Y-141875000D03*
D13*
%TO.P,J1,2*%
%TO.N,GND*%
X138065000Y-144415000D03*
X138065000Y-139335000D03*
X132985000Y-139335000D03*
X132985000Y-144415000D03*
%TD*%
D14*
%TO.P,D1,1*%
%TO.N,Net-(C6-Pad1)*%
X136795000Y-59325000D03*
%TO.P,D1,2*%
%TO.N,Net-(C7-Pad1)*%
X136795000Y-62625000D03*
%TD*%
%TO.P,C1,2*%
%TO.N,Net-(C1-Pad2)*%
%TA.AperFunction,SMDPad,CuDef*%
G36*
G01*
X151352500Y-49325000D02*
X151352500Y-50275000D01*
G75*
G02*
X151102500Y-50525000I-250000J0D01*
G01*
X150427500Y-50525000D01*
G75*
G02*
X150177500Y-50275000I0J250000D01*
G01*
X150177500Y-49325000D01*
G75*
G02*
X150427500Y-49075000I250000J0D01*
G01*
X151102500Y-49075000D01*
G75*
G02*
X151352500Y-49325000I0J-250000D01*
G01*
G37*
%TD.AperFunction*%
%TO.P,C1,1*%
%TO.N,Net-(C1-Pad1)*%
%TA.AperFunction,SMDPad,CuDef*%
G36*
G01*
X153427500Y-49325000D02*
X153427500Y-50275000D01*
G75*
G02*
X153177500Y-50525000I-250000J0D01*
G01*
X152502500Y-50525000D01*
G75*
G02*
X152252500Y-50275000I0J250000D01*
G01*
X152252500Y-49325000D01*
G75*
G02*
X152502500Y-49075000I250000J0D01*
G01*
X153177500Y-49075000D01*
G75*
G02*
X153427500Y-49325000I0J-250000D01*
G01*
G37*
%TD.AperFunction*%
%TD*%
%TO.P,C2,2*%
%TO.N,GND*%
%TA.AperFunction,SMDPad,CuDef*%
G36*
G01*
X153465000Y-60177500D02*
X154415000Y-60177500D01*
G75*
G02*
X154665000Y-60427500I0J-250000D01*
G01*
X154665000Y-61102500D01*
G75*
G02*
X154415000Y-61352500I-250000J0D01*
G01*
X153465000Y-61352500D01*
G75*
G02*
X153215000Y-61102500I0J250000D01*
G01*
X153215000Y-60427500D01*
G75*
G02*
X153465000Y-60177500I250000J0D01*
G01*
G37*
%TD.AperFunction*%
%TO.P,C2,1*%
%TO.N,+9V*%
%TA.AperFunction,SMDPad,CuDef*%
G36*
G01*
X153465000Y-58102500D02*
X154415000Y-58102500D01*
G75*
G02*
X154665000Y-58352500I0J-250000D01*
G01*
X154665000Y-59027500D01*
G75*
G02*
X154415000Y-59277500I-250000J0D01*
G01*
X153465000Y-59277500D01*
G75*
G02*
X153215000Y-59027500I0J250000D01*
G01*
X153215000Y-58352500D01*
G75*
G02*
X153465000Y-58102500I250000J0D01*
G01*
G37*
%TD.AperFunction*%
%TD*%
%TO.P,C3,1*%
%TO.N,Net-(C3-Pad1)*%
%TA.AperFunction,SMDPad,CuDef*%
G36*
G01*
X162782500Y-65200000D02*
X162782500Y-66150000D01*
G75*
G02*
X162532500Y-66400000I-250000J0D01*
G01*
X161857500Y-66400000D01*
G75*
G02*
X161607500Y-66150000I0J250000D01*
G01*
X161607500Y-65200000D01*
G75*
G02*
X161857500Y-64950000I250000J0D01*
G01*
X162532500Y-64950000D01*
G75*
G02*
X162782500Y-65200000I0J-250000D01*
G01*
G37*
%TD.AperFunction*%
%TO.P,C3,2*%
%TO.N,GND*%
%TA.AperFunction,SMDPad,CuDef*%
G36*
G01*
X160707500Y-65200000D02*
X160707500Y-66150000D01*
G75*
G02*
X160457500Y-66400000I-250000J0D01*
G01*
X159782500Y-66400000D01*
G75*
G02*
X159532500Y-66150000I0J250000D01*
G01*
X159532500Y-65200000D01*
G75*
G02*
X159782500Y-64950000I250000J0D01*
G01*
X160457500Y-64950000D01*
G75*
G02*
X160707500Y-65200000I0J-250000D01*
G01*
G37*
%TD.AperFunction*%
%TD*%
%TO.P,C4,2*%
%TO.N,GND*%
%TA.AperFunction,SMDPad,CuDef*%
G36*
G01*
X134472500Y-66150000D02*
X134472500Y-65200000D01*
G75*
G02*
X134722500Y-64950000I250000J0D01*
G01*
X135397500Y-64950000D01*
G75*
G02*
X135647500Y-65200000I0J-250000D01*
G01*
X135647500Y-66150000D01*
G75*
G02*
X135397500Y-66400000I-250000J0D01*
G01*
X134722500Y-66400000D01*
G75*
G02*
X134472500Y-66150000I0J250000D01*
G01*
G37*
%TD.AperFunction*%
%TO.P,C4,1*%
%TO.N,Net-(C4-Pad1)*%
%TA.AperFunction,SMDPad,CuDef*%
G36*
G01*
X132397500Y-66150000D02*
X132397500Y-65200000D01*
G75*
G02*
X132647500Y-64950000I250000J0D01*
G01*
X133322500Y-64950000D01*
G75*
G02*
X133572500Y-65200000I0J-250000D01*
G01*
X133572500Y-66150000D01*
G75*
G02*
X133322500Y-66400000I-250000J0D01*
G01*
X132647500Y-66400000D01*
G75*
G02*
X132397500Y-66150000I0J250000D01*
G01*
G37*
%TD.AperFunction*%
%TD*%
%TO.P,C5,1*%
%TO.N,+9V*%
%TA.AperFunction,SMDPad,CuDef*%
G36*
G01*
X150290000Y-64050000D02*
X151240000Y-64050000D01*
G75*
G02*
X151490000Y-64300000I0J-250000D01*
G01*
X151490000Y-64975000D01*
G75*
G02*
X151240000Y-65225000I-250000J0D01*
G01*
X150290000Y-65225000D01*
G75*
G02*
X150040000Y-64975000I0J250000D01*
G01*
X150040000Y-64300000D01*
G75*
G02*
X150290000Y-64050000I250000J0D01*
G01*
G37*
%TD.AperFunction*%
%TO.P,C5,2*%
%TO.N,GND*%
%TA.AperFunction,SMDPad,CuDef*%
G36*
G01*
X150290000Y-66125000D02*
X151240000Y-66125000D01*
G75*
G02*
X151490000Y-66375000I0J-250000D01*
G01*
X151490000Y-67050000D01*
G75*
G02*
X151240000Y-67300000I-250000J0D01*
G01*
X150290000Y-67300000D01*
G75*
G02*
X150040000Y-67050000I0J250000D01*
G01*
X150040000Y-66375000D01*
G75*
G02*
X150290000Y-66125000I250000J0D01*
G01*
G37*
%TD.AperFunction*%
%TD*%
%TO.P,C6,1*%
%TO.N,Net-(C6-Pad1)*%
%TA.AperFunction,SMDPad,CuDef*%
G36*
G01*
X137382500Y-55040000D02*
X137382500Y-55990000D01*
G75*
G02*
X137132500Y-56240000I-250000J0D01*
G01*
X136457500Y-56240000D01*
G75*
G02*
X136207500Y-55990000I0J250000D01*
G01*
X136207500Y-55040000D01*
G75*
G02*
X136457500Y-54790000I250000J0D01*
G01*
X137132500Y-54790000D01*
G75*
G02*
X137382500Y-55040000I0J-250000D01*
G01*
G37*
%TD.AperFunction*%
%TO.P,C6,2*%
%TO.N,/ANT1*%
%TA.AperFunction,SMDPad,CuDef*%
G36*
G01*
X135307500Y-55040000D02*
X135307500Y-55990000D01*
G75*
G02*
X135057500Y-56240000I-250000J0D01*
G01*
X134382500Y-56240000D01*
G75*
G02*
X134132500Y-55990000I0J250000D01*
G01*
X134132500Y-55040000D01*
G75*
G02*
X134382500Y-54790000I250000J0D01*
G01*
X135057500Y-54790000D01*
G75*
G02*
X135307500Y-55040000I0J-250000D01*
G01*
G37*
%TD.AperFunction*%
%TD*%
%TO.P,C7,2*%
%TO.N,Net-(C7-Pad2)*%
%TA.AperFunction,SMDPad,CuDef*%
G36*
G01*
X142670000Y-63987500D02*
X143620000Y-63987500D01*
G75*
G02*
X143870000Y-64237500I0J-250000D01*
G01*
X143870000Y-64912500D01*
G75*
G02*
X143620000Y-65162500I-250000J0D01*
G01*
X142670000Y-65162500D01*
G75*
G02*
X142420000Y-64912500I0J250000D01*
G01*
X142420000Y-64237500D01*
G75*
G02*
X142670000Y-63987500I250000J0D01*
G01*
G37*
%TD.AperFunction*%
%TO.P,C7,1*%
%TO.N,Net-(C7-Pad1)*%
%TA.AperFunction,SMDPad,CuDef*%
G36*
G01*
X142670000Y-61912500D02*
X143620000Y-61912500D01*
G75*
G02*
X143870000Y-62162500I0J-250000D01*
G01*
X143870000Y-62837500D01*
G75*
G02*
X143620000Y-63087500I-250000J0D01*
G01*
X142670000Y-63087500D01*
G75*
G02*
X142420000Y-62837500I0J250000D01*
G01*
X142420000Y-62162500D01*
G75*
G02*
X142670000Y-61912500I250000J0D01*
G01*
G37*
%TD.AperFunction*%
%TD*%
%TO.P,C8,1*%
%TO.N,Net-(C8-Pad1)*%
%TA.AperFunction,SMDPad,CuDef*%
G36*
G01*
X157797500Y-55990000D02*
X157797500Y-55040000D01*
G75*
G02*
X158047500Y-54790000I250000J0D01*
G01*
X158722500Y-54790000D01*
G75*
G02*
X158972500Y-55040000I0J-250000D01*
G01*
X158972500Y-55990000D01*
G75*
G02*
X158722500Y-56240000I-250000J0D01*
G01*
X158047500Y-56240000D01*
G75*
G02*
X157797500Y-55990000I0J250000D01*
G01*
G37*
%TD.AperFunction*%
%TO.P,C8,2*%
%TO.N,/ANT2*%
%TA.AperFunction,SMDPad,CuDef*%
G36*
G01*
X159872500Y-55990000D02*
X159872500Y-55040000D01*
G75*
G02*
X160122500Y-54790000I250000J0D01*
G01*
X160797500Y-54790000D01*
G75*
G02*
X161047500Y-55040000I0J-250000D01*
G01*
X161047500Y-55990000D01*
G75*
G02*
X160797500Y-56240000I-250000J0D01*
G01*
X160122500Y-56240000D01*
G75*
G02*
X159872500Y-55990000I0J250000D01*
G01*
G37*
%TD.AperFunction*%
%TD*%
%TO.P,D2,2*%
%TO.N,Net-(C7-Pad1)*%
X158385000Y-62625000D03*
%TO.P,D2,1*%
%TO.N,Net-(C8-Pad1)*%
X158385000Y-59325000D03*
%TD*%
D15*
%TO.P,H1,1*%
%TO.N,/ANT1*%
X134255000Y-47895000D03*
D16*
X136655000Y-47895000D03*
X135952056Y-49592056D03*
X134255000Y-50295000D03*
X132557944Y-49592056D03*
X131855000Y-47895000D03*
X132557944Y-46197944D03*
X134255000Y-45495000D03*
X135952056Y-46197944D03*
%TD*%
%TO.P,H2,1*%
%TO.N,/ANT2*%
X162622056Y-46197944D03*
X160925000Y-45495000D03*
X159227944Y-46197944D03*
X158525000Y-47895000D03*
X159227944Y-49592056D03*
X160925000Y-50295000D03*
X162622056Y-49592056D03*
X163325000Y-47895000D03*
D15*
X160925000Y-47895000D03*
%TD*%
%TO.P,R1,1*%
%TO.N,Net-(R1-Pad1)*%
%TA.AperFunction,SMDPad,CuDef*%
G36*
G01*
X148825000Y-49349999D02*
X148825000Y-50250001D01*
G75*
G02*
X148575001Y-50500000I-249999J0D01*
G01*
X147874999Y-50500000D01*
G75*
G02*
X147625000Y-50250001I0J249999D01*
G01*
X147625000Y-49349999D01*
G75*
G02*
X147874999Y-49100000I249999J0D01*
G01*
X148575001Y-49100000D01*
G75*
G02*
X148825000Y-49349999I0J-249999D01*
G01*
G37*
%TD.AperFunction*%
%TO.P,R1,2*%
%TO.N,Net-(C1-Pad2)*%
%TA.AperFunction,SMDPad,CuDef*%
G36*
G01*
X146825000Y-49349999D02*
X146825000Y-50250001D01*
G75*
G02*
X146575001Y-50500000I-249999J0D01*
G01*
X145874999Y-50500000D01*
G75*
G02*
X145625000Y-50250001I0J249999D01*
G01*
X145625000Y-49349999D01*
G75*
G02*
X145874999Y-49100000I249999J0D01*
G01*
X146575001Y-49100000D01*
G75*
G02*
X146825000Y-49349999I0J-249999D01*
G01*
G37*
%TD.AperFunction*%
%TD*%
%TO.P,R2,2*%
%TO.N,Net-(R2-Pad2)*%
%TA.AperFunction,SMDPad,CuDef*%
G36*
G01*
X155715000Y-65224999D02*
X155715000Y-66125001D01*
G75*
G02*
X155465001Y-66375000I-249999J0D01*
G01*
X154764999Y-66375000D01*
G75*
G02*
X154515000Y-66125001I0J249999D01*
G01*
X154515000Y-65224999D01*
G75*
G02*
X154764999Y-64975000I249999J0D01*
G01*
X155465001Y-64975000D01*
G75*
G02*
X155715000Y-65224999I0J-249999D01*
G01*
G37*
%TD.AperFunction*%
%TO.P,R2,1*%
%TO.N,Net-(C3-Pad1)*%
%TA.AperFunction,SMDPad,CuDef*%
G36*
G01*
X157715000Y-65224999D02*
X157715000Y-66125001D01*
G75*
G02*
X157465001Y-66375000I-249999J0D01*
G01*
X156764999Y-66375000D01*
G75*
G02*
X156515000Y-66125001I0J249999D01*
G01*
X156515000Y-65224999D01*
G75*
G02*
X156764999Y-64975000I249999J0D01*
G01*
X157465001Y-64975000D01*
G75*
G02*
X157715000Y-65224999I0J-249999D01*
G01*
G37*
%TD.AperFunction*%
%TD*%
%TO.P,R3,1*%
%TO.N,Net-(C4-Pad1)*%
%TA.AperFunction,SMDPad,CuDef*%
G36*
G01*
X137465000Y-66125001D02*
X137465000Y-65224999D01*
G75*
G02*
X137714999Y-64975000I249999J0D01*
G01*
X138415001Y-64975000D01*
G75*
G02*
X138665000Y-65224999I0J-249999D01*
G01*
X138665000Y-66125001D01*
G75*
G02*
X138415001Y-66375000I-249999J0D01*
G01*
X137714999Y-66375000D01*
G75*
G02*
X137465000Y-66125001I0J249999D01*
G01*
G37*
%TD.AperFunction*%
%TO.P,R3,2*%
%TO.N,Net-(R3-Pad2)*%
%TA.AperFunction,SMDPad,CuDef*%
G36*
G01*
X139465000Y-66125001D02*
X139465000Y-65224999D01*
G75*
G02*
X139714999Y-64975000I249999J0D01*
G01*
X140415001Y-64975000D01*
G75*
G02*
X140665000Y-65224999I0J-249999D01*
G01*
X140665000Y-66125001D01*
G75*
G02*
X140415001Y-66375000I-249999J0D01*
G01*
X139714999Y-66375000D01*
G75*
G02*
X139465000Y-66125001I0J249999D01*
G01*
G37*
%TD.AperFunction*%
%TD*%
%TO.P,R4,2*%
%TO.N,Net-(C4-Pad1)*%
%TA.AperFunction,SMDPad,CuDef*%
G36*
G01*
X132534999Y-60725000D02*
X133435001Y-60725000D01*
G75*
G02*
X133685000Y-60974999I0J-249999D01*
G01*
X133685000Y-61675001D01*
G75*
G02*
X133435001Y-61925000I-249999J0D01*
G01*
X132534999Y-61925000D01*
G75*
G02*
X132285000Y-61675001I0J249999D01*
G01*
X132285000Y-60974999D01*
G75*
G02*
X132534999Y-60725000I249999J0D01*
G01*
G37*
%TD.AperFunction*%
%TO.P,R4,1*%
%TO.N,Net-(C6-Pad1)*%
%TA.AperFunction,SMDPad,CuDef*%
G36*
G01*
X132534999Y-58725000D02*
X133435001Y-58725000D01*
G75*
G02*
X133685000Y-58974999I0J-249999D01*
G01*
X133685000Y-59675001D01*
G75*
G02*
X133435001Y-59925000I-249999J0D01*
G01*
X132534999Y-59925000D01*
G75*
G02*
X132285000Y-59675001I0J249999D01*
G01*
X132285000Y-58974999D01*
G75*
G02*
X132534999Y-58725000I249999J0D01*
G01*
G37*
%TD.AperFunction*%
%TD*%
%TO.P,R5,2*%
%TO.N,+9V*%
%TA.AperFunction,SMDPad,CuDef*%
G36*
G01*
X146504999Y-63900000D02*
X147405001Y-63900000D01*
G75*
G02*
X147655000Y-64149999I0J-249999D01*
G01*
X147655000Y-64850001D01*
G75*
G02*
X147405001Y-65100000I-249999J0D01*
G01*
X146504999Y-65100000D01*
G75*
G02*
X146255000Y-64850001I0J249999D01*
G01*
X146255000Y-64149999D01*
G75*
G02*
X146504999Y-63900000I249999J0D01*
G01*
G37*
%TD.AperFunction*%
%TO.P,R5,1*%
%TO.N,Net-(C7-Pad1)*%
%TA.AperFunction,SMDPad,CuDef*%
G36*
G01*
X146504999Y-61900000D02*
X147405001Y-61900000D01*
G75*
G02*
X147655000Y-62149999I0J-249999D01*
G01*
X147655000Y-62850001D01*
G75*
G02*
X147405001Y-63100000I-249999J0D01*
G01*
X146504999Y-63100000D01*
G75*
G02*
X146255000Y-62850001I0J249999D01*
G01*
X146255000Y-62149999D01*
G75*
G02*
X146504999Y-61900000I249999J0D01*
G01*
G37*
%TD.AperFunction*%
%TD*%
%TO.P,R6,1*%
%TO.N,Net-(C8-Pad1)*%
%TA.AperFunction,SMDPad,CuDef*%
G36*
G01*
X161744999Y-58725000D02*
X162645001Y-58725000D01*
G75*
G02*
X162895000Y-58974999I0J-249999D01*
G01*
X162895000Y-59675001D01*
G75*
G02*
X162645001Y-59925000I-249999J0D01*
G01*
X161744999Y-59925000D01*
G75*
G02*
X161495000Y-59675001I0J249999D01*
G01*
X161495000Y-58974999D01*
G75*
G02*
X161744999Y-58725000I249999J0D01*
G01*
G37*
%TD.AperFunction*%
%TO.P,R6,2*%
%TO.N,Net-(C3-Pad1)*%
%TA.AperFunction,SMDPad,CuDef*%
G36*
G01*
X161744999Y-60725000D02*
X162645001Y-60725000D01*
G75*
G02*
X162895000Y-60974999I0J-249999D01*
G01*
X162895000Y-61675001D01*
G75*
G02*
X162645001Y-61925000I-249999J0D01*
G01*
X161744999Y-61925000D01*
G75*
G02*
X161495000Y-61675001I0J249999D01*
G01*
X161495000Y-60974999D01*
G75*
G02*
X161744999Y-60725000I249999J0D01*
G01*
G37*
%TD.AperFunction*%
%TD*%
D17*
%TO.P,S1,8*%
%TO.N,GND*%
X142955000Y-72660000D03*
%TO.P,S1,7*%
%TO.N,Net-(S1-Pad6)*%
X144955000Y-72660000D03*
%TO.P,S1,6*%
X148955000Y-72660000D03*
%TO.P,S1,5*%
%TO.N,+BATT*%
X150955000Y-72660000D03*
%TO.P,S1,4*%
X142955000Y-69360000D03*
%TO.P,S1,3*%
%TO.N,+9V*%
X144955000Y-69360000D03*
%TO.P,S1,2*%
X148955000Y-69360000D03*
%TO.P,S1,1*%
%TO.N,+BATT*%
X150955000Y-69360000D03*
%TD*%
D18*
%TO.P,TP1,1*%
%TO.N,Net-(TP1-Pad1)*%
X159655000Y-72025000D03*
%TD*%
%TO.P,U1,1*%
%TO.N,Net-(C1-Pad1)*%
%TA.AperFunction,SMDPad,CuDef*%
G36*
G01*
X150615000Y-52765000D02*
X150915000Y-52765000D01*
G75*
G02*
X151065000Y-52915000I0J-150000D01*
G01*
X151065000Y-54565000D01*
G75*
G02*
X150915000Y-54715000I-150000J0D01*
G01*
X150615000Y-54715000D01*
G75*
G02*
X150465000Y-54565000I0J150000D01*
G01*
X150465000Y-52915000D01*
G75*
G02*
X150615000Y-52765000I150000J0D01*
G01*
G37*
%TD.AperFunction*%
%TO.P,U1,2*%
%TO.N,Net-(R1-Pad1)*%
%TA.AperFunction,SMDPad,CuDef*%
G36*
G01*
X149345000Y-52765000D02*
X149645000Y-52765000D01*
G75*
G02*
X149795000Y-52915000I0J-150000D01*
G01*
X149795000Y-54565000D01*
G75*
G02*
X149645000Y-54715000I-150000J0D01*
G01*
X149345000Y-54715000D01*
G75*
G02*
X149195000Y-54565000I0J150000D01*
G01*
X149195000Y-52915000D01*
G75*
G02*
X149345000Y-52765000I150000J0D01*
G01*
G37*
%TD.AperFunction*%
%TO.P,U1,3*%
%TO.N,Net-(C1-Pad2)*%
%TA.AperFunction,SMDPad,CuDef*%
G36*
G01*
X148075000Y-52765000D02*
X148375000Y-52765000D01*
G75*
G02*
X148525000Y-52915000I0J-150000D01*
G01*
X148525000Y-54565000D01*
G75*
G02*
X148375000Y-54715000I-150000J0D01*
G01*
X148075000Y-54715000D01*
G75*
G02*
X147925000Y-54565000I0J150000D01*
G01*
X147925000Y-52915000D01*
G75*
G02*
X148075000Y-52765000I150000J0D01*
G01*
G37*
%TD.AperFunction*%
%TO.P,U1,4*%
%TO.N,+9V*%
%TA.AperFunction,SMDPad,CuDef*%
G36*
G01*
X146805000Y-52765000D02*
X147105000Y-52765000D01*
G75*
G02*
X147255000Y-52915000I0J-150000D01*
G01*
X147255000Y-54565000D01*
G75*
G02*
X147105000Y-54715000I-150000J0D01*
G01*
X146805000Y-54715000D01*
G75*
G02*
X146655000Y-54565000I0J150000D01*
G01*
X146655000Y-52915000D01*
G75*
G02*
X146805000Y-52765000I150000J0D01*
G01*
G37*
%TD.AperFunction*%
%TO.P,U1,5*%
%TA.AperFunction,SMDPad,CuDef*%
G36*
G01*
X145535000Y-52765000D02*
X145835000Y-52765000D01*
G75*
G02*
X145985000Y-52915000I0J-150000D01*
G01*
X145985000Y-54565000D01*
G75*
G02*
X145835000Y-54715000I-150000J0D01*
G01*
X145535000Y-54715000D01*
G75*
G02*
X145385000Y-54565000I0J150000D01*
G01*
X145385000Y-52915000D01*
G75*
G02*
X145535000Y-52765000I150000J0D01*
G01*
G37*
%TD.AperFunction*%
%TO.P,U1,6*%
%TA.AperFunction,SMDPad,CuDef*%
G36*
G01*
X144265000Y-52765000D02*
X144565000Y-52765000D01*
G75*
G02*
X144715000Y-52915000I0J-150000D01*
G01*
X144715000Y-54565000D01*
G75*
G02*
X144565000Y-54715000I-150000J0D01*
G01*
X144265000Y-54715000D01*
G75*
G02*
X144115000Y-54565000I0J150000D01*
G01*
X144115000Y-52915000D01*
G75*
G02*
X144265000Y-52765000I150000J0D01*
G01*
G37*
%TD.AperFunction*%
%TO.P,U1,7*%
%TO.N,GND*%
%TA.AperFunction,SMDPad,CuDef*%
G36*
G01*
X142995000Y-52765000D02*
X143295000Y-52765000D01*
G75*
G02*
X143445000Y-52915000I0J-150000D01*
G01*
X143445000Y-54565000D01*
G75*
G02*
X143295000Y-54715000I-150000J0D01*
G01*
X142995000Y-54715000D01*
G75*
G02*
X142845000Y-54565000I0J150000D01*
G01*
X142845000Y-52915000D01*
G75*
G02*
X142995000Y-52765000I150000J0D01*
G01*
G37*
%TD.AperFunction*%
%TO.P,U1,8*%
%TA.AperFunction,SMDPad,CuDef*%
G36*
G01*
X142995000Y-57715000D02*
X143295000Y-57715000D01*
G75*
G02*
X143445000Y-57865000I0J-150000D01*
G01*
X143445000Y-59515000D01*
G75*
G02*
X143295000Y-59665000I-150000J0D01*
G01*
X142995000Y-59665000D01*
G75*
G02*
X142845000Y-59515000I0J150000D01*
G01*
X142845000Y-57865000D01*
G75*
G02*
X142995000Y-57715000I150000J0D01*
G01*
G37*
%TD.AperFunction*%
%TO.P,U1,9*%
%TO.N,Net-(S1-Pad6)*%
%TA.AperFunction,SMDPad,CuDef*%
G36*
G01*
X144265000Y-57715000D02*
X144565000Y-57715000D01*
G75*
G02*
X144715000Y-57865000I0J-150000D01*
G01*
X144715000Y-59515000D01*
G75*
G02*
X144565000Y-59665000I-150000J0D01*
G01*
X144265000Y-59665000D01*
G75*
G02*
X144115000Y-59515000I0J150000D01*
G01*
X144115000Y-57865000D01*
G75*
G02*
X144265000Y-57715000I150000J0D01*
G01*
G37*
%TD.AperFunction*%
%TO.P,U1,10*%
%TO.N,Net-(R3-Pad2)*%
%TA.AperFunction,SMDPad,CuDef*%
G36*
G01*
X145535000Y-57715000D02*
X145835000Y-57715000D01*
G75*
G02*
X145985000Y-57865000I0J-150000D01*
G01*
X145985000Y-59515000D01*
G75*
G02*
X145835000Y-59665000I-150000J0D01*
G01*
X145535000Y-59665000D01*
G75*
G02*
X145385000Y-59515000I0J150000D01*
G01*
X145385000Y-57865000D01*
G75*
G02*
X145535000Y-57715000I150000J0D01*
G01*
G37*
%TD.AperFunction*%
%TO.P,U1,11*%
%TO.N,Net-(R2-Pad2)*%
%TA.AperFunction,SMDPad,CuDef*%
G36*
G01*
X146805000Y-57715000D02*
X147105000Y-57715000D01*
G75*
G02*
X147255000Y-57865000I0J-150000D01*
G01*
X147255000Y-59515000D01*
G75*
G02*
X147105000Y-59665000I-150000J0D01*
G01*
X146805000Y-59665000D01*
G75*
G02*
X146655000Y-59515000I0J150000D01*
G01*
X146655000Y-57865000D01*
G75*
G02*
X146805000Y-57715000I150000J0D01*
G01*
G37*
%TD.AperFunction*%
%TO.P,U1,12*%
%TO.N,GND*%
%TA.AperFunction,SMDPad,CuDef*%
G36*
G01*
X148075000Y-57715000D02*
X148375000Y-57715000D01*
G75*
G02*
X148525000Y-57865000I0J-150000D01*
G01*
X148525000Y-59515000D01*
G75*
G02*
X148375000Y-59665000I-150000J0D01*
G01*
X148075000Y-59665000D01*
G75*
G02*
X147925000Y-59515000I0J150000D01*
G01*
X147925000Y-57865000D01*
G75*
G02*
X148075000Y-57715000I150000J0D01*
G01*
G37*
%TD.AperFunction*%
%TO.P,U1,13*%
%TO.N,Net-(TP1-Pad1)*%
%TA.AperFunction,SMDPad,CuDef*%
G36*
G01*
X149345000Y-57715000D02*
X149645000Y-57715000D01*
G75*
G02*
X149795000Y-57865000I0J-150000D01*
G01*
X149795000Y-59515000D01*
G75*
G02*
X149645000Y-59665000I-150000J0D01*
G01*
X149345000Y-59665000D01*
G75*
G02*
X149195000Y-59515000I0J150000D01*
G01*
X149195000Y-57865000D01*
G75*
G02*
X149345000Y-57715000I150000J0D01*
G01*
G37*
%TD.AperFunction*%
%TO.P,U1,14*%
%TO.N,+9V*%
%TA.AperFunction,SMDPad,CuDef*%
G36*
G01*
X150615000Y-57715000D02*
X150915000Y-57715000D01*
G75*
G02*
X151065000Y-57865000I0J-150000D01*
G01*
X151065000Y-59515000D01*
G75*
G02*
X150915000Y-59665000I-150000J0D01*
G01*
X150615000Y-59665000D01*
G75*
G02*
X150465000Y-59515000I0J150000D01*
G01*
X150465000Y-57865000D01*
G75*
G02*
X150615000Y-57715000I150000J0D01*
G01*
G37*
%TD.AperFunction*%
%TD*%
D16*
%TO.P,H3,1*%
%TO.N,GND*%
X145892944Y-154617944D03*
X145190000Y-156315000D03*
X145892944Y-158012056D03*
X147590000Y-158715000D03*
X149287056Y-158012056D03*
X149990000Y-156315000D03*
X149287056Y-154617944D03*
X147590000Y-153915000D03*
D15*
X147590000Y-156315000D03*
%TD*%
%TO.P,H4,1*%
%TO.N,GND*%
X147590000Y-141315000D03*
D16*
X147590000Y-138915000D03*
X149287056Y-139617944D03*
X149990000Y-141315000D03*
X149287056Y-143012056D03*
X147590000Y-143715000D03*
X145892944Y-143012056D03*
X145190000Y-141315000D03*
X145892944Y-139617944D03*
%TD*%
D19*
%TO.N,GND*%
X136825000Y-135782510D03*
X137039240Y-133776696D03*
X138207412Y-132141064D03*
X139584505Y-130652145D03*
X140746000Y-126836010D03*
X140746000Y-124805181D03*
X140746000Y-122774351D03*
X140746000Y-120743521D03*
X140746000Y-118712691D03*
X140746000Y-116681861D03*
X140746000Y-114651031D03*
X140746000Y-112620201D03*
X140746000Y-110589371D03*
X140746000Y-108558541D03*
X140746000Y-106527711D03*
X140746000Y-104496881D03*
X140746000Y-102466051D03*
X140746000Y-100435221D03*
X140746000Y-98404392D03*
X140746000Y-96373562D03*
X140746000Y-94342732D03*
X140746000Y-92311902D03*
X139117328Y-88764850D03*
X138300000Y-87024240D03*
X138300000Y-84993411D03*
X138300000Y-82962581D03*
X138300000Y-80931751D03*
X138300000Y-78900921D03*
X138617144Y-74864792D03*
X139289388Y-72951691D03*
X140307654Y-71198404D03*
X139784866Y-67831654D03*
X138439565Y-69350528D03*
X137334924Y-71052119D03*
X136500156Y-72901275D03*
X135713961Y-76870260D03*
X135700000Y-78900921D03*
X135700000Y-80931751D03*
X135700000Y-82962580D03*
X135700000Y-84993410D03*
X135700000Y-87024240D03*
X137270789Y-90595267D03*
X138146000Y-92311902D03*
X138146000Y-98404391D03*
X138146000Y-100435221D03*
X138146000Y-102466051D03*
X138146000Y-104496881D03*
X138146000Y-106527711D03*
X138146000Y-108558541D03*
X138146000Y-110589371D03*
X138146000Y-112620201D03*
X138146000Y-114651031D03*
X138146000Y-116681861D03*
X138146000Y-118712691D03*
X138146000Y-120743521D03*
X138146000Y-124805180D03*
X138146000Y-126836010D03*
X137693931Y-128789045D03*
X136360872Y-130310648D03*
X135074525Y-131873057D03*
X134225000Y-135782510D03*
X134366000Y-133604000D03*
X140462000Y-129032000D03*
X140462000Y-90170000D03*
X136144000Y-89154000D03*
X135890000Y-74930000D03*
X138430000Y-76708000D03*
X141732000Y-65786000D03*
X131064000Y-44450000D03*
X163830000Y-44450000D03*
X148082000Y-44450000D03*
X140970000Y-44450000D03*
X155194000Y-44450000D03*
X139700000Y-53594000D03*
X155194000Y-53594000D03*
X160274000Y-60960000D03*
X157480000Y-60960000D03*
X152908000Y-66802000D03*
X158750000Y-67818000D03*
X162814000Y-72136000D03*
X161544000Y-69342000D03*
X155194000Y-71628000D03*
X135128000Y-60960000D03*
X139700000Y-58166000D03*
X140716000Y-48768000D03*
X132080000Y-52324000D03*
X134874000Y-57658000D03*
X131572000Y-63500000D03*
X131826000Y-56642000D03*
X131572000Y-68326000D03*
X131318000Y-76454000D03*
X131572000Y-85344000D03*
X131572000Y-92456000D03*
X131572000Y-99568000D03*
X131318000Y-108204000D03*
X131318000Y-117856000D03*
X131318000Y-126492000D03*
X131318000Y-148336000D03*
X135128000Y-155956000D03*
X142240000Y-159512000D03*
X152908000Y-159512000D03*
X159258000Y-156464000D03*
X163830000Y-147828000D03*
X164084000Y-136906000D03*
X163830000Y-127508000D03*
X164084000Y-118364000D03*
X164084000Y-110490000D03*
X164084000Y-103124000D03*
X164084000Y-97028000D03*
X164084000Y-91186000D03*
X164084000Y-84328000D03*
X164084000Y-78232000D03*
X157734000Y-77978000D03*
X157734000Y-84328000D03*
X157988000Y-90932000D03*
X158242000Y-97028000D03*
X158242000Y-103124000D03*
X158496000Y-118110000D03*
X158750000Y-127508000D03*
X159004000Y-136652000D03*
X159258000Y-147574000D03*
X150876000Y-136652000D03*
X150876000Y-127254000D03*
X151384000Y-117856000D03*
X151384000Y-102870000D03*
X151384000Y-96774000D03*
X151638000Y-90678000D03*
X145288000Y-77724000D03*
X145796000Y-90424000D03*
X145796000Y-96774000D03*
X146050000Y-102870000D03*
X146050000Y-109982000D03*
X146304000Y-117602000D03*
X146304000Y-127254000D03*
X141986000Y-136652000D03*
X142240000Y-147828000D03*
X151638000Y-147828000D03*
X138938000Y-152400000D03*
X155702000Y-152146000D03*
X145542000Y-83820000D03*
X151130000Y-74930000D03*
X152908000Y-56134000D03*
X148082000Y-56642000D03*
%TO.N,+9V*%
X152035000Y-64405000D03*
X155210000Y-58690000D03*
%TO.N,Net-(R2-Pad2)*%
X153305000Y-63770000D03*
X150765000Y-61230000D03*
%TO.N,Net-(R3-Pad2)*%
X139970000Y-63770000D03*
X139970000Y-61230000D03*
%TO.N,Net-(S1-Pad6)*%
X141240000Y-59960000D03*
%TO.N,Net-(TP1-Pad1)*%
X152670000Y-61834500D03*
X154575000Y-63770000D03*
%TD*%
D20*
%TO.N,+BATT*%
X151400000Y-72660000D02*
X150955000Y-72660000D01*
X152965000Y-74225000D02*
X151400000Y-72660000D01*
X152965000Y-83765000D02*
X152965000Y-74225000D01*
X142955000Y-69360000D02*
X142955000Y-70565000D01*
X143590000Y-71200000D02*
X150955000Y-71200000D01*
X142955000Y-70565000D02*
X143590000Y-71200000D01*
X150955000Y-71200000D02*
X150955000Y-69360000D01*
X150955000Y-72660000D02*
X150955000Y-71200000D01*
%TO.N,Net-(C1-Pad2)*%
X146225000Y-50340000D02*
X146225000Y-49800000D01*
X148225000Y-52340000D02*
X146225000Y-50340000D01*
X148225000Y-53740000D02*
X148225000Y-52340000D01*
X146225000Y-49260000D02*
X146225000Y-49800000D01*
X150130000Y-48530000D02*
X146955000Y-48530000D01*
X150765000Y-49165000D02*
X150130000Y-48530000D01*
X146955000Y-48530000D02*
X146225000Y-49260000D01*
X150765000Y-49800000D02*
X150765000Y-49165000D01*
%TO.N,Net-(C1-Pad1)*%
X152840000Y-50265000D02*
X152840000Y-49800000D01*
X150765000Y-52340000D02*
X152840000Y-50265000D01*
X150765000Y-53740000D02*
X150765000Y-52340000D01*
%TO.N,+9V*%
X150627500Y-64500000D02*
X150765000Y-64637500D01*
X150765000Y-58690000D02*
X153940000Y-58690000D01*
X150765000Y-56785000D02*
X150765000Y-58690000D01*
X148955000Y-64690000D02*
X148765000Y-64500000D01*
X148955000Y-69360000D02*
X148955000Y-64690000D01*
X148765000Y-64500000D02*
X150627500Y-64500000D01*
X146955000Y-64500000D02*
X148765000Y-64500000D01*
X144955000Y-69360000D02*
X148955000Y-69360000D01*
X150765000Y-64637500D02*
X151802500Y-64637500D01*
X151802500Y-64637500D02*
X152035000Y-64405000D01*
X155210000Y-58690000D02*
X153940000Y-58690000D01*
X144415000Y-53740000D02*
X144415000Y-54880000D01*
X145050000Y-55515000D02*
X145685000Y-55515000D01*
X144415000Y-54880000D02*
X145050000Y-55515000D01*
X145685000Y-53740000D02*
X145685000Y-55515000D01*
X145685000Y-55515000D02*
X146955000Y-55515000D01*
X146955000Y-53740000D02*
X146955000Y-55515000D01*
X146955000Y-55515000D02*
X149495000Y-55515000D01*
X149495000Y-55515000D02*
X150495000Y-56515000D01*
X150495000Y-56515000D02*
X150765000Y-56785000D01*
%TO.N,Net-(C3-Pad1)*%
X157115000Y-65675000D02*
X157115000Y-64405000D01*
X157115000Y-64405000D02*
X157750000Y-63770000D01*
X157750000Y-63770000D02*
X162195000Y-63770000D01*
X162195000Y-63770000D02*
X162195000Y-65675000D01*
X162195000Y-61325000D02*
X162195000Y-63770000D01*
%TO.N,Net-(C4-Pad1)*%
X138065000Y-65675000D02*
X138065000Y-64405000D01*
X137430000Y-63770000D02*
X132985000Y-63770000D01*
X138065000Y-64405000D02*
X137430000Y-63770000D01*
X132985000Y-63770000D02*
X132985000Y-65675000D01*
X132985000Y-61325000D02*
X132985000Y-63770000D01*
%TO.N,Net-(C6-Pad1)*%
X136795000Y-55515000D02*
X136795000Y-59325000D01*
X136795000Y-59325000D02*
X132985000Y-59325000D01*
%TO.N,Net-(C7-Pad2)*%
X142437893Y-67017106D02*
X140535533Y-68919466D01*
X136939213Y-131570786D02*
X138031786Y-130478213D01*
X136775797Y-131742425D02*
X136939213Y-131570786D01*
X136621001Y-131921877D02*
X136775797Y-131742425D01*
X136475197Y-132108708D02*
X136621001Y-131921877D01*
X136338736Y-132302469D02*
X136475197Y-132108708D01*
X136211946Y-132502692D02*
X136338736Y-132302469D01*
X136095134Y-132708894D02*
X136211946Y-132502692D01*
X135988580Y-132920581D02*
X136095134Y-132708894D01*
X135892541Y-133137240D02*
X135988580Y-132920581D01*
X135807249Y-133358351D02*
X135892541Y-133137240D01*
X135732909Y-133583381D02*
X135807249Y-133358351D01*
X135669701Y-133811787D02*
X135732909Y-133583381D01*
X135617776Y-134043020D02*
X135669701Y-133811787D01*
X135577260Y-134276522D02*
X135617776Y-134043020D01*
X135548249Y-134511731D02*
X135577260Y-134276522D01*
X135530815Y-134748080D02*
X135548249Y-134511731D01*
X135525000Y-134985000D02*
X135530815Y-134748080D01*
X135525000Y-134985000D02*
X135525000Y-141875000D01*
X138195200Y-130306572D02*
X138031786Y-130478213D01*
X138349996Y-130127121D02*
X138195200Y-130306572D01*
X138495801Y-129940290D02*
X138349996Y-130127121D01*
X138632262Y-129746529D02*
X138495801Y-129940290D01*
X138759052Y-129546307D02*
X138632262Y-129746529D01*
X138875864Y-129340104D02*
X138759052Y-129546307D01*
X138982418Y-129128418D02*
X138875864Y-129340104D01*
X139078457Y-128911758D02*
X138982418Y-129128418D01*
X139163749Y-128690647D02*
X139078457Y-128911758D01*
X139238089Y-128465618D02*
X139163749Y-128690647D01*
X139301297Y-128237211D02*
X139238089Y-128465618D01*
X139353222Y-128005979D02*
X139301297Y-128237211D01*
X139393739Y-127772477D02*
X139353222Y-128005979D01*
X139422749Y-127537268D02*
X139393739Y-127772477D01*
X139440183Y-127300919D02*
X139422749Y-127537268D01*
X139446000Y-127064000D02*
X139440183Y-127300919D01*
X139446000Y-127064000D02*
X139446000Y-91932000D01*
X138738893Y-90224893D02*
X137707106Y-89193106D01*
X138820600Y-90310712D02*
X138738893Y-90224893D01*
X138897998Y-90400438D02*
X138820600Y-90310712D01*
X138970900Y-90493854D02*
X138897998Y-90400438D01*
X139039131Y-90590734D02*
X138970900Y-90493854D01*
X139102526Y-90690845D02*
X139039131Y-90590734D01*
X139160932Y-90793947D02*
X139102526Y-90690845D01*
X139214209Y-90899790D02*
X139160932Y-90793947D01*
X139262228Y-91008120D02*
X139214209Y-90899790D01*
X139304874Y-91118675D02*
X139262228Y-91008120D01*
X139342044Y-91231190D02*
X139304874Y-91118675D01*
X139373649Y-91345393D02*
X139342044Y-91231190D01*
X139399611Y-91461010D02*
X139373649Y-91345393D01*
X139419869Y-91577761D02*
X139399611Y-91461010D01*
X139434374Y-91695365D02*
X139419869Y-91577761D01*
X139443091Y-91813540D02*
X139434374Y-91695365D01*
X139446000Y-91932000D02*
X139443091Y-91813540D01*
X137000000Y-87486000D02*
X137000000Y-77455000D01*
X137002907Y-87604459D02*
X137000000Y-87486000D01*
X137011624Y-87722634D02*
X137002907Y-87604459D01*
X137026129Y-87840238D02*
X137011624Y-87722634D01*
X137046387Y-87956989D02*
X137026129Y-87840238D01*
X137072350Y-88072605D02*
X137046387Y-87956989D01*
X137103954Y-88186808D02*
X137072350Y-88072605D01*
X137141124Y-88299323D02*
X137103954Y-88186808D01*
X137183770Y-88409879D02*
X137141124Y-88299323D01*
X137231789Y-88518208D02*
X137183770Y-88409879D01*
X137285066Y-88624051D02*
X137231789Y-88518208D01*
X137343472Y-88727153D02*
X137285066Y-88624051D01*
X137406867Y-88827264D02*
X137343472Y-88727153D01*
X137475098Y-88924144D02*
X137406867Y-88827264D01*
X137548000Y-89017560D02*
X137475098Y-88924144D01*
X137625398Y-89107285D02*
X137548000Y-89017560D01*
X137707106Y-89193106D02*
X137625398Y-89107285D01*
X137000000Y-77455000D02*
X137014539Y-76862700D01*
X137014539Y-76862700D02*
X137058125Y-76271828D01*
X137058125Y-76271828D02*
X137130650Y-75683806D01*
X137130650Y-75683806D02*
X137231941Y-75100051D01*
X137231941Y-75100051D02*
X137361754Y-74521969D01*
X137361754Y-74521969D02*
X137519775Y-73950954D01*
X137519775Y-73950954D02*
X137705625Y-73388379D01*
X137705625Y-73388379D02*
X137918854Y-72835602D01*
X137918854Y-72835602D02*
X138158951Y-72293953D01*
X138158951Y-72293953D02*
X138425335Y-71764738D01*
X138425335Y-71764738D02*
X138717366Y-71249230D01*
X138717366Y-71249230D02*
X139034341Y-70748674D01*
X139034341Y-70748674D02*
X139375494Y-70264273D01*
X139375494Y-70264273D02*
X139740005Y-69797195D01*
X139740005Y-69797195D02*
X140126995Y-69348566D01*
X140126995Y-69348566D02*
X140535533Y-68919466D01*
X143145000Y-65310000D02*
X143145000Y-64575000D01*
X143145000Y-65310000D02*
X143142091Y-65428459D01*
X143142091Y-65428459D02*
X143133374Y-65546634D01*
X143133374Y-65546634D02*
X143118869Y-65664238D01*
X143118869Y-65664238D02*
X143098611Y-65780989D01*
X143098611Y-65780989D02*
X143072648Y-65896605D01*
X143072648Y-65896605D02*
X143041044Y-66010808D01*
X143041044Y-66010808D02*
X143003874Y-66123323D01*
X143003874Y-66123323D02*
X142961228Y-66233879D01*
X142961228Y-66233879D02*
X142913209Y-66342208D01*
X142913209Y-66342208D02*
X142859932Y-66448051D01*
X142859932Y-66448051D02*
X142801525Y-66551153D01*
X142801525Y-66551153D02*
X142738131Y-66651264D01*
X142738131Y-66651264D02*
X142669900Y-66748144D01*
X142669900Y-66748144D02*
X142596998Y-66841559D01*
X142596998Y-66841559D02*
X142519600Y-66931285D01*
X142519600Y-66931285D02*
X142437893Y-67017106D01*
%TO.N,Net-(C7-Pad1)*%
X143020000Y-62625000D02*
X143145000Y-62500000D01*
X136795000Y-62625000D02*
X143020000Y-62625000D01*
X143145000Y-62500000D02*
X146955000Y-62500000D01*
X147080000Y-62625000D02*
X146955000Y-62500000D01*
X158385000Y-62625000D02*
X147080000Y-62625000D01*
%TO.N,Net-(C8-Pad1)*%
X158385000Y-55515000D02*
X158385000Y-59325000D01*
X158385000Y-59325000D02*
X162195000Y-59325000D01*
%TO.N,Net-(R1-Pad1)*%
X148225000Y-49800000D02*
X148860000Y-49800000D01*
X148860000Y-49800000D02*
X149495000Y-50435000D01*
X149495000Y-50435000D02*
X149495000Y-53740000D01*
%TO.N,Net-(R2-Pad2)*%
X155115000Y-65675000D02*
X153940000Y-65675000D01*
X153940000Y-65675000D02*
X153305000Y-65040000D01*
X153305000Y-65040000D02*
X153305000Y-63770000D01*
X146955000Y-59665000D02*
X146955000Y-58690000D01*
X148520000Y-61230000D02*
X146955000Y-59665000D01*
X150765000Y-61230000D02*
X148520000Y-61230000D01*
%TO.N,Net-(R3-Pad2)*%
X140065000Y-63865000D02*
X139970000Y-63770000D01*
X140065000Y-65675000D02*
X140065000Y-63865000D01*
X139970000Y-61230000D02*
X145050000Y-61230000D01*
X145685000Y-60595000D02*
X145685000Y-58690000D01*
X145050000Y-61230000D02*
X145685000Y-60595000D01*
%TO.N,Net-(S1-Pad6)*%
X144955000Y-72660000D02*
X148955000Y-72660000D01*
X141875000Y-60595000D02*
X141240000Y-59960000D01*
X144415000Y-59960000D02*
X143780000Y-60595000D01*
X144415000Y-58690000D02*
X144415000Y-59960000D01*
X143780000Y-60595000D02*
X141875000Y-60595000D01*
%TO.N,Net-(TP1-Pad1)*%
X149495000Y-58690000D02*
X149495000Y-59960000D01*
X150609499Y-60439499D02*
X151244499Y-60439499D01*
X150130000Y-59960000D02*
X150609499Y-60439499D01*
X149495000Y-59960000D02*
X150130000Y-59960000D01*
X152639500Y-61834500D02*
X152670000Y-61834500D01*
X151244499Y-60439499D02*
X152639500Y-61834500D01*
X156124490Y-68494490D02*
X159655000Y-72025000D01*
X155210000Y-63770000D02*
X156124490Y-64684490D01*
X156124490Y-64684490D02*
X156124490Y-68494490D01*
X154575000Y-63770000D02*
X155210000Y-63770000D01*
D21*
%TO.N,/ANT1*%
X134255000Y-55050000D02*
X134720000Y-55515000D01*
D20*
X134720000Y-48360000D02*
X134255000Y-47895000D01*
X134720000Y-55515000D02*
X134720000Y-48360000D01*
%TO.N,/ANT2*%
X160460000Y-48360000D02*
X160925000Y-47895000D01*
X160460000Y-55515000D02*
X160460000Y-48360000D01*
%TD*%
D22*
%TO.N,GND*%
X130856467Y-49711554D02*
X131276161Y-50339670D01*
X131810330Y-50873839D01*
X132438446Y-51293533D01*
X133136372Y-51582623D01*
X133877285Y-51730000D01*
X133894501Y-51730000D01*
X133894500Y-54298716D01*
X133889114Y-54301595D01*
X133754538Y-54412038D01*
X133644095Y-54546614D01*
X133562028Y-54700150D01*
X133511492Y-54866746D01*
X133509136Y-54890671D01*
X133505998Y-54901015D01*
X133491324Y-55050000D01*
X133494428Y-55081515D01*
X133494428Y-55990000D01*
X133511492Y-56163254D01*
X133562028Y-56329850D01*
X133644095Y-56483386D01*
X133754538Y-56617962D01*
X133889114Y-56728405D01*
X134042650Y-56810472D01*
X134209246Y-56861008D01*
X134382500Y-56878072D01*
X135057500Y-56878072D01*
X135230754Y-56861008D01*
X135397350Y-56810472D01*
X135550886Y-56728405D01*
X135685462Y-56617962D01*
X135757500Y-56530183D01*
X135829538Y-56617962D01*
X135964114Y-56728405D01*
X135969500Y-56731284D01*
X135969501Y-58279831D01*
X135950820Y-58285498D01*
X135840506Y-58344463D01*
X135743815Y-58423815D01*
X135681702Y-58499500D01*
X134182966Y-58499500D01*
X134173405Y-58481613D01*
X134062962Y-58347038D01*
X133928387Y-58236595D01*
X133774851Y-58154528D01*
X133608255Y-58103992D01*
X133435001Y-58086928D01*
X132534999Y-58086928D01*
X132361745Y-58103992D01*
X132195149Y-58154528D01*
X132041613Y-58236595D01*
X131907038Y-58347038D01*
X131796595Y-58481613D01*
X131714528Y-58635149D01*
X131663992Y-58801745D01*
X131646928Y-58974999D01*
X131646928Y-59675001D01*
X131663992Y-59848255D01*
X131714528Y-60014851D01*
X131796595Y-60168387D01*
X131907038Y-60302962D01*
X131933891Y-60325000D01*
X131907038Y-60347038D01*
X131796595Y-60481613D01*
X131714528Y-60635149D01*
X131663992Y-60801745D01*
X131646928Y-60974999D01*
X131646928Y-61675001D01*
X131663992Y-61848255D01*
X131714528Y-62014851D01*
X131796595Y-62168387D01*
X131907038Y-62302962D01*
X132041613Y-62413405D01*
X132159500Y-62476417D01*
X132159501Y-63729437D01*
X132155506Y-63770000D01*
X132159500Y-63810553D01*
X132159500Y-64458716D01*
X132154114Y-64461595D01*
X132019538Y-64572038D01*
X131909095Y-64706614D01*
X131827028Y-64860150D01*
X131776492Y-65026746D01*
X131759428Y-65200000D01*
X131759428Y-66150000D01*
X131776492Y-66323254D01*
X131827028Y-66489850D01*
X131909095Y-66643386D01*
X132019538Y-66777962D01*
X132154114Y-66888405D01*
X132307650Y-66970472D01*
X132474246Y-67021008D01*
X132647500Y-67038072D01*
X133322500Y-67038072D01*
X133495754Y-67021008D01*
X133662350Y-66970472D01*
X133815886Y-66888405D01*
X133950462Y-66777962D01*
X133955842Y-66771406D01*
X134021315Y-66851185D01*
X134118006Y-66930537D01*
X134228320Y-66989502D01*
X134348018Y-67025812D01*
X134472500Y-67038072D01*
X134774250Y-67035000D01*
X134933000Y-66876250D01*
X134933000Y-65802000D01*
X135187000Y-65802000D01*
X135187000Y-66876250D01*
X135345750Y-67035000D01*
X135647500Y-67038072D01*
X135771982Y-67025812D01*
X135891680Y-66989502D01*
X136001994Y-66930537D01*
X136098685Y-66851185D01*
X136178037Y-66754494D01*
X136237002Y-66644180D01*
X136273312Y-66524482D01*
X136285572Y-66400000D01*
X136282500Y-65960750D01*
X136123750Y-65802000D01*
X135187000Y-65802000D01*
X134933000Y-65802000D01*
X134913000Y-65802000D01*
X134913000Y-65548000D01*
X134933000Y-65548000D01*
X134933000Y-65528000D01*
X135187000Y-65528000D01*
X135187000Y-65548000D01*
X136123750Y-65548000D01*
X136282500Y-65389250D01*
X136285572Y-64950000D01*
X136273312Y-64825518D01*
X136237002Y-64705820D01*
X136178037Y-64595506D01*
X136178032Y-64595500D01*
X137088067Y-64595500D01*
X137088448Y-64595881D01*
X137087038Y-64597038D01*
X136976595Y-64731613D01*
X136894528Y-64885149D01*
X136843992Y-65051745D01*
X136826928Y-65224999D01*
X136826928Y-66125001D01*
X136843992Y-66298255D01*
X136894528Y-66464851D01*
X136976595Y-66618387D01*
X137087038Y-66752962D01*
X137221613Y-66863405D01*
X137375149Y-66945472D01*
X137541745Y-66996008D01*
X137714999Y-67013072D01*
X138415001Y-67013072D01*
X138588255Y-66996008D01*
X138754851Y-66945472D01*
X138908387Y-66863405D01*
X139042962Y-66752962D01*
X139065000Y-66726109D01*
X139087038Y-66752962D01*
X139221613Y-66863405D01*
X139375149Y-66945472D01*
X139541745Y-66996008D01*
X139714999Y-67013072D01*
X140415001Y-67013072D01*
X140588255Y-66996008D01*
X140754851Y-66945472D01*
X140908387Y-66863405D01*
X141042962Y-66752962D01*
X141153405Y-66618387D01*
X141235472Y-66464851D01*
X141286008Y-66298255D01*
X141303072Y-66125001D01*
X141303072Y-65224999D01*
X141286008Y-65051745D01*
X141235472Y-64885149D01*
X141153405Y-64731613D01*
X141042962Y-64597038D01*
X140908387Y-64486595D01*
X140890500Y-64477034D01*
X140890500Y-64252301D01*
X140965226Y-64071898D01*
X141005000Y-63871939D01*
X141005000Y-63668061D01*
X140965226Y-63468102D01*
X140957935Y-63450500D01*
X142029759Y-63450500D01*
X142042038Y-63465462D01*
X142129817Y-63537500D01*
X142042038Y-63609538D01*
X141931595Y-63744114D01*
X141849528Y-63897650D01*
X141798992Y-64064246D01*
X141781928Y-64237500D01*
X141781928Y-64912500D01*
X141798992Y-65085754D01*
X141849528Y-65252350D01*
X141931595Y-65405886D01*
X142042038Y-65540462D01*
X142176614Y-65650905D01*
X142270264Y-65700962D01*
X142250854Y-65771101D01*
X142226395Y-65845138D01*
X142198338Y-65917873D01*
X142166742Y-65989155D01*
X142131690Y-66058790D01*
X142093254Y-66126639D01*
X142051541Y-66192512D01*
X142006652Y-66256248D01*
X141958691Y-66317705D01*
X141907764Y-66376743D01*
X141847014Y-66440552D01*
X139973317Y-68314250D01*
X139965631Y-68320880D01*
X139944650Y-68342917D01*
X139923142Y-68364425D01*
X139916705Y-68372269D01*
X139543105Y-68764673D01*
X139528408Y-68778665D01*
X139515154Y-68794030D01*
X139501167Y-68808721D01*
X139488686Y-68824713D01*
X139128158Y-69242665D01*
X139114175Y-69257352D01*
X139101701Y-69273336D01*
X139088441Y-69288708D01*
X139076751Y-69305306D01*
X138737179Y-69740429D01*
X138723929Y-69755789D01*
X138712250Y-69772372D01*
X138699765Y-69788370D01*
X138688907Y-69805516D01*
X138371094Y-70256777D01*
X138358611Y-70272772D01*
X138347756Y-70289914D01*
X138336074Y-70306501D01*
X138326073Y-70324155D01*
X138030781Y-70790470D01*
X138019098Y-70807059D01*
X138009099Y-70824710D01*
X137998245Y-70841850D01*
X137989122Y-70859974D01*
X137717063Y-71340226D01*
X137706212Y-71357362D01*
X137697094Y-71375477D01*
X137687090Y-71393136D01*
X137678865Y-71411691D01*
X137430713Y-71904685D01*
X137420705Y-71922352D01*
X137412475Y-71940918D01*
X137403362Y-71959023D01*
X137396067Y-71977935D01*
X137172389Y-72482543D01*
X137163263Y-72500674D01*
X137155958Y-72519613D01*
X137147741Y-72538149D01*
X137141379Y-72557406D01*
X136942735Y-73072374D01*
X136934511Y-73090928D01*
X136928144Y-73110200D01*
X136920845Y-73129123D01*
X136915435Y-73148671D01*
X136742296Y-73672770D01*
X136734994Y-73691699D01*
X136729583Y-73711252D01*
X136723219Y-73730516D01*
X136718774Y-73750312D01*
X136571558Y-74282279D01*
X136565198Y-74301533D01*
X136560755Y-74321318D01*
X136555341Y-74340882D01*
X136551871Y-74360881D01*
X136430938Y-74899415D01*
X136425528Y-74918966D01*
X136422060Y-74938951D01*
X136417614Y-74958751D01*
X136415130Y-74978893D01*
X136320768Y-75522713D01*
X136316323Y-75542509D01*
X136313840Y-75562644D01*
X136310371Y-75582634D01*
X136308878Y-75602869D01*
X136241312Y-76150684D01*
X136237846Y-76170657D01*
X136236355Y-76190873D01*
X136233869Y-76211027D01*
X136233371Y-76231324D01*
X136192767Y-76781763D01*
X136190283Y-76801903D01*
X136189785Y-76822188D01*
X136188293Y-76842415D01*
X136188791Y-76862696D01*
X136175495Y-77404354D01*
X136174501Y-77414447D01*
X136174501Y-77444851D01*
X136173754Y-77475283D01*
X136174501Y-77485410D01*
X136174500Y-87455598D01*
X136173754Y-87465711D01*
X136174500Y-87496109D01*
X136174500Y-87526552D01*
X136175495Y-87536656D01*
X136177159Y-87604454D01*
X136176661Y-87624742D01*
X136178153Y-87644975D01*
X136178651Y-87665251D01*
X136181134Y-87685388D01*
X136186870Y-87763149D01*
X136187368Y-87783435D01*
X136189852Y-87803572D01*
X136191344Y-87823803D01*
X136194813Y-87843796D01*
X136204358Y-87921180D01*
X136205850Y-87941409D01*
X136209318Y-87961398D01*
X136211802Y-87981535D01*
X136216247Y-88001328D01*
X136229578Y-88078160D01*
X136232061Y-88098293D01*
X136236503Y-88118075D01*
X136239973Y-88138072D01*
X136245388Y-88157641D01*
X136262468Y-88233699D01*
X136265937Y-88253690D01*
X136271350Y-88273251D01*
X136275795Y-88293044D01*
X136282158Y-88312304D01*
X136302950Y-88387438D01*
X136307398Y-88407246D01*
X136313765Y-88426520D01*
X136319173Y-88446061D01*
X136326472Y-88464983D01*
X136350935Y-88539032D01*
X136356344Y-88558579D01*
X136363644Y-88577503D01*
X136370010Y-88596774D01*
X136378233Y-88615325D01*
X136406294Y-88688073D01*
X136412657Y-88707332D01*
X136420874Y-88725870D01*
X136428179Y-88744807D01*
X136437305Y-88762938D01*
X136468901Y-88834217D01*
X136476200Y-88853139D01*
X136485317Y-88871252D01*
X136493543Y-88889809D01*
X136503547Y-88907468D01*
X136538602Y-88977111D01*
X136546820Y-88995650D01*
X136556816Y-89013296D01*
X136565943Y-89031428D01*
X136576799Y-89048572D01*
X136615226Y-89116406D01*
X136624351Y-89134534D01*
X136635203Y-89151671D01*
X136645202Y-89169322D01*
X136656888Y-89185915D01*
X136698602Y-89251788D01*
X136708602Y-89269440D01*
X136720285Y-89286028D01*
X136731138Y-89303167D01*
X136743619Y-89319160D01*
X136788510Y-89382900D01*
X136799367Y-89400045D01*
X136811856Y-89416049D01*
X136823535Y-89432631D01*
X136836780Y-89447986D01*
X136884762Y-89509469D01*
X136896439Y-89526049D01*
X136909680Y-89541399D01*
X136922168Y-89557401D01*
X136936166Y-89572103D01*
X136987089Y-89631138D01*
X136999568Y-89647128D01*
X137013554Y-89661818D01*
X137026813Y-89677189D01*
X137041511Y-89691182D01*
X137088280Y-89740307D01*
X137094715Y-89748147D01*
X137116207Y-89769639D01*
X137137202Y-89791691D01*
X137144895Y-89798327D01*
X138148020Y-90801453D01*
X138208763Y-90865252D01*
X138259681Y-90924281D01*
X138307656Y-90985756D01*
X138352544Y-91049491D01*
X138394260Y-91115367D01*
X138432689Y-91183205D01*
X138467743Y-91252846D01*
X138499336Y-91324119D01*
X138527395Y-91396860D01*
X138551852Y-91470891D01*
X138572646Y-91546030D01*
X138589731Y-91622112D01*
X138603058Y-91698922D01*
X138612602Y-91776298D01*
X138618338Y-91854069D01*
X138620501Y-91942147D01*
X138620500Y-127053903D01*
X138615430Y-127260389D01*
X138600976Y-127456338D01*
X138576928Y-127651318D01*
X138543340Y-127844889D01*
X138500294Y-128036579D01*
X138447899Y-128225910D01*
X138386273Y-128412456D01*
X138315562Y-128595765D01*
X138235953Y-128775360D01*
X138147622Y-128950844D01*
X138050784Y-129121788D01*
X137945672Y-129287776D01*
X137832555Y-129448391D01*
X137711685Y-129603271D01*
X137583351Y-129752044D01*
X137440951Y-129901614D01*
X136376999Y-130965568D01*
X136369314Y-130972197D01*
X136348329Y-130994238D01*
X136326822Y-131015745D01*
X136320387Y-131023586D01*
X136191905Y-131158533D01*
X136177209Y-131172525D01*
X136163961Y-131187883D01*
X136149972Y-131202576D01*
X136137485Y-131218576D01*
X136009154Y-131367348D01*
X135995171Y-131382035D01*
X135982696Y-131398020D01*
X135969437Y-131413391D01*
X135957750Y-131429985D01*
X135836877Y-131584869D01*
X135823630Y-131600226D01*
X135811956Y-131616802D01*
X135799467Y-131632805D01*
X135788606Y-131649957D01*
X135675484Y-131810578D01*
X135663006Y-131826568D01*
X135652154Y-131843705D01*
X135640468Y-131860298D01*
X135630466Y-131877953D01*
X135525362Y-132043930D01*
X135513678Y-132060520D01*
X135503677Y-132078175D01*
X135492824Y-132095313D01*
X135483702Y-132113436D01*
X135386862Y-132284383D01*
X135376011Y-132301518D01*
X135366892Y-132319633D01*
X135356889Y-132337292D01*
X135348664Y-132355846D01*
X135260332Y-132531332D01*
X135250335Y-132548979D01*
X135242115Y-132567522D01*
X135232990Y-132585651D01*
X135225686Y-132604586D01*
X135146072Y-132784191D01*
X135136951Y-132802311D01*
X135129651Y-132821234D01*
X135121428Y-132839786D01*
X135115062Y-132859055D01*
X135044355Y-133042357D01*
X135036135Y-133060901D01*
X135029772Y-133080160D01*
X135022469Y-133099094D01*
X135017056Y-133118652D01*
X134955429Y-133305200D01*
X134948128Y-133324127D01*
X134942719Y-133343674D01*
X134936353Y-133362943D01*
X134931906Y-133382747D01*
X134879512Y-133572077D01*
X134873144Y-133591352D01*
X134868696Y-133611159D01*
X134863288Y-133630702D01*
X134859821Y-133650680D01*
X134816775Y-133842378D01*
X134811362Y-133861937D01*
X134807893Y-133881930D01*
X134803449Y-133901720D01*
X134800966Y-133921854D01*
X134767380Y-134115421D01*
X134762933Y-134135222D01*
X134760448Y-134155370D01*
X134756981Y-134175351D01*
X134755489Y-134195575D01*
X134731440Y-134390556D01*
X134727969Y-134410561D01*
X134726476Y-134430807D01*
X134723994Y-134450927D01*
X134723496Y-134471201D01*
X134709043Y-134667146D01*
X134706559Y-134687285D01*
X134706061Y-134707567D01*
X134704569Y-134727797D01*
X134705067Y-134748080D01*
X134700495Y-134934343D01*
X134699500Y-134944448D01*
X134699500Y-134974890D01*
X134698754Y-135005285D01*
X134699500Y-135015398D01*
X134699501Y-138910440D01*
X134595966Y-138605315D01*
X134486714Y-138400921D01*
X134209531Y-138290074D01*
X133164605Y-139335000D01*
X134209531Y-140379926D01*
X134486714Y-140269079D01*
X134640089Y-139958160D01*
X134699501Y-139736542D01*
X134699501Y-140430116D01*
X134466812Y-140585594D01*
X134235594Y-140816812D01*
X134053927Y-141088695D01*
X133928793Y-141390796D01*
X133865000Y-141711504D01*
X133865000Y-142038496D01*
X133928793Y-142359204D01*
X134053927Y-142661305D01*
X134235594Y-142933188D01*
X134466812Y-143164406D01*
X134738695Y-143346073D01*
X135040796Y-143471207D01*
X135361504Y-143535000D01*
X135688496Y-143535000D01*
X136009204Y-143471207D01*
X136311305Y-143346073D01*
X136544182Y-143190469D01*
X137020074Y-143190469D01*
X138065000Y-144235395D01*
X139109926Y-143190469D01*
X138999079Y-142913286D01*
X138688160Y-142759911D01*
X138353295Y-142670140D01*
X138007350Y-142647424D01*
X137663620Y-142692634D01*
X137335315Y-142804034D01*
X137130921Y-142913286D01*
X137020074Y-143190469D01*
X136544182Y-143190469D01*
X136583188Y-143164406D01*
X136814406Y-142933188D01*
X136996073Y-142661305D01*
X137121207Y-142359204D01*
X137185000Y-142038496D01*
X137185000Y-141711504D01*
X137121207Y-141390796D01*
X137079744Y-141290695D01*
X143736520Y-141290695D01*
X143805822Y-142042938D01*
X144020548Y-142767208D01*
X144372445Y-143435670D01*
X144399452Y-143476088D01*
X144889119Y-143836276D01*
X147410395Y-141315000D01*
X147769605Y-141315000D01*
X150290881Y-143836276D01*
X150780548Y-143476088D01*
X151140849Y-142812118D01*
X151364694Y-142090615D01*
X151443480Y-141339305D01*
X151374178Y-140587062D01*
X151159452Y-139862792D01*
X150807555Y-139194330D01*
X150780548Y-139153912D01*
X150290881Y-138793724D01*
X147769605Y-141315000D01*
X147410395Y-141315000D01*
X144889119Y-138793724D01*
X144399452Y-139153912D01*
X144039151Y-139817882D01*
X143815306Y-140539385D01*
X143736520Y-141290695D01*
X137079744Y-141290695D01*
X136996073Y-141088695D01*
X136814406Y-140816812D01*
X136583188Y-140585594D01*
X136544183Y-140559531D01*
X137020074Y-140559531D01*
X137130921Y-140836714D01*
X137441840Y-140990089D01*
X137776705Y-141079860D01*
X138122650Y-141102576D01*
X138466380Y-141057366D01*
X138794685Y-140945966D01*
X138999079Y-140836714D01*
X139109926Y-140559531D01*
X138065000Y-139514605D01*
X137020074Y-140559531D01*
X136544183Y-140559531D01*
X136350500Y-140430116D01*
X136350500Y-139759562D01*
X136454034Y-140064685D01*
X136563286Y-140269079D01*
X136840469Y-140379926D01*
X137885395Y-139335000D01*
X138244605Y-139335000D01*
X139289531Y-140379926D01*
X139566714Y-140269079D01*
X139720089Y-139958160D01*
X139809860Y-139623295D01*
X139832576Y-139277350D01*
X139787366Y-138933620D01*
X139678954Y-138614119D01*
X145068724Y-138614119D01*
X147590000Y-141135395D01*
X150111276Y-138614119D01*
X149751088Y-138124452D01*
X149087118Y-137764151D01*
X148365615Y-137540306D01*
X147614305Y-137461520D01*
X146862062Y-137530822D01*
X146137792Y-137745548D01*
X145469330Y-138097445D01*
X145428912Y-138124452D01*
X145068724Y-138614119D01*
X139678954Y-138614119D01*
X139675966Y-138605315D01*
X139566714Y-138400921D01*
X139289531Y-138290074D01*
X138244605Y-139335000D01*
X137885395Y-139335000D01*
X136840469Y-138290074D01*
X136563286Y-138400921D01*
X136409911Y-138711840D01*
X136350500Y-138933456D01*
X136350500Y-138110469D01*
X137020074Y-138110469D01*
X138065000Y-139155395D01*
X139109926Y-138110469D01*
X138999079Y-137833286D01*
X138688160Y-137679911D01*
X138353295Y-137590140D01*
X138007350Y-137567424D01*
X137663620Y-137612634D01*
X137335315Y-137724034D01*
X137130921Y-137833286D01*
X137020074Y-138110469D01*
X136350500Y-138110469D01*
X136350500Y-134995111D01*
X136355569Y-134788602D01*
X136370021Y-134592669D01*
X136394069Y-134397693D01*
X136427658Y-134204110D01*
X136470705Y-134012418D01*
X136523102Y-133823079D01*
X136584730Y-133636529D01*
X136655434Y-133453236D01*
X136735045Y-133273640D01*
X136823380Y-133098146D01*
X136920214Y-132927211D01*
X137025315Y-132761238D01*
X137138449Y-132600599D01*
X137259314Y-132445724D01*
X137387634Y-132296966D01*
X137530099Y-132147332D01*
X138594019Y-131083414D01*
X138601692Y-131076795D01*
X138622628Y-131054805D01*
X138644178Y-131033255D01*
X138650630Y-131025393D01*
X138779088Y-130890468D01*
X138793786Y-130876474D01*
X138807045Y-130861103D01*
X138821031Y-130846413D01*
X138833509Y-130830425D01*
X138961832Y-130681663D01*
X138975825Y-130666965D01*
X138988310Y-130650967D01*
X139001558Y-130635609D01*
X139013239Y-130619024D01*
X139134110Y-130464143D01*
X139147368Y-130448773D01*
X139159053Y-130432181D01*
X139171529Y-130416195D01*
X139182381Y-130399058D01*
X139295517Y-130238416D01*
X139307991Y-130222432D01*
X139318840Y-130205299D01*
X139330530Y-130188701D01*
X139340534Y-130171042D01*
X139445635Y-130005071D01*
X139457321Y-129988477D01*
X139467323Y-129970821D01*
X139478173Y-129953687D01*
X139487294Y-129935568D01*
X139584136Y-129764616D01*
X139594987Y-129747481D01*
X139604106Y-129729364D01*
X139614110Y-129711705D01*
X139622333Y-129693153D01*
X139710659Y-129517681D01*
X139720664Y-129500019D01*
X139728890Y-129481461D01*
X139738007Y-129463349D01*
X139745305Y-129444429D01*
X139824925Y-129264810D01*
X139834047Y-129246687D01*
X139841349Y-129227757D01*
X139849570Y-129209211D01*
X139855934Y-129189947D01*
X139926643Y-129006642D01*
X139934863Y-128988098D01*
X139941226Y-128968838D01*
X139948529Y-128949905D01*
X139953942Y-128930345D01*
X140015569Y-128743797D01*
X140022870Y-128724871D01*
X140028279Y-128705324D01*
X140034644Y-128686058D01*
X140039091Y-128666257D01*
X140091490Y-128476908D01*
X140097853Y-128457647D01*
X140102298Y-128437852D01*
X140107710Y-128418296D01*
X140111179Y-128398305D01*
X140154226Y-128206612D01*
X140159635Y-128187065D01*
X140163102Y-128167083D01*
X140167549Y-128147281D01*
X140170033Y-128127140D01*
X140203623Y-127933561D01*
X140208066Y-127913774D01*
X140210548Y-127893651D01*
X140214018Y-127873653D01*
X140215511Y-127853411D01*
X140239560Y-127658428D01*
X140243029Y-127638438D01*
X140244521Y-127618207D01*
X140247005Y-127598070D01*
X140247503Y-127577786D01*
X140261956Y-127381845D01*
X140264438Y-127361721D01*
X140264936Y-127341448D01*
X140266429Y-127321204D01*
X140265931Y-127300914D01*
X140270504Y-127114665D01*
X140271500Y-127104553D01*
X140271500Y-127074105D01*
X140272246Y-127043722D01*
X140271500Y-127033608D01*
X140271500Y-108623299D01*
X155522500Y-108623299D01*
X155522500Y-109086701D01*
X155612905Y-109541199D01*
X155790241Y-109969327D01*
X156047694Y-110354631D01*
X156375369Y-110682306D01*
X156760673Y-110939759D01*
X157188801Y-111117095D01*
X157643299Y-111207500D01*
X158106701Y-111207500D01*
X158561199Y-111117095D01*
X158989327Y-110939759D01*
X159374631Y-110682306D01*
X159702306Y-110354631D01*
X159959759Y-109969327D01*
X160137095Y-109541199D01*
X160227500Y-109086701D01*
X160227500Y-108623299D01*
X160137095Y-108168801D01*
X159959759Y-107740673D01*
X159702306Y-107355369D01*
X159374631Y-107027694D01*
X158989327Y-106770241D01*
X158561199Y-106592905D01*
X158106701Y-106502500D01*
X157643299Y-106502500D01*
X157188801Y-106592905D01*
X156760673Y-106770241D01*
X156375369Y-107027694D01*
X156047694Y-107355369D01*
X155790241Y-107740673D01*
X155612905Y-108168801D01*
X155522500Y-108623299D01*
X140271500Y-108623299D01*
X140271500Y-91962390D01*
X140272246Y-91952275D01*
X140271500Y-91921896D01*
X140271500Y-91891447D01*
X140270504Y-91881333D01*
X140268839Y-91813540D01*
X140269337Y-91793256D01*
X140267844Y-91773016D01*
X140267346Y-91752734D01*
X140264863Y-91732604D01*
X140259127Y-91654833D01*
X140258629Y-91634563D01*
X140256147Y-91614443D01*
X140254654Y-91594196D01*
X140251183Y-91574191D01*
X140241641Y-91496827D01*
X140240148Y-91476588D01*
X140236679Y-91456593D01*
X140234196Y-91436464D01*
X140229753Y-91416676D01*
X140216422Y-91339851D01*
X140213939Y-91319714D01*
X140209493Y-91299916D01*
X140206025Y-91279927D01*
X140200614Y-91260374D01*
X140183531Y-91184296D01*
X140180061Y-91164301D01*
X140174651Y-91144752D01*
X140170207Y-91124962D01*
X140163842Y-91105694D01*
X140143046Y-91030550D01*
X140138600Y-91010752D01*
X140132234Y-90991481D01*
X140126823Y-90971930D01*
X140119523Y-90953005D01*
X140095063Y-90878966D01*
X140089653Y-90859416D01*
X140082352Y-90840488D01*
X140075988Y-90821225D01*
X140067767Y-90802678D01*
X140039704Y-90729926D01*
X140033342Y-90710670D01*
X140025124Y-90692131D01*
X140017818Y-90673190D01*
X140008692Y-90655060D01*
X139977103Y-90583796D01*
X139969798Y-90564858D01*
X139960674Y-90546732D01*
X139952456Y-90528192D01*
X139942458Y-90510542D01*
X139907395Y-90440885D01*
X139899178Y-90422348D01*
X139889182Y-90404703D01*
X139880055Y-90386570D01*
X139869199Y-90369426D01*
X139830772Y-90301592D01*
X139821647Y-90283464D01*
X139810795Y-90266327D01*
X139800796Y-90248676D01*
X139789110Y-90232083D01*
X139747401Y-90166218D01*
X139737397Y-90148559D01*
X139725710Y-90131964D01*
X139714860Y-90114831D01*
X139702384Y-90098844D01*
X139657481Y-90035087D01*
X139646631Y-90017953D01*
X139634151Y-90001961D01*
X139622464Y-89985367D01*
X139609210Y-89970002D01*
X139561242Y-89908537D01*
X139549562Y-89891952D01*
X139536314Y-89876594D01*
X139523830Y-89860597D01*
X139509837Y-89845899D01*
X139458906Y-89786856D01*
X139446426Y-89770865D01*
X139432443Y-89756178D01*
X139419188Y-89740812D01*
X139404488Y-89726816D01*
X139357727Y-89677702D01*
X139351284Y-89669851D01*
X139329756Y-89648323D01*
X139308794Y-89626306D01*
X139301115Y-89619682D01*
X138297990Y-88616558D01*
X138237232Y-88552742D01*
X138186318Y-88493719D01*
X138138347Y-88432249D01*
X138093447Y-88368496D01*
X138051738Y-88302631D01*
X138013312Y-88234799D01*
X137978252Y-88165145D01*
X137946663Y-88093881D01*
X137918602Y-88021136D01*
X137894147Y-87947109D01*
X137873351Y-87871963D01*
X137856270Y-87795900D01*
X137842938Y-87719063D01*
X137833397Y-87641707D01*
X137827661Y-87563941D01*
X137825500Y-87475898D01*
X137825500Y-84900413D01*
X139309192Y-84900413D01*
X139404956Y-85164814D01*
X139694571Y-85305704D01*
X140006108Y-85387384D01*
X140327595Y-85406718D01*
X140646675Y-85362961D01*
X140951088Y-85257795D01*
X141125044Y-85164814D01*
X141220808Y-84900413D01*
X140265000Y-83944605D01*
X139309192Y-84900413D01*
X137825500Y-84900413D01*
X137825500Y-83827595D01*
X138623282Y-83827595D01*
X138667039Y-84146675D01*
X138772205Y-84451088D01*
X138865186Y-84625044D01*
X139129587Y-84720808D01*
X140085395Y-83765000D01*
X140444605Y-83765000D01*
X141400413Y-84720808D01*
X141664814Y-84625044D01*
X141805704Y-84335429D01*
X141887384Y-84023892D01*
X141906718Y-83702405D01*
X141862961Y-83383325D01*
X141757795Y-83078912D01*
X141664814Y-82904956D01*
X141400413Y-82809192D01*
X140444605Y-83765000D01*
X140085395Y-83765000D01*
X139129587Y-82809192D01*
X138865186Y-82904956D01*
X138724296Y-83194571D01*
X138642616Y-83506108D01*
X138623282Y-83827595D01*
X137825500Y-83827595D01*
X137825500Y-82629587D01*
X139309192Y-82629587D01*
X140265000Y-83585395D01*
X141220808Y-82629587D01*
X141125044Y-82365186D01*
X140835429Y-82224296D01*
X140523892Y-82142616D01*
X140202405Y-82123282D01*
X139883325Y-82167039D01*
X139578912Y-82272205D01*
X139404956Y-82365186D01*
X139309192Y-82629587D01*
X137825500Y-82629587D01*
X137825500Y-77465117D01*
X137839293Y-76903210D01*
X137879897Y-76352759D01*
X137947463Y-75804954D01*
X138041823Y-75261146D01*
X138162756Y-74722610D01*
X138309972Y-74190641D01*
X138483105Y-73666562D01*
X138509115Y-73599133D01*
X142195472Y-73599133D01*
X142257965Y-73835450D01*
X142500678Y-73948850D01*
X142760849Y-74012719D01*
X143028482Y-74024604D01*
X143293291Y-73984048D01*
X143545100Y-73892609D01*
X143652035Y-73835450D01*
X143714528Y-73599133D01*
X142955000Y-72839605D01*
X142195472Y-73599133D01*
X138509115Y-73599133D01*
X138681744Y-73151608D01*
X138867086Y-72733482D01*
X141590396Y-72733482D01*
X141630952Y-72998291D01*
X141722391Y-73250100D01*
X141779550Y-73357035D01*
X142015867Y-73419528D01*
X142775395Y-72660000D01*
X142015867Y-71900472D01*
X141779550Y-71962965D01*
X141666150Y-72205678D01*
X141602281Y-72465849D01*
X141590396Y-72733482D01*
X138867086Y-72733482D01*
X138905424Y-72646994D01*
X139153580Y-72153992D01*
X139425640Y-71673739D01*
X139720933Y-71207423D01*
X140038748Y-70756161D01*
X140378316Y-70321045D01*
X140738833Y-69903105D01*
X141126412Y-69496019D01*
X141644318Y-68978113D01*
X141595000Y-69226052D01*
X141595000Y-69493948D01*
X141647264Y-69756697D01*
X141749784Y-70004201D01*
X141898619Y-70226949D01*
X142088051Y-70416381D01*
X142129501Y-70444077D01*
X142129501Y-70524440D01*
X142125506Y-70565000D01*
X142141445Y-70726826D01*
X142188647Y-70882433D01*
X142265301Y-71025842D01*
X142315927Y-71087529D01*
X142368460Y-71151541D01*
X142399961Y-71177393D01*
X142574021Y-71351453D01*
X142364900Y-71427391D01*
X142257965Y-71484550D01*
X142195472Y-71720867D01*
X142955000Y-72480395D01*
X142969143Y-72466253D01*
X143148748Y-72645858D01*
X143134605Y-72660000D01*
X143729262Y-73254657D01*
X143749784Y-73304201D01*
X143898619Y-73526949D01*
X144088051Y-73716381D01*
X144310799Y-73865216D01*
X144558303Y-73967736D01*
X144821052Y-74020000D01*
X145088948Y-74020000D01*
X145351697Y-73967736D01*
X145599201Y-73865216D01*
X145821949Y-73716381D01*
X146011381Y-73526949D01*
X146039076Y-73485500D01*
X147870924Y-73485500D01*
X147898619Y-73526949D01*
X148088051Y-73716381D01*
X148310799Y-73865216D01*
X148558303Y-73967736D01*
X148821052Y-74020000D01*
X149088948Y-74020000D01*
X149351697Y-73967736D01*
X149599201Y-73865216D01*
X149821949Y-73716381D01*
X149955000Y-73583330D01*
X150088051Y-73716381D01*
X150310799Y-73865216D01*
X150558303Y-73967736D01*
X150821052Y-74020000D01*
X151088948Y-74020000D01*
X151351697Y-73967736D01*
X151485062Y-73912494D01*
X152139501Y-74566934D01*
X152139500Y-82350184D01*
X151922748Y-82495013D01*
X151695013Y-82722748D01*
X151516082Y-82990537D01*
X151392832Y-83288088D01*
X151330000Y-83603967D01*
X151330000Y-83926033D01*
X151392832Y-84241912D01*
X151516082Y-84539463D01*
X151695013Y-84807252D01*
X151922748Y-85034987D01*
X152190537Y-85213918D01*
X152488088Y-85337168D01*
X152803967Y-85400000D01*
X153126033Y-85400000D01*
X153441912Y-85337168D01*
X153739463Y-85213918D01*
X154007252Y-85034987D01*
X154234987Y-84807252D01*
X154413918Y-84539463D01*
X154537168Y-84241912D01*
X154600000Y-83926033D01*
X154600000Y-83603967D01*
X154537168Y-83288088D01*
X154413918Y-82990537D01*
X154234987Y-82722748D01*
X154007252Y-82495013D01*
X153790500Y-82350184D01*
X153790500Y-74265550D01*
X153794494Y-74224999D01*
X153786783Y-74146710D01*
X153778556Y-74063174D01*
X153731353Y-73907566D01*
X153681399Y-73814111D01*
X153654699Y-73764157D01*
X153595234Y-73691699D01*
X153551541Y-73638459D01*
X153520039Y-73612606D01*
X152285580Y-72378148D01*
X152262736Y-72263303D01*
X152160216Y-72015799D01*
X152011381Y-71793051D01*
X151821949Y-71603619D01*
X151780500Y-71575924D01*
X151780500Y-71240552D01*
X151784494Y-71200000D01*
X151780500Y-71159447D01*
X151780500Y-70444076D01*
X151821949Y-70416381D01*
X152011381Y-70226949D01*
X152160216Y-70004201D01*
X152262736Y-69756697D01*
X152315000Y-69493948D01*
X152315000Y-69226052D01*
X152262736Y-68963303D01*
X152160216Y-68715799D01*
X152011381Y-68493051D01*
X151821949Y-68303619D01*
X151599201Y-68154784D01*
X151351697Y-68052264D01*
X151088948Y-68000000D01*
X150821052Y-68000000D01*
X150558303Y-68052264D01*
X150310799Y-68154784D01*
X150088051Y-68303619D01*
X149955000Y-68436670D01*
X149821949Y-68303619D01*
X149780500Y-68275924D01*
X149780500Y-67881313D01*
X149795820Y-67889502D01*
X149915518Y-67925812D01*
X150040000Y-67938072D01*
X150479250Y-67935000D01*
X150638000Y-67776250D01*
X150638000Y-66839500D01*
X150892000Y-66839500D01*
X150892000Y-67776250D01*
X151050750Y-67935000D01*
X151490000Y-67938072D01*
X151614482Y-67925812D01*
X151734180Y-67889502D01*
X151844494Y-67830537D01*
X151941185Y-67751185D01*
X152020537Y-67654494D01*
X152079502Y-67544180D01*
X152115812Y-67424482D01*
X152128072Y-67300000D01*
X152125000Y-66998250D01*
X151966250Y-66839500D01*
X150892000Y-66839500D01*
X150638000Y-66839500D01*
X150618000Y-66839500D01*
X150618000Y-66585500D01*
X150638000Y-66585500D01*
X150638000Y-66565500D01*
X150892000Y-66565500D01*
X150892000Y-66585500D01*
X151966250Y-66585500D01*
X152125000Y-66426750D01*
X152128072Y-66125000D01*
X152115812Y-66000518D01*
X152079502Y-65880820D01*
X152020537Y-65770506D01*
X151941185Y-65673815D01*
X151861406Y-65608342D01*
X151867962Y-65602962D01*
X151978405Y-65468386D01*
X151992185Y-65442605D01*
X152000773Y-65440000D01*
X152136939Y-65440000D01*
X152336898Y-65400226D01*
X152525256Y-65322205D01*
X152527505Y-65320702D01*
X152538647Y-65357433D01*
X152615301Y-65500842D01*
X152633128Y-65522564D01*
X152718459Y-65626541D01*
X152749965Y-65652397D01*
X153327610Y-66230044D01*
X153353459Y-66261541D01*
X153384955Y-66287389D01*
X153384958Y-66287392D01*
X153479157Y-66364699D01*
X153554856Y-66405161D01*
X153622566Y-66441353D01*
X153778174Y-66488556D01*
X153899447Y-66500500D01*
X153899449Y-66500500D01*
X153940000Y-66504494D01*
X153964431Y-66502088D01*
X154026595Y-66618387D01*
X154137038Y-66752962D01*
X154271613Y-66863405D01*
X154425149Y-66945472D01*
X154591745Y-66996008D01*
X154764999Y-67013072D01*
X155298991Y-67013072D01*
X155298991Y-68453930D01*
X155294996Y-68494490D01*
X155310935Y-68656316D01*
X155358137Y-68811923D01*
X155434791Y-68955332D01*
X155479302Y-69009568D01*
X155537950Y-69081031D01*
X155569451Y-69106883D01*
X157870350Y-71407783D01*
X157842439Y-71475166D01*
X157770000Y-71839344D01*
X157770000Y-72210656D01*
X157842439Y-72574834D01*
X157984534Y-72917882D01*
X158190825Y-73226618D01*
X158453382Y-73489175D01*
X158762118Y-73695466D01*
X159105166Y-73837561D01*
X159469344Y-73910000D01*
X159840656Y-73910000D01*
X160204834Y-73837561D01*
X160547882Y-73695466D01*
X160856618Y-73489175D01*
X161119175Y-73226618D01*
X161325466Y-72917882D01*
X161467561Y-72574834D01*
X161540000Y-72210656D01*
X161540000Y-71839344D01*
X161467561Y-71475166D01*
X161325466Y-71132118D01*
X161119175Y-70823382D01*
X160856618Y-70560825D01*
X160547882Y-70354534D01*
X160204834Y-70212439D01*
X159840656Y-70140000D01*
X159469344Y-70140000D01*
X159105166Y-70212439D01*
X159037783Y-70240350D01*
X156949990Y-68152558D01*
X156949990Y-67013072D01*
X157465001Y-67013072D01*
X157638255Y-66996008D01*
X157804851Y-66945472D01*
X157958387Y-66863405D01*
X158092962Y-66752962D01*
X158203405Y-66618387D01*
X158285472Y-66464851D01*
X158305144Y-66400000D01*
X158894428Y-66400000D01*
X158906688Y-66524482D01*
X158942998Y-66644180D01*
X159001963Y-66754494D01*
X159081315Y-66851185D01*
X159178006Y-66930537D01*
X159288320Y-66989502D01*
X159408018Y-67025812D01*
X159532500Y-67038072D01*
X159834250Y-67035000D01*
X159993000Y-66876250D01*
X159993000Y-65802000D01*
X159056250Y-65802000D01*
X158897500Y-65960750D01*
X158894428Y-66400000D01*
X158305144Y-66400000D01*
X158336008Y-66298255D01*
X158353072Y-66125001D01*
X158353072Y-65224999D01*
X158336008Y-65051745D01*
X158285472Y-64885149D01*
X158203405Y-64731613D01*
X158092962Y-64597038D01*
X158091552Y-64595881D01*
X158091933Y-64595500D01*
X159001968Y-64595500D01*
X159001963Y-64595506D01*
X158942998Y-64705820D01*
X158906688Y-64825518D01*
X158894428Y-64950000D01*
X158897500Y-65389250D01*
X159056250Y-65548000D01*
X159993000Y-65548000D01*
X159993000Y-65528000D01*
X160247000Y-65528000D01*
X160247000Y-65548000D01*
X160267000Y-65548000D01*
X160267000Y-65802000D01*
X160247000Y-65802000D01*
X160247000Y-66876250D01*
X160405750Y-67035000D01*
X160707500Y-67038072D01*
X160831982Y-67025812D01*
X160951680Y-66989502D01*
X161061994Y-66930537D01*
X161158685Y-66851185D01*
X161224158Y-66771406D01*
X161229538Y-66777962D01*
X161364114Y-66888405D01*
X161517650Y-66970472D01*
X161684246Y-67021008D01*
X161857500Y-67038072D01*
X162532500Y-67038072D01*
X162705754Y-67021008D01*
X162872350Y-66970472D01*
X163025886Y-66888405D01*
X163160462Y-66777962D01*
X163270905Y-66643386D01*
X163352972Y-66489850D01*
X163403508Y-66323254D01*
X163420572Y-66150000D01*
X163420572Y-65200000D01*
X163403508Y-65026746D01*
X163352972Y-64860150D01*
X163270905Y-64706614D01*
X163160462Y-64572038D01*
X163025886Y-64461595D01*
X163020500Y-64458716D01*
X163020500Y-63810553D01*
X163024494Y-63770000D01*
X163020500Y-63729447D01*
X163020500Y-62476417D01*
X163138387Y-62413405D01*
X163272962Y-62302962D01*
X163383405Y-62168387D01*
X163465472Y-62014851D01*
X163516008Y-61848255D01*
X163533072Y-61675001D01*
X163533072Y-60974999D01*
X163516008Y-60801745D01*
X163465472Y-60635149D01*
X163383405Y-60481613D01*
X163272962Y-60347038D01*
X163246109Y-60325000D01*
X163272962Y-60302962D01*
X163383405Y-60168387D01*
X163465472Y-60014851D01*
X163516008Y-59848255D01*
X163533072Y-59675001D01*
X163533072Y-58974999D01*
X163516008Y-58801745D01*
X163465472Y-58635149D01*
X163383405Y-58481613D01*
X163272962Y-58347038D01*
X163138387Y-58236595D01*
X162984851Y-58154528D01*
X162818255Y-58103992D01*
X162645001Y-58086928D01*
X161744999Y-58086928D01*
X161571745Y-58103992D01*
X161405149Y-58154528D01*
X161251613Y-58236595D01*
X161117038Y-58347038D01*
X161006595Y-58481613D01*
X160997034Y-58499500D01*
X159498298Y-58499500D01*
X159436185Y-58423815D01*
X159339494Y-58344463D01*
X159229180Y-58285498D01*
X159210500Y-58279831D01*
X159210500Y-56731284D01*
X159215886Y-56728405D01*
X159350462Y-56617962D01*
X159422500Y-56530183D01*
X159494538Y-56617962D01*
X159629114Y-56728405D01*
X159782650Y-56810472D01*
X159949246Y-56861008D01*
X160122500Y-56878072D01*
X160797500Y-56878072D01*
X160970754Y-56861008D01*
X161137350Y-56810472D01*
X161290886Y-56728405D01*
X161425462Y-56617962D01*
X161535905Y-56483386D01*
X161617972Y-56329850D01*
X161668508Y-56163254D01*
X161685572Y-55990000D01*
X161685572Y-55040000D01*
X161668508Y-54866746D01*
X161617972Y-54700150D01*
X161535905Y-54546614D01*
X161425462Y-54412038D01*
X161290886Y-54301595D01*
X161285500Y-54298716D01*
X161285500Y-51730000D01*
X161302715Y-51730000D01*
X162043628Y-51582623D01*
X162741554Y-51293533D01*
X163369670Y-50873839D01*
X163903839Y-50339670D01*
X164323533Y-49711554D01*
X164360000Y-49623515D01*
X164360001Y-137282572D01*
X164360000Y-137282582D01*
X164360001Y-146090992D01*
X164358956Y-146093200D01*
X164327332Y-146219303D01*
X164320918Y-146349153D01*
X164323105Y-146363926D01*
X164316907Y-147768512D01*
X164159843Y-149179261D01*
X163853751Y-150565348D01*
X163402106Y-151911050D01*
X162810020Y-153201134D01*
X162084187Y-154421012D01*
X161232841Y-155556844D01*
X160265622Y-156595775D01*
X159193472Y-157526046D01*
X158028541Y-158337117D01*
X156784017Y-159019808D01*
X155473994Y-159566384D01*
X154113310Y-159970657D01*
X152934566Y-160188000D01*
X142113565Y-160188000D01*
X141181127Y-160037814D01*
X139811635Y-159664447D01*
X138489573Y-159147667D01*
X138235875Y-159015881D01*
X145068724Y-159015881D01*
X145428912Y-159505548D01*
X146092882Y-159865849D01*
X146814385Y-160089694D01*
X147565695Y-160168480D01*
X148317938Y-160099178D01*
X149042208Y-159884452D01*
X149710670Y-159532555D01*
X149751088Y-159505548D01*
X150111276Y-159015881D01*
X147590000Y-156494605D01*
X145068724Y-159015881D01*
X138235875Y-159015881D01*
X137229918Y-158493328D01*
X136046918Y-157708833D01*
X134953985Y-156803072D01*
X134454850Y-156290695D01*
X143736520Y-156290695D01*
X143805822Y-157042938D01*
X144020548Y-157767208D01*
X144372445Y-158435670D01*
X144399452Y-158476088D01*
X144889119Y-158836276D01*
X147410395Y-156315000D01*
X147769605Y-156315000D01*
X150290881Y-158836276D01*
X150780548Y-158476088D01*
X151140849Y-157812118D01*
X151364694Y-157090615D01*
X151443480Y-156339305D01*
X151374178Y-155587062D01*
X151159452Y-154862792D01*
X150807555Y-154194330D01*
X150780548Y-154153912D01*
X150290881Y-153793724D01*
X147769605Y-156315000D01*
X147410395Y-156315000D01*
X144889119Y-153793724D01*
X144399452Y-154153912D01*
X144039151Y-154817882D01*
X143815306Y-155539385D01*
X143736520Y-156290695D01*
X134454850Y-156290695D01*
X133963487Y-155786298D01*
X133086653Y-154670038D01*
X132425559Y-153614119D01*
X145068724Y-153614119D01*
X147590000Y-156135395D01*
X150111276Y-153614119D01*
X149751088Y-153124452D01*
X149087118Y-152764151D01*
X148365615Y-152540306D01*
X147614305Y-152461520D01*
X146862062Y-152530822D01*
X146137792Y-152745548D01*
X145469330Y-153097445D01*
X145428912Y-153124452D01*
X145068724Y-153614119D01*
X132425559Y-153614119D01*
X132333391Y-153466906D01*
X131712250Y-152190553D01*
X131230254Y-150855413D01*
X130892865Y-149476618D01*
X130703326Y-148065482D01*
X130660386Y-146996378D01*
X130679054Y-146357021D01*
X130680000Y-146347419D01*
X130680000Y-146324632D01*
X130680665Y-146301857D01*
X130680000Y-146292234D01*
X130680000Y-145639531D01*
X131940074Y-145639531D01*
X132050921Y-145916714D01*
X132361840Y-146070089D01*
X132696705Y-146159860D01*
X133042650Y-146182576D01*
X133386380Y-146137366D01*
X133714685Y-146025966D01*
X133919079Y-145916714D01*
X134029926Y-145639531D01*
X137020074Y-145639531D01*
X137130921Y-145916714D01*
X137441840Y-146070089D01*
X137776705Y-146159860D01*
X138122650Y-146182576D01*
X138466380Y-146137366D01*
X138794685Y-146025966D01*
X138999079Y-145916714D01*
X139109926Y-145639531D01*
X138065000Y-144594605D01*
X137020074Y-145639531D01*
X134029926Y-145639531D01*
X132985000Y-144594605D01*
X131940074Y-145639531D01*
X130680000Y-145639531D01*
X130680000Y-144472650D01*
X131217424Y-144472650D01*
X131262634Y-144816380D01*
X131374034Y-145144685D01*
X131483286Y-145349079D01*
X131760469Y-145459926D01*
X132805395Y-144415000D01*
X133164605Y-144415000D01*
X134209531Y-145459926D01*
X134486714Y-145349079D01*
X134640089Y-145038160D01*
X134729860Y-144703295D01*
X134745004Y-144472650D01*
X136297424Y-144472650D01*
X136342634Y-144816380D01*
X136454034Y-145144685D01*
X136563286Y-145349079D01*
X136840469Y-145459926D01*
X137885395Y-144415000D01*
X138244605Y-144415000D01*
X139289531Y-145459926D01*
X139566714Y-145349079D01*
X139720089Y-145038160D01*
X139809860Y-144703295D01*
X139832576Y-144357350D01*
X139787664Y-144015881D01*
X145068724Y-144015881D01*
X145428912Y-144505548D01*
X146092882Y-144865849D01*
X146814385Y-145089694D01*
X147565695Y-145168480D01*
X148317938Y-145099178D01*
X149042208Y-144884452D01*
X149710670Y-144532555D01*
X149751088Y-144505548D01*
X150111276Y-144015881D01*
X147590000Y-141494605D01*
X145068724Y-144015881D01*
X139787664Y-144015881D01*
X139787366Y-144013620D01*
X139675966Y-143685315D01*
X139566714Y-143480921D01*
X139289531Y-143370074D01*
X138244605Y-144415000D01*
X137885395Y-144415000D01*
X136840469Y-143370074D01*
X136563286Y-143480921D01*
X136409911Y-143791840D01*
X136320140Y-144126705D01*
X136297424Y-144472650D01*
X134745004Y-144472650D01*
X134752576Y-144357350D01*
X134707366Y-144013620D01*
X134595966Y-143685315D01*
X134486714Y-143480921D01*
X134209531Y-143370074D01*
X133164605Y-144415000D01*
X132805395Y-144415000D01*
X131760469Y-143370074D01*
X131483286Y-143480921D01*
X131329911Y-143791840D01*
X131240140Y-144126705D01*
X131217424Y-144472650D01*
X130680000Y-144472650D01*
X130680000Y-143190469D01*
X131940074Y-143190469D01*
X132985000Y-144235395D01*
X134029926Y-143190469D01*
X133919079Y-142913286D01*
X133608160Y-142759911D01*
X133273295Y-142670140D01*
X132927350Y-142647424D01*
X132583620Y-142692634D01*
X132255315Y-142804034D01*
X132050921Y-142913286D01*
X131940074Y-143190469D01*
X130680000Y-143190469D01*
X130680000Y-140559531D01*
X131940074Y-140559531D01*
X132050921Y-140836714D01*
X132361840Y-140990089D01*
X132696705Y-141079860D01*
X133042650Y-141102576D01*
X133386380Y-141057366D01*
X133714685Y-140945966D01*
X133919079Y-140836714D01*
X134029926Y-140559531D01*
X132985000Y-139514605D01*
X131940074Y-140559531D01*
X130680000Y-140559531D01*
X130680000Y-139392650D01*
X131217424Y-139392650D01*
X131262634Y-139736380D01*
X131374034Y-140064685D01*
X131483286Y-140269079D01*
X131760469Y-140379926D01*
X132805395Y-139335000D01*
X131760469Y-138290074D01*
X131483286Y-138400921D01*
X131329911Y-138711840D01*
X131240140Y-139046705D01*
X131217424Y-139392650D01*
X130680000Y-139392650D01*
X130680000Y-138110469D01*
X131940074Y-138110469D01*
X132985000Y-139155395D01*
X134029926Y-138110469D01*
X133919079Y-137833286D01*
X133608160Y-137679911D01*
X133273295Y-137590140D01*
X132927350Y-137567424D01*
X132583620Y-137612634D01*
X132255315Y-137724034D01*
X132050921Y-137833286D01*
X131940074Y-138110469D01*
X130680000Y-138110469D01*
X130680000Y-122103299D01*
X133172500Y-122103299D01*
X133172500Y-122566701D01*
X133262905Y-123021199D01*
X133440241Y-123449327D01*
X133697694Y-123834631D01*
X134025369Y-124162306D01*
X134410673Y-124419759D01*
X134838801Y-124597095D01*
X135293299Y-124687500D01*
X135756701Y-124687500D01*
X136211199Y-124597095D01*
X136639327Y-124419759D01*
X137024631Y-124162306D01*
X137352306Y-123834631D01*
X137609759Y-123449327D01*
X137787095Y-123021199D01*
X137877500Y-122566701D01*
X137877500Y-122103299D01*
X137787095Y-121648801D01*
X137609759Y-121220673D01*
X137352306Y-120835369D01*
X137024631Y-120507694D01*
X136639327Y-120250241D01*
X136211199Y-120072905D01*
X135756701Y-119982500D01*
X135293299Y-119982500D01*
X134838801Y-120072905D01*
X134410673Y-120250241D01*
X134025369Y-120507694D01*
X133697694Y-120835369D01*
X133440241Y-121220673D01*
X133262905Y-121648801D01*
X133172500Y-122103299D01*
X130680000Y-122103299D01*
X130680000Y-95133299D01*
X133172500Y-95133299D01*
X133172500Y-95596701D01*
X133262905Y-96051199D01*
X133440241Y-96479327D01*
X133697694Y-96864631D01*
X134025369Y-97192306D01*
X134410673Y-97449759D01*
X134838801Y-97627095D01*
X135293299Y-97717500D01*
X135756701Y-97717500D01*
X136211199Y-97627095D01*
X136639327Y-97449759D01*
X137024631Y-97192306D01*
X137352306Y-96864631D01*
X137609759Y-96479327D01*
X137787095Y-96051199D01*
X137877500Y-95596701D01*
X137877500Y-95133299D01*
X137787095Y-94678801D01*
X137609759Y-94250673D01*
X137352306Y-93865369D01*
X137024631Y-93537694D01*
X136639327Y-93280241D01*
X136211199Y-93102905D01*
X135756701Y-93012500D01*
X135293299Y-93012500D01*
X134838801Y-93102905D01*
X134410673Y-93280241D01*
X134025369Y-93537694D01*
X133697694Y-93865369D01*
X133440241Y-94250673D01*
X133262905Y-94678801D01*
X133172500Y-95133299D01*
X130680000Y-95133299D01*
X130680000Y-49285524D01*
X130856467Y-49711554D01*
%TA.AperFunction,Conductor*%
D23*
G36*
X130856467Y-49711554D02*
G01*
X131276161Y-50339670D01*
X131810330Y-50873839D01*
X132438446Y-51293533D01*
X133136372Y-51582623D01*
X133877285Y-51730000D01*
X133894501Y-51730000D01*
X133894500Y-54298716D01*
X133889114Y-54301595D01*
X133754538Y-54412038D01*
X133644095Y-54546614D01*
X133562028Y-54700150D01*
X133511492Y-54866746D01*
X133509136Y-54890671D01*
X133505998Y-54901015D01*
X133491324Y-55050000D01*
X133494428Y-55081515D01*
X133494428Y-55990000D01*
X133511492Y-56163254D01*
X133562028Y-56329850D01*
X133644095Y-56483386D01*
X133754538Y-56617962D01*
X133889114Y-56728405D01*
X134042650Y-56810472D01*
X134209246Y-56861008D01*
X134382500Y-56878072D01*
X135057500Y-56878072D01*
X135230754Y-56861008D01*
X135397350Y-56810472D01*
X135550886Y-56728405D01*
X135685462Y-56617962D01*
X135757500Y-56530183D01*
X135829538Y-56617962D01*
X135964114Y-56728405D01*
X135969500Y-56731284D01*
X135969501Y-58279831D01*
X135950820Y-58285498D01*
X135840506Y-58344463D01*
X135743815Y-58423815D01*
X135681702Y-58499500D01*
X134182966Y-58499500D01*
X134173405Y-58481613D01*
X134062962Y-58347038D01*
X133928387Y-58236595D01*
X133774851Y-58154528D01*
X133608255Y-58103992D01*
X133435001Y-58086928D01*
X132534999Y-58086928D01*
X132361745Y-58103992D01*
X132195149Y-58154528D01*
X132041613Y-58236595D01*
X131907038Y-58347038D01*
X131796595Y-58481613D01*
X131714528Y-58635149D01*
X131663992Y-58801745D01*
X131646928Y-58974999D01*
X131646928Y-59675001D01*
X131663992Y-59848255D01*
X131714528Y-60014851D01*
X131796595Y-60168387D01*
X131907038Y-60302962D01*
X131933891Y-60325000D01*
X131907038Y-60347038D01*
X131796595Y-60481613D01*
X131714528Y-60635149D01*
X131663992Y-60801745D01*
X131646928Y-60974999D01*
X131646928Y-61675001D01*
X131663992Y-61848255D01*
X131714528Y-62014851D01*
X131796595Y-62168387D01*
X131907038Y-62302962D01*
X132041613Y-62413405D01*
X132159500Y-62476417D01*
X132159501Y-63729437D01*
X132155506Y-63770000D01*
X132159500Y-63810553D01*
X132159500Y-64458716D01*
X132154114Y-64461595D01*
X132019538Y-64572038D01*
X131909095Y-64706614D01*
X131827028Y-64860150D01*
X131776492Y-65026746D01*
X131759428Y-65200000D01*
X131759428Y-66150000D01*
X131776492Y-66323254D01*
X131827028Y-66489850D01*
X131909095Y-66643386D01*
X132019538Y-66777962D01*
X132154114Y-66888405D01*
X132307650Y-66970472D01*
X132474246Y-67021008D01*
X132647500Y-67038072D01*
X133322500Y-67038072D01*
X133495754Y-67021008D01*
X133662350Y-66970472D01*
X133815886Y-66888405D01*
X133950462Y-66777962D01*
X133955842Y-66771406D01*
X134021315Y-66851185D01*
X134118006Y-66930537D01*
X134228320Y-66989502D01*
X134348018Y-67025812D01*
X134472500Y-67038072D01*
X134774250Y-67035000D01*
X134933000Y-66876250D01*
X134933000Y-65802000D01*
X135187000Y-65802000D01*
X135187000Y-66876250D01*
X135345750Y-67035000D01*
X135647500Y-67038072D01*
X135771982Y-67025812D01*
X135891680Y-66989502D01*
X136001994Y-66930537D01*
X136098685Y-66851185D01*
X136178037Y-66754494D01*
X136237002Y-66644180D01*
X136273312Y-66524482D01*
X136285572Y-66400000D01*
X136282500Y-65960750D01*
X136123750Y-65802000D01*
X135187000Y-65802000D01*
X134933000Y-65802000D01*
X134913000Y-65802000D01*
X134913000Y-65548000D01*
X134933000Y-65548000D01*
X134933000Y-65528000D01*
X135187000Y-65528000D01*
X135187000Y-65548000D01*
X136123750Y-65548000D01*
X136282500Y-65389250D01*
X136285572Y-64950000D01*
X136273312Y-64825518D01*
X136237002Y-64705820D01*
X136178037Y-64595506D01*
X136178032Y-64595500D01*
X137088067Y-64595500D01*
X137088448Y-64595881D01*
X137087038Y-64597038D01*
X136976595Y-64731613D01*
X136894528Y-64885149D01*
X136843992Y-65051745D01*
X136826928Y-65224999D01*
X136826928Y-66125001D01*
X136843992Y-66298255D01*
X136894528Y-66464851D01*
X136976595Y-66618387D01*
X137087038Y-66752962D01*
X137221613Y-66863405D01*
X137375149Y-66945472D01*
X137541745Y-66996008D01*
X137714999Y-67013072D01*
X138415001Y-67013072D01*
X138588255Y-66996008D01*
X138754851Y-66945472D01*
X138908387Y-66863405D01*
X139042962Y-66752962D01*
X139065000Y-66726109D01*
X139087038Y-66752962D01*
X139221613Y-66863405D01*
X139375149Y-66945472D01*
X139541745Y-66996008D01*
X139714999Y-67013072D01*
X140415001Y-67013072D01*
X140588255Y-66996008D01*
X140754851Y-66945472D01*
X140908387Y-66863405D01*
X141042962Y-66752962D01*
X141153405Y-66618387D01*
X141235472Y-66464851D01*
X141286008Y-66298255D01*
X141303072Y-66125001D01*
X141303072Y-65224999D01*
X141286008Y-65051745D01*
X141235472Y-64885149D01*
X141153405Y-64731613D01*
X141042962Y-64597038D01*
X140908387Y-64486595D01*
X140890500Y-64477034D01*
X140890500Y-64252301D01*
X140965226Y-64071898D01*
X141005000Y-63871939D01*
X141005000Y-63668061D01*
X140965226Y-63468102D01*
X140957935Y-63450500D01*
X142029759Y-63450500D01*
X142042038Y-63465462D01*
X142129817Y-63537500D01*
X142042038Y-63609538D01*
X141931595Y-63744114D01*
X141849528Y-63897650D01*
X141798992Y-64064246D01*
X141781928Y-64237500D01*
X141781928Y-64912500D01*
X141798992Y-65085754D01*
X141849528Y-65252350D01*
X141931595Y-65405886D01*
X142042038Y-65540462D01*
X142176614Y-65650905D01*
X142270264Y-65700962D01*
X142250854Y-65771101D01*
X142226395Y-65845138D01*
X142198338Y-65917873D01*
X142166742Y-65989155D01*
X142131690Y-66058790D01*
X142093254Y-66126639D01*
X142051541Y-66192512D01*
X142006652Y-66256248D01*
X141958691Y-66317705D01*
X141907764Y-66376743D01*
X141847014Y-66440552D01*
X139973317Y-68314250D01*
X139965631Y-68320880D01*
X139944650Y-68342917D01*
X139923142Y-68364425D01*
X139916705Y-68372269D01*
X139543105Y-68764673D01*
X139528408Y-68778665D01*
X139515154Y-68794030D01*
X139501167Y-68808721D01*
X139488686Y-68824713D01*
X139128158Y-69242665D01*
X139114175Y-69257352D01*
X139101701Y-69273336D01*
X139088441Y-69288708D01*
X139076751Y-69305306D01*
X138737179Y-69740429D01*
X138723929Y-69755789D01*
X138712250Y-69772372D01*
X138699765Y-69788370D01*
X138688907Y-69805516D01*
X138371094Y-70256777D01*
X138358611Y-70272772D01*
X138347756Y-70289914D01*
X138336074Y-70306501D01*
X138326073Y-70324155D01*
X138030781Y-70790470D01*
X138019098Y-70807059D01*
X138009099Y-70824710D01*
X137998245Y-70841850D01*
X137989122Y-70859974D01*
X137717063Y-71340226D01*
X137706212Y-71357362D01*
X137697094Y-71375477D01*
X137687090Y-71393136D01*
X137678865Y-71411691D01*
X137430713Y-71904685D01*
X137420705Y-71922352D01*
X137412475Y-71940918D01*
X137403362Y-71959023D01*
X137396067Y-71977935D01*
X137172389Y-72482543D01*
X137163263Y-72500674D01*
X137155958Y-72519613D01*
X137147741Y-72538149D01*
X137141379Y-72557406D01*
X136942735Y-73072374D01*
X136934511Y-73090928D01*
X136928144Y-73110200D01*
X136920845Y-73129123D01*
X136915435Y-73148671D01*
X136742296Y-73672770D01*
X136734994Y-73691699D01*
X136729583Y-73711252D01*
X136723219Y-73730516D01*
X136718774Y-73750312D01*
X136571558Y-74282279D01*
X136565198Y-74301533D01*
X136560755Y-74321318D01*
X136555341Y-74340882D01*
X136551871Y-74360881D01*
X136430938Y-74899415D01*
X136425528Y-74918966D01*
X136422060Y-74938951D01*
X136417614Y-74958751D01*
X136415130Y-74978893D01*
X136320768Y-75522713D01*
X136316323Y-75542509D01*
X136313840Y-75562644D01*
X136310371Y-75582634D01*
X136308878Y-75602869D01*
X136241312Y-76150684D01*
X136237846Y-76170657D01*
X136236355Y-76190873D01*
X136233869Y-76211027D01*
X136233371Y-76231324D01*
X136192767Y-76781763D01*
X136190283Y-76801903D01*
X136189785Y-76822188D01*
X136188293Y-76842415D01*
X136188791Y-76862696D01*
X136175495Y-77404354D01*
X136174501Y-77414447D01*
X136174501Y-77444851D01*
X136173754Y-77475283D01*
X136174501Y-77485410D01*
X136174500Y-87455598D01*
X136173754Y-87465711D01*
X136174500Y-87496109D01*
X136174500Y-87526552D01*
X136175495Y-87536656D01*
X136177159Y-87604454D01*
X136176661Y-87624742D01*
X136178153Y-87644975D01*
X136178651Y-87665251D01*
X136181134Y-87685388D01*
X136186870Y-87763149D01*
X136187368Y-87783435D01*
X136189852Y-87803572D01*
X136191344Y-87823803D01*
X136194813Y-87843796D01*
X136204358Y-87921180D01*
X136205850Y-87941409D01*
X136209318Y-87961398D01*
X136211802Y-87981535D01*
X136216247Y-88001328D01*
X136229578Y-88078160D01*
X136232061Y-88098293D01*
X136236503Y-88118075D01*
X136239973Y-88138072D01*
X136245388Y-88157641D01*
X136262468Y-88233699D01*
X136265937Y-88253690D01*
X136271350Y-88273251D01*
X136275795Y-88293044D01*
X136282158Y-88312304D01*
X136302950Y-88387438D01*
X136307398Y-88407246D01*
X136313765Y-88426520D01*
X136319173Y-88446061D01*
X136326472Y-88464983D01*
X136350935Y-88539032D01*
X136356344Y-88558579D01*
X136363644Y-88577503D01*
X136370010Y-88596774D01*
X136378233Y-88615325D01*
X136406294Y-88688073D01*
X136412657Y-88707332D01*
X136420874Y-88725870D01*
X136428179Y-88744807D01*
X136437305Y-88762938D01*
X136468901Y-88834217D01*
X136476200Y-88853139D01*
X136485317Y-88871252D01*
X136493543Y-88889809D01*
X136503547Y-88907468D01*
X136538602Y-88977111D01*
X136546820Y-88995650D01*
X136556816Y-89013296D01*
X136565943Y-89031428D01*
X136576799Y-89048572D01*
X136615226Y-89116406D01*
X136624351Y-89134534D01*
X136635203Y-89151671D01*
X136645202Y-89169322D01*
X136656888Y-89185915D01*
X136698602Y-89251788D01*
X136708602Y-89269440D01*
X136720285Y-89286028D01*
X136731138Y-89303167D01*
X136743619Y-89319160D01*
X136788510Y-89382900D01*
X136799367Y-89400045D01*
X136811856Y-89416049D01*
X136823535Y-89432631D01*
X136836780Y-89447986D01*
X136884762Y-89509469D01*
X136896439Y-89526049D01*
X136909680Y-89541399D01*
X136922168Y-89557401D01*
X136936166Y-89572103D01*
X136987089Y-89631138D01*
X136999568Y-89647128D01*
X137013554Y-89661818D01*
X137026813Y-89677189D01*
X137041511Y-89691182D01*
X137088280Y-89740307D01*
X137094715Y-89748147D01*
X137116207Y-89769639D01*
X137137202Y-89791691D01*
X137144895Y-89798327D01*
X138148020Y-90801453D01*
X138208763Y-90865252D01*
X138259681Y-90924281D01*
X138307656Y-90985756D01*
X138352544Y-91049491D01*
X138394260Y-91115367D01*
X138432689Y-91183205D01*
X138467743Y-91252846D01*
X138499336Y-91324119D01*
X138527395Y-91396860D01*
X138551852Y-91470891D01*
X138572646Y-91546030D01*
X138589731Y-91622112D01*
X138603058Y-91698922D01*
X138612602Y-91776298D01*
X138618338Y-91854069D01*
X138620501Y-91942147D01*
X138620500Y-127053903D01*
X138615430Y-127260389D01*
X138600976Y-127456338D01*
X138576928Y-127651318D01*
X138543340Y-127844889D01*
X138500294Y-128036579D01*
X138447899Y-128225910D01*
X138386273Y-128412456D01*
X138315562Y-128595765D01*
X138235953Y-128775360D01*
X138147622Y-128950844D01*
X138050784Y-129121788D01*
X137945672Y-129287776D01*
X137832555Y-129448391D01*
X137711685Y-129603271D01*
X137583351Y-129752044D01*
X137440951Y-129901614D01*
X136376999Y-130965568D01*
X136369314Y-130972197D01*
X136348329Y-130994238D01*
X136326822Y-131015745D01*
X136320387Y-131023586D01*
X136191905Y-131158533D01*
X136177209Y-131172525D01*
X136163961Y-131187883D01*
X136149972Y-131202576D01*
X136137485Y-131218576D01*
X136009154Y-131367348D01*
X135995171Y-131382035D01*
X135982696Y-131398020D01*
X135969437Y-131413391D01*
X135957750Y-131429985D01*
X135836877Y-131584869D01*
X135823630Y-131600226D01*
X135811956Y-131616802D01*
X135799467Y-131632805D01*
X135788606Y-131649957D01*
X135675484Y-131810578D01*
X135663006Y-131826568D01*
X135652154Y-131843705D01*
X135640468Y-131860298D01*
X135630466Y-131877953D01*
X135525362Y-132043930D01*
X135513678Y-132060520D01*
X135503677Y-132078175D01*
X135492824Y-132095313D01*
X135483702Y-132113436D01*
X135386862Y-132284383D01*
X135376011Y-132301518D01*
X135366892Y-132319633D01*
X135356889Y-132337292D01*
X135348664Y-132355846D01*
X135260332Y-132531332D01*
X135250335Y-132548979D01*
X135242115Y-132567522D01*
X135232990Y-132585651D01*
X135225686Y-132604586D01*
X135146072Y-132784191D01*
X135136951Y-132802311D01*
X135129651Y-132821234D01*
X135121428Y-132839786D01*
X135115062Y-132859055D01*
X135044355Y-133042357D01*
X135036135Y-133060901D01*
X135029772Y-133080160D01*
X135022469Y-133099094D01*
X135017056Y-133118652D01*
X134955429Y-133305200D01*
X134948128Y-133324127D01*
X134942719Y-133343674D01*
X134936353Y-133362943D01*
X134931906Y-133382747D01*
X134879512Y-133572077D01*
X134873144Y-133591352D01*
X134868696Y-133611159D01*
X134863288Y-133630702D01*
X134859821Y-133650680D01*
X134816775Y-133842378D01*
X134811362Y-133861937D01*
X134807893Y-133881930D01*
X134803449Y-133901720D01*
X134800966Y-133921854D01*
X134767380Y-134115421D01*
X134762933Y-134135222D01*
X134760448Y-134155370D01*
X134756981Y-134175351D01*
X134755489Y-134195575D01*
X134731440Y-134390556D01*
X134727969Y-134410561D01*
X134726476Y-134430807D01*
X134723994Y-134450927D01*
X134723496Y-134471201D01*
X134709043Y-134667146D01*
X134706559Y-134687285D01*
X134706061Y-134707567D01*
X134704569Y-134727797D01*
X134705067Y-134748080D01*
X134700495Y-134934343D01*
X134699500Y-134944448D01*
X134699500Y-134974890D01*
X134698754Y-135005285D01*
X134699500Y-135015398D01*
X134699501Y-138910440D01*
X134595966Y-138605315D01*
X134486714Y-138400921D01*
X134209531Y-138290074D01*
X133164605Y-139335000D01*
X134209531Y-140379926D01*
X134486714Y-140269079D01*
X134640089Y-139958160D01*
X134699501Y-139736542D01*
X134699501Y-140430116D01*
X134466812Y-140585594D01*
X134235594Y-140816812D01*
X134053927Y-141088695D01*
X133928793Y-141390796D01*
X133865000Y-141711504D01*
X133865000Y-142038496D01*
X133928793Y-142359204D01*
X134053927Y-142661305D01*
X134235594Y-142933188D01*
X134466812Y-143164406D01*
X134738695Y-143346073D01*
X135040796Y-143471207D01*
X135361504Y-143535000D01*
X135688496Y-143535000D01*
X136009204Y-143471207D01*
X136311305Y-143346073D01*
X136544182Y-143190469D01*
X137020074Y-143190469D01*
X138065000Y-144235395D01*
X139109926Y-143190469D01*
X138999079Y-142913286D01*
X138688160Y-142759911D01*
X138353295Y-142670140D01*
X138007350Y-142647424D01*
X137663620Y-142692634D01*
X137335315Y-142804034D01*
X137130921Y-142913286D01*
X137020074Y-143190469D01*
X136544182Y-143190469D01*
X136583188Y-143164406D01*
X136814406Y-142933188D01*
X136996073Y-142661305D01*
X137121207Y-142359204D01*
X137185000Y-142038496D01*
X137185000Y-141711504D01*
X137121207Y-141390796D01*
X137079744Y-141290695D01*
X143736520Y-141290695D01*
X143805822Y-142042938D01*
X144020548Y-142767208D01*
X144372445Y-143435670D01*
X144399452Y-143476088D01*
X144889119Y-143836276D01*
X147410395Y-141315000D01*
X147769605Y-141315000D01*
X150290881Y-143836276D01*
X150780548Y-143476088D01*
X151140849Y-142812118D01*
X151364694Y-142090615D01*
X151443480Y-141339305D01*
X151374178Y-140587062D01*
X151159452Y-139862792D01*
X150807555Y-139194330D01*
X150780548Y-139153912D01*
X150290881Y-138793724D01*
X147769605Y-141315000D01*
X147410395Y-141315000D01*
X144889119Y-138793724D01*
X144399452Y-139153912D01*
X144039151Y-139817882D01*
X143815306Y-140539385D01*
X143736520Y-141290695D01*
X137079744Y-141290695D01*
X136996073Y-141088695D01*
X136814406Y-140816812D01*
X136583188Y-140585594D01*
X136544183Y-140559531D01*
X137020074Y-140559531D01*
X137130921Y-140836714D01*
X137441840Y-140990089D01*
X137776705Y-141079860D01*
X138122650Y-141102576D01*
X138466380Y-141057366D01*
X138794685Y-140945966D01*
X138999079Y-140836714D01*
X139109926Y-140559531D01*
X138065000Y-139514605D01*
X137020074Y-140559531D01*
X136544183Y-140559531D01*
X136350500Y-140430116D01*
X136350500Y-139759562D01*
X136454034Y-140064685D01*
X136563286Y-140269079D01*
X136840469Y-140379926D01*
X137885395Y-139335000D01*
X138244605Y-139335000D01*
X139289531Y-140379926D01*
X139566714Y-140269079D01*
X139720089Y-139958160D01*
X139809860Y-139623295D01*
X139832576Y-139277350D01*
X139787366Y-138933620D01*
X139678954Y-138614119D01*
X145068724Y-138614119D01*
X147590000Y-141135395D01*
X150111276Y-138614119D01*
X149751088Y-138124452D01*
X149087118Y-137764151D01*
X148365615Y-137540306D01*
X147614305Y-137461520D01*
X146862062Y-137530822D01*
X146137792Y-137745548D01*
X145469330Y-138097445D01*
X145428912Y-138124452D01*
X145068724Y-138614119D01*
X139678954Y-138614119D01*
X139675966Y-138605315D01*
X139566714Y-138400921D01*
X139289531Y-138290074D01*
X138244605Y-139335000D01*
X137885395Y-139335000D01*
X136840469Y-138290074D01*
X136563286Y-138400921D01*
X136409911Y-138711840D01*
X136350500Y-138933456D01*
X136350500Y-138110469D01*
X137020074Y-138110469D01*
X138065000Y-139155395D01*
X139109926Y-138110469D01*
X138999079Y-137833286D01*
X138688160Y-137679911D01*
X138353295Y-137590140D01*
X138007350Y-137567424D01*
X137663620Y-137612634D01*
X137335315Y-137724034D01*
X137130921Y-137833286D01*
X137020074Y-138110469D01*
X136350500Y-138110469D01*
X136350500Y-134995111D01*
X136355569Y-134788602D01*
X136370021Y-134592669D01*
X136394069Y-134397693D01*
X136427658Y-134204110D01*
X136470705Y-134012418D01*
X136523102Y-133823079D01*
X136584730Y-133636529D01*
X136655434Y-133453236D01*
X136735045Y-133273640D01*
X136823380Y-133098146D01*
X136920214Y-132927211D01*
X137025315Y-132761238D01*
X137138449Y-132600599D01*
X137259314Y-132445724D01*
X137387634Y-132296966D01*
X137530099Y-132147332D01*
X138594019Y-131083414D01*
X138601692Y-131076795D01*
X138622628Y-131054805D01*
X138644178Y-131033255D01*
X138650630Y-131025393D01*
X138779088Y-130890468D01*
X138793786Y-130876474D01*
X138807045Y-130861103D01*
X138821031Y-130846413D01*
X138833509Y-130830425D01*
X138961832Y-130681663D01*
X138975825Y-130666965D01*
X138988310Y-130650967D01*
X139001558Y-130635609D01*
X139013239Y-130619024D01*
X139134110Y-130464143D01*
X139147368Y-130448773D01*
X139159053Y-130432181D01*
X139171529Y-130416195D01*
X139182381Y-130399058D01*
X139295517Y-130238416D01*
X139307991Y-130222432D01*
X139318840Y-130205299D01*
X139330530Y-130188701D01*
X139340534Y-130171042D01*
X139445635Y-130005071D01*
X139457321Y-129988477D01*
X139467323Y-129970821D01*
X139478173Y-129953687D01*
X139487294Y-129935568D01*
X139584136Y-129764616D01*
X139594987Y-129747481D01*
X139604106Y-129729364D01*
X139614110Y-129711705D01*
X139622333Y-129693153D01*
X139710659Y-129517681D01*
X139720664Y-129500019D01*
X139728890Y-129481461D01*
X139738007Y-129463349D01*
X139745305Y-129444429D01*
X139824925Y-129264810D01*
X139834047Y-129246687D01*
X139841349Y-129227757D01*
X139849570Y-129209211D01*
X139855934Y-129189947D01*
X139926643Y-129006642D01*
X139934863Y-128988098D01*
X139941226Y-128968838D01*
X139948529Y-128949905D01*
X139953942Y-128930345D01*
X140015569Y-128743797D01*
X140022870Y-128724871D01*
X140028279Y-128705324D01*
X140034644Y-128686058D01*
X140039091Y-128666257D01*
X140091490Y-128476908D01*
X140097853Y-128457647D01*
X140102298Y-128437852D01*
X140107710Y-128418296D01*
X140111179Y-128398305D01*
X140154226Y-128206612D01*
X140159635Y-128187065D01*
X140163102Y-128167083D01*
X140167549Y-128147281D01*
X140170033Y-128127140D01*
X140203623Y-127933561D01*
X140208066Y-127913774D01*
X140210548Y-127893651D01*
X140214018Y-127873653D01*
X140215511Y-127853411D01*
X140239560Y-127658428D01*
X140243029Y-127638438D01*
X140244521Y-127618207D01*
X140247005Y-127598070D01*
X140247503Y-127577786D01*
X140261956Y-127381845D01*
X140264438Y-127361721D01*
X140264936Y-127341448D01*
X140266429Y-127321204D01*
X140265931Y-127300914D01*
X140270504Y-127114665D01*
X140271500Y-127104553D01*
X140271500Y-127074105D01*
X140272246Y-127043722D01*
X140271500Y-127033608D01*
X140271500Y-108623299D01*
X155522500Y-108623299D01*
X155522500Y-109086701D01*
X155612905Y-109541199D01*
X155790241Y-109969327D01*
X156047694Y-110354631D01*
X156375369Y-110682306D01*
X156760673Y-110939759D01*
X157188801Y-111117095D01*
X157643299Y-111207500D01*
X158106701Y-111207500D01*
X158561199Y-111117095D01*
X158989327Y-110939759D01*
X159374631Y-110682306D01*
X159702306Y-110354631D01*
X159959759Y-109969327D01*
X160137095Y-109541199D01*
X160227500Y-109086701D01*
X160227500Y-108623299D01*
X160137095Y-108168801D01*
X159959759Y-107740673D01*
X159702306Y-107355369D01*
X159374631Y-107027694D01*
X158989327Y-106770241D01*
X158561199Y-106592905D01*
X158106701Y-106502500D01*
X157643299Y-106502500D01*
X157188801Y-106592905D01*
X156760673Y-106770241D01*
X156375369Y-107027694D01*
X156047694Y-107355369D01*
X155790241Y-107740673D01*
X155612905Y-108168801D01*
X155522500Y-108623299D01*
X140271500Y-108623299D01*
X140271500Y-91962390D01*
X140272246Y-91952275D01*
X140271500Y-91921896D01*
X140271500Y-91891447D01*
X140270504Y-91881333D01*
X140268839Y-91813540D01*
X140269337Y-91793256D01*
X140267844Y-91773016D01*
X140267346Y-91752734D01*
X140264863Y-91732604D01*
X140259127Y-91654833D01*
X140258629Y-91634563D01*
X140256147Y-91614443D01*
X140254654Y-91594196D01*
X140251183Y-91574191D01*
X140241641Y-91496827D01*
X140240148Y-91476588D01*
X140236679Y-91456593D01*
X140234196Y-91436464D01*
X140229753Y-91416676D01*
X140216422Y-91339851D01*
X140213939Y-91319714D01*
X140209493Y-91299916D01*
X140206025Y-91279927D01*
X140200614Y-91260374D01*
X140183531Y-91184296D01*
X140180061Y-91164301D01*
X140174651Y-91144752D01*
X140170207Y-91124962D01*
X140163842Y-91105694D01*
X140143046Y-91030550D01*
X140138600Y-91010752D01*
X140132234Y-90991481D01*
X140126823Y-90971930D01*
X140119523Y-90953005D01*
X140095063Y-90878966D01*
X140089653Y-90859416D01*
X140082352Y-90840488D01*
X140075988Y-90821225D01*
X140067767Y-90802678D01*
X140039704Y-90729926D01*
X140033342Y-90710670D01*
X140025124Y-90692131D01*
X140017818Y-90673190D01*
X140008692Y-90655060D01*
X139977103Y-90583796D01*
X139969798Y-90564858D01*
X139960674Y-90546732D01*
X139952456Y-90528192D01*
X139942458Y-90510542D01*
X139907395Y-90440885D01*
X139899178Y-90422348D01*
X139889182Y-90404703D01*
X139880055Y-90386570D01*
X139869199Y-90369426D01*
X139830772Y-90301592D01*
X139821647Y-90283464D01*
X139810795Y-90266327D01*
X139800796Y-90248676D01*
X139789110Y-90232083D01*
X139747401Y-90166218D01*
X139737397Y-90148559D01*
X139725710Y-90131964D01*
X139714860Y-90114831D01*
X139702384Y-90098844D01*
X139657481Y-90035087D01*
X139646631Y-90017953D01*
X139634151Y-90001961D01*
X139622464Y-89985367D01*
X139609210Y-89970002D01*
X139561242Y-89908537D01*
X139549562Y-89891952D01*
X139536314Y-89876594D01*
X139523830Y-89860597D01*
X139509837Y-89845899D01*
X139458906Y-89786856D01*
X139446426Y-89770865D01*
X139432443Y-89756178D01*
X139419188Y-89740812D01*
X139404488Y-89726816D01*
X139357727Y-89677702D01*
X139351284Y-89669851D01*
X139329756Y-89648323D01*
X139308794Y-89626306D01*
X139301115Y-89619682D01*
X138297990Y-88616558D01*
X138237232Y-88552742D01*
X138186318Y-88493719D01*
X138138347Y-88432249D01*
X138093447Y-88368496D01*
X138051738Y-88302631D01*
X138013312Y-88234799D01*
X137978252Y-88165145D01*
X137946663Y-88093881D01*
X137918602Y-88021136D01*
X137894147Y-87947109D01*
X137873351Y-87871963D01*
X137856270Y-87795900D01*
X137842938Y-87719063D01*
X137833397Y-87641707D01*
X137827661Y-87563941D01*
X137825500Y-87475898D01*
X137825500Y-84900413D01*
X139309192Y-84900413D01*
X139404956Y-85164814D01*
X139694571Y-85305704D01*
X140006108Y-85387384D01*
X140327595Y-85406718D01*
X140646675Y-85362961D01*
X140951088Y-85257795D01*
X141125044Y-85164814D01*
X141220808Y-84900413D01*
X140265000Y-83944605D01*
X139309192Y-84900413D01*
X137825500Y-84900413D01*
X137825500Y-83827595D01*
X138623282Y-83827595D01*
X138667039Y-84146675D01*
X138772205Y-84451088D01*
X138865186Y-84625044D01*
X139129587Y-84720808D01*
X140085395Y-83765000D01*
X140444605Y-83765000D01*
X141400413Y-84720808D01*
X141664814Y-84625044D01*
X141805704Y-84335429D01*
X141887384Y-84023892D01*
X141906718Y-83702405D01*
X141862961Y-83383325D01*
X141757795Y-83078912D01*
X141664814Y-82904956D01*
X141400413Y-82809192D01*
X140444605Y-83765000D01*
X140085395Y-83765000D01*
X139129587Y-82809192D01*
X138865186Y-82904956D01*
X138724296Y-83194571D01*
X138642616Y-83506108D01*
X138623282Y-83827595D01*
X137825500Y-83827595D01*
X137825500Y-82629587D01*
X139309192Y-82629587D01*
X140265000Y-83585395D01*
X141220808Y-82629587D01*
X141125044Y-82365186D01*
X140835429Y-82224296D01*
X140523892Y-82142616D01*
X140202405Y-82123282D01*
X139883325Y-82167039D01*
X139578912Y-82272205D01*
X139404956Y-82365186D01*
X139309192Y-82629587D01*
X137825500Y-82629587D01*
X137825500Y-77465117D01*
X137839293Y-76903210D01*
X137879897Y-76352759D01*
X137947463Y-75804954D01*
X138041823Y-75261146D01*
X138162756Y-74722610D01*
X138309972Y-74190641D01*
X138483105Y-73666562D01*
X138509115Y-73599133D01*
X142195472Y-73599133D01*
X142257965Y-73835450D01*
X142500678Y-73948850D01*
X142760849Y-74012719D01*
X143028482Y-74024604D01*
X143293291Y-73984048D01*
X143545100Y-73892609D01*
X143652035Y-73835450D01*
X143714528Y-73599133D01*
X142955000Y-72839605D01*
X142195472Y-73599133D01*
X138509115Y-73599133D01*
X138681744Y-73151608D01*
X138867086Y-72733482D01*
X141590396Y-72733482D01*
X141630952Y-72998291D01*
X141722391Y-73250100D01*
X141779550Y-73357035D01*
X142015867Y-73419528D01*
X142775395Y-72660000D01*
X142015867Y-71900472D01*
X141779550Y-71962965D01*
X141666150Y-72205678D01*
X141602281Y-72465849D01*
X141590396Y-72733482D01*
X138867086Y-72733482D01*
X138905424Y-72646994D01*
X139153580Y-72153992D01*
X139425640Y-71673739D01*
X139720933Y-71207423D01*
X140038748Y-70756161D01*
X140378316Y-70321045D01*
X140738833Y-69903105D01*
X141126412Y-69496019D01*
X141644318Y-68978113D01*
X141595000Y-69226052D01*
X141595000Y-69493948D01*
X141647264Y-69756697D01*
X141749784Y-70004201D01*
X141898619Y-70226949D01*
X142088051Y-70416381D01*
X142129501Y-70444077D01*
X142129501Y-70524440D01*
X142125506Y-70565000D01*
X142141445Y-70726826D01*
X142188647Y-70882433D01*
X142265301Y-71025842D01*
X142315927Y-71087529D01*
X142368460Y-71151541D01*
X142399961Y-71177393D01*
X142574021Y-71351453D01*
X142364900Y-71427391D01*
X142257965Y-71484550D01*
X142195472Y-71720867D01*
X142955000Y-72480395D01*
X142969143Y-72466253D01*
X143148748Y-72645858D01*
X143134605Y-72660000D01*
X143729262Y-73254657D01*
X143749784Y-73304201D01*
X143898619Y-73526949D01*
X144088051Y-73716381D01*
X144310799Y-73865216D01*
X144558303Y-73967736D01*
X144821052Y-74020000D01*
X145088948Y-74020000D01*
X145351697Y-73967736D01*
X145599201Y-73865216D01*
X145821949Y-73716381D01*
X146011381Y-73526949D01*
X146039076Y-73485500D01*
X147870924Y-73485500D01*
X147898619Y-73526949D01*
X148088051Y-73716381D01*
X148310799Y-73865216D01*
X148558303Y-73967736D01*
X148821052Y-74020000D01*
X149088948Y-74020000D01*
X149351697Y-73967736D01*
X149599201Y-73865216D01*
X149821949Y-73716381D01*
X149955000Y-73583330D01*
X150088051Y-73716381D01*
X150310799Y-73865216D01*
X150558303Y-73967736D01*
X150821052Y-74020000D01*
X151088948Y-74020000D01*
X151351697Y-73967736D01*
X151485062Y-73912494D01*
X152139501Y-74566934D01*
X152139500Y-82350184D01*
X151922748Y-82495013D01*
X151695013Y-82722748D01*
X151516082Y-82990537D01*
X151392832Y-83288088D01*
X151330000Y-83603967D01*
X151330000Y-83926033D01*
X151392832Y-84241912D01*
X151516082Y-84539463D01*
X151695013Y-84807252D01*
X151922748Y-85034987D01*
X152190537Y-85213918D01*
X152488088Y-85337168D01*
X152803967Y-85400000D01*
X153126033Y-85400000D01*
X153441912Y-85337168D01*
X153739463Y-85213918D01*
X154007252Y-85034987D01*
X154234987Y-84807252D01*
X154413918Y-84539463D01*
X154537168Y-84241912D01*
X154600000Y-83926033D01*
X154600000Y-83603967D01*
X154537168Y-83288088D01*
X154413918Y-82990537D01*
X154234987Y-82722748D01*
X154007252Y-82495013D01*
X153790500Y-82350184D01*
X153790500Y-74265550D01*
X153794494Y-74224999D01*
X153786783Y-74146710D01*
X153778556Y-74063174D01*
X153731353Y-73907566D01*
X153681399Y-73814111D01*
X153654699Y-73764157D01*
X153595234Y-73691699D01*
X153551541Y-73638459D01*
X153520039Y-73612606D01*
X152285580Y-72378148D01*
X152262736Y-72263303D01*
X152160216Y-72015799D01*
X152011381Y-71793051D01*
X151821949Y-71603619D01*
X151780500Y-71575924D01*
X151780500Y-71240552D01*
X151784494Y-71200000D01*
X151780500Y-71159447D01*
X151780500Y-70444076D01*
X151821949Y-70416381D01*
X152011381Y-70226949D01*
X152160216Y-70004201D01*
X152262736Y-69756697D01*
X152315000Y-69493948D01*
X152315000Y-69226052D01*
X152262736Y-68963303D01*
X152160216Y-68715799D01*
X152011381Y-68493051D01*
X151821949Y-68303619D01*
X151599201Y-68154784D01*
X151351697Y-68052264D01*
X151088948Y-68000000D01*
X150821052Y-68000000D01*
X150558303Y-68052264D01*
X150310799Y-68154784D01*
X150088051Y-68303619D01*
X149955000Y-68436670D01*
X149821949Y-68303619D01*
X149780500Y-68275924D01*
X149780500Y-67881313D01*
X149795820Y-67889502D01*
X149915518Y-67925812D01*
X150040000Y-67938072D01*
X150479250Y-67935000D01*
X150638000Y-67776250D01*
X150638000Y-66839500D01*
X150892000Y-66839500D01*
X150892000Y-67776250D01*
X151050750Y-67935000D01*
X151490000Y-67938072D01*
X151614482Y-67925812D01*
X151734180Y-67889502D01*
X151844494Y-67830537D01*
X151941185Y-67751185D01*
X152020537Y-67654494D01*
X152079502Y-67544180D01*
X152115812Y-67424482D01*
X152128072Y-67300000D01*
X152125000Y-66998250D01*
X151966250Y-66839500D01*
X150892000Y-66839500D01*
X150638000Y-66839500D01*
X150618000Y-66839500D01*
X150618000Y-66585500D01*
X150638000Y-66585500D01*
X150638000Y-66565500D01*
X150892000Y-66565500D01*
X150892000Y-66585500D01*
X151966250Y-66585500D01*
X152125000Y-66426750D01*
X152128072Y-66125000D01*
X152115812Y-66000518D01*
X152079502Y-65880820D01*
X152020537Y-65770506D01*
X151941185Y-65673815D01*
X151861406Y-65608342D01*
X151867962Y-65602962D01*
X151978405Y-65468386D01*
X151992185Y-65442605D01*
X152000773Y-65440000D01*
X152136939Y-65440000D01*
X152336898Y-65400226D01*
X152525256Y-65322205D01*
X152527505Y-65320702D01*
X152538647Y-65357433D01*
X152615301Y-65500842D01*
X152633128Y-65522564D01*
X152718459Y-65626541D01*
X152749965Y-65652397D01*
X153327610Y-66230044D01*
X153353459Y-66261541D01*
X153384955Y-66287389D01*
X153384958Y-66287392D01*
X153479157Y-66364699D01*
X153554856Y-66405161D01*
X153622566Y-66441353D01*
X153778174Y-66488556D01*
X153899447Y-66500500D01*
X153899449Y-66500500D01*
X153940000Y-66504494D01*
X153964431Y-66502088D01*
X154026595Y-66618387D01*
X154137038Y-66752962D01*
X154271613Y-66863405D01*
X154425149Y-66945472D01*
X154591745Y-66996008D01*
X154764999Y-67013072D01*
X155298991Y-67013072D01*
X155298991Y-68453930D01*
X155294996Y-68494490D01*
X155310935Y-68656316D01*
X155358137Y-68811923D01*
X155434791Y-68955332D01*
X155479302Y-69009568D01*
X155537950Y-69081031D01*
X155569451Y-69106883D01*
X157870350Y-71407783D01*
X157842439Y-71475166D01*
X157770000Y-71839344D01*
X157770000Y-72210656D01*
X157842439Y-72574834D01*
X157984534Y-72917882D01*
X158190825Y-73226618D01*
X158453382Y-73489175D01*
X158762118Y-73695466D01*
X159105166Y-73837561D01*
X159469344Y-73910000D01*
X159840656Y-73910000D01*
X160204834Y-73837561D01*
X160547882Y-73695466D01*
X160856618Y-73489175D01*
X161119175Y-73226618D01*
X161325466Y-72917882D01*
X161467561Y-72574834D01*
X161540000Y-72210656D01*
X161540000Y-71839344D01*
X161467561Y-71475166D01*
X161325466Y-71132118D01*
X161119175Y-70823382D01*
X160856618Y-70560825D01*
X160547882Y-70354534D01*
X160204834Y-70212439D01*
X159840656Y-70140000D01*
X159469344Y-70140000D01*
X159105166Y-70212439D01*
X159037783Y-70240350D01*
X156949990Y-68152558D01*
X156949990Y-67013072D01*
X157465001Y-67013072D01*
X157638255Y-66996008D01*
X157804851Y-66945472D01*
X157958387Y-66863405D01*
X158092962Y-66752962D01*
X158203405Y-66618387D01*
X158285472Y-66464851D01*
X158305144Y-66400000D01*
X158894428Y-66400000D01*
X158906688Y-66524482D01*
X158942998Y-66644180D01*
X159001963Y-66754494D01*
X159081315Y-66851185D01*
X159178006Y-66930537D01*
X159288320Y-66989502D01*
X159408018Y-67025812D01*
X159532500Y-67038072D01*
X159834250Y-67035000D01*
X159993000Y-66876250D01*
X159993000Y-65802000D01*
X159056250Y-65802000D01*
X158897500Y-65960750D01*
X158894428Y-66400000D01*
X158305144Y-66400000D01*
X158336008Y-66298255D01*
X158353072Y-66125001D01*
X158353072Y-65224999D01*
X158336008Y-65051745D01*
X158285472Y-64885149D01*
X158203405Y-64731613D01*
X158092962Y-64597038D01*
X158091552Y-64595881D01*
X158091933Y-64595500D01*
X159001968Y-64595500D01*
X159001963Y-64595506D01*
X158942998Y-64705820D01*
X158906688Y-64825518D01*
X158894428Y-64950000D01*
X158897500Y-65389250D01*
X159056250Y-65548000D01*
X159993000Y-65548000D01*
X159993000Y-65528000D01*
X160247000Y-65528000D01*
X160247000Y-65548000D01*
X160267000Y-65548000D01*
X160267000Y-65802000D01*
X160247000Y-65802000D01*
X160247000Y-66876250D01*
X160405750Y-67035000D01*
X160707500Y-67038072D01*
X160831982Y-67025812D01*
X160951680Y-66989502D01*
X161061994Y-66930537D01*
X161158685Y-66851185D01*
X161224158Y-66771406D01*
X161229538Y-66777962D01*
X161364114Y-66888405D01*
X161517650Y-66970472D01*
X161684246Y-67021008D01*
X161857500Y-67038072D01*
X162532500Y-67038072D01*
X162705754Y-67021008D01*
X162872350Y-66970472D01*
X163025886Y-66888405D01*
X163160462Y-66777962D01*
X163270905Y-66643386D01*
X163352972Y-66489850D01*
X163403508Y-66323254D01*
X163420572Y-66150000D01*
X163420572Y-65200000D01*
X163403508Y-65026746D01*
X163352972Y-64860150D01*
X163270905Y-64706614D01*
X163160462Y-64572038D01*
X163025886Y-64461595D01*
X163020500Y-64458716D01*
X163020500Y-63810553D01*
X163024494Y-63770000D01*
X163020500Y-63729447D01*
X163020500Y-62476417D01*
X163138387Y-62413405D01*
X163272962Y-62302962D01*
X163383405Y-62168387D01*
X163465472Y-62014851D01*
X163516008Y-61848255D01*
X163533072Y-61675001D01*
X163533072Y-60974999D01*
X163516008Y-60801745D01*
X163465472Y-60635149D01*
X163383405Y-60481613D01*
X163272962Y-60347038D01*
X163246109Y-60325000D01*
X163272962Y-60302962D01*
X163383405Y-60168387D01*
X163465472Y-60014851D01*
X163516008Y-59848255D01*
X163533072Y-59675001D01*
X163533072Y-58974999D01*
X163516008Y-58801745D01*
X163465472Y-58635149D01*
X163383405Y-58481613D01*
X163272962Y-58347038D01*
X163138387Y-58236595D01*
X162984851Y-58154528D01*
X162818255Y-58103992D01*
X162645001Y-58086928D01*
X161744999Y-58086928D01*
X161571745Y-58103992D01*
X161405149Y-58154528D01*
X161251613Y-58236595D01*
X161117038Y-58347038D01*
X161006595Y-58481613D01*
X160997034Y-58499500D01*
X159498298Y-58499500D01*
X159436185Y-58423815D01*
X159339494Y-58344463D01*
X159229180Y-58285498D01*
X159210500Y-58279831D01*
X159210500Y-56731284D01*
X159215886Y-56728405D01*
X159350462Y-56617962D01*
X159422500Y-56530183D01*
X159494538Y-56617962D01*
X159629114Y-56728405D01*
X159782650Y-56810472D01*
X159949246Y-56861008D01*
X160122500Y-56878072D01*
X160797500Y-56878072D01*
X160970754Y-56861008D01*
X161137350Y-56810472D01*
X161290886Y-56728405D01*
X161425462Y-56617962D01*
X161535905Y-56483386D01*
X161617972Y-56329850D01*
X161668508Y-56163254D01*
X161685572Y-55990000D01*
X161685572Y-55040000D01*
X161668508Y-54866746D01*
X161617972Y-54700150D01*
X161535905Y-54546614D01*
X161425462Y-54412038D01*
X161290886Y-54301595D01*
X161285500Y-54298716D01*
X161285500Y-51730000D01*
X161302715Y-51730000D01*
X162043628Y-51582623D01*
X162741554Y-51293533D01*
X163369670Y-50873839D01*
X163903839Y-50339670D01*
X164323533Y-49711554D01*
X164360000Y-49623515D01*
X164360001Y-137282572D01*
X164360000Y-137282582D01*
X164360001Y-146090992D01*
X164358956Y-146093200D01*
X164327332Y-146219303D01*
X164320918Y-146349153D01*
X164323105Y-146363926D01*
X164316907Y-147768512D01*
X164159843Y-149179261D01*
X163853751Y-150565348D01*
X163402106Y-151911050D01*
X162810020Y-153201134D01*
X162084187Y-154421012D01*
X161232841Y-155556844D01*
X160265622Y-156595775D01*
X159193472Y-157526046D01*
X158028541Y-158337117D01*
X156784017Y-159019808D01*
X155473994Y-159566384D01*
X154113310Y-159970657D01*
X152934566Y-160188000D01*
X142113565Y-160188000D01*
X141181127Y-160037814D01*
X139811635Y-159664447D01*
X138489573Y-159147667D01*
X138235875Y-159015881D01*
X145068724Y-159015881D01*
X145428912Y-159505548D01*
X146092882Y-159865849D01*
X146814385Y-160089694D01*
X147565695Y-160168480D01*
X148317938Y-160099178D01*
X149042208Y-159884452D01*
X149710670Y-159532555D01*
X149751088Y-159505548D01*
X150111276Y-159015881D01*
X147590000Y-156494605D01*
X145068724Y-159015881D01*
X138235875Y-159015881D01*
X137229918Y-158493328D01*
X136046918Y-157708833D01*
X134953985Y-156803072D01*
X134454850Y-156290695D01*
X143736520Y-156290695D01*
X143805822Y-157042938D01*
X144020548Y-157767208D01*
X144372445Y-158435670D01*
X144399452Y-158476088D01*
X144889119Y-158836276D01*
X147410395Y-156315000D01*
X147769605Y-156315000D01*
X150290881Y-158836276D01*
X150780548Y-158476088D01*
X151140849Y-157812118D01*
X151364694Y-157090615D01*
X151443480Y-156339305D01*
X151374178Y-155587062D01*
X151159452Y-154862792D01*
X150807555Y-154194330D01*
X150780548Y-154153912D01*
X150290881Y-153793724D01*
X147769605Y-156315000D01*
X147410395Y-156315000D01*
X144889119Y-153793724D01*
X144399452Y-154153912D01*
X144039151Y-154817882D01*
X143815306Y-155539385D01*
X143736520Y-156290695D01*
X134454850Y-156290695D01*
X133963487Y-155786298D01*
X133086653Y-154670038D01*
X132425559Y-153614119D01*
X145068724Y-153614119D01*
X147590000Y-156135395D01*
X150111276Y-153614119D01*
X149751088Y-153124452D01*
X149087118Y-152764151D01*
X148365615Y-152540306D01*
X147614305Y-152461520D01*
X146862062Y-152530822D01*
X146137792Y-152745548D01*
X145469330Y-153097445D01*
X145428912Y-153124452D01*
X145068724Y-153614119D01*
X132425559Y-153614119D01*
X132333391Y-153466906D01*
X131712250Y-152190553D01*
X131230254Y-150855413D01*
X130892865Y-149476618D01*
X130703326Y-148065482D01*
X130660386Y-146996378D01*
X130679054Y-146357021D01*
X130680000Y-146347419D01*
X130680000Y-146324632D01*
X130680665Y-146301857D01*
X130680000Y-146292234D01*
X130680000Y-145639531D01*
X131940074Y-145639531D01*
X132050921Y-145916714D01*
X132361840Y-146070089D01*
X132696705Y-146159860D01*
X133042650Y-146182576D01*
X133386380Y-146137366D01*
X133714685Y-146025966D01*
X133919079Y-145916714D01*
X134029926Y-145639531D01*
X137020074Y-145639531D01*
X137130921Y-145916714D01*
X137441840Y-146070089D01*
X137776705Y-146159860D01*
X138122650Y-146182576D01*
X138466380Y-146137366D01*
X138794685Y-146025966D01*
X138999079Y-145916714D01*
X139109926Y-145639531D01*
X138065000Y-144594605D01*
X137020074Y-145639531D01*
X134029926Y-145639531D01*
X132985000Y-144594605D01*
X131940074Y-145639531D01*
X130680000Y-145639531D01*
X130680000Y-144472650D01*
X131217424Y-144472650D01*
X131262634Y-144816380D01*
X131374034Y-145144685D01*
X131483286Y-145349079D01*
X131760469Y-145459926D01*
X132805395Y-144415000D01*
X133164605Y-144415000D01*
X134209531Y-145459926D01*
X134486714Y-145349079D01*
X134640089Y-145038160D01*
X134729860Y-144703295D01*
X134745004Y-144472650D01*
X136297424Y-144472650D01*
X136342634Y-144816380D01*
X136454034Y-145144685D01*
X136563286Y-145349079D01*
X136840469Y-145459926D01*
X137885395Y-144415000D01*
X138244605Y-144415000D01*
X139289531Y-145459926D01*
X139566714Y-145349079D01*
X139720089Y-145038160D01*
X139809860Y-144703295D01*
X139832576Y-144357350D01*
X139787664Y-144015881D01*
X145068724Y-144015881D01*
X145428912Y-144505548D01*
X146092882Y-144865849D01*
X146814385Y-145089694D01*
X147565695Y-145168480D01*
X148317938Y-145099178D01*
X149042208Y-144884452D01*
X149710670Y-144532555D01*
X149751088Y-144505548D01*
X150111276Y-144015881D01*
X147590000Y-141494605D01*
X145068724Y-144015881D01*
X139787664Y-144015881D01*
X139787366Y-144013620D01*
X139675966Y-143685315D01*
X139566714Y-143480921D01*
X139289531Y-143370074D01*
X138244605Y-144415000D01*
X137885395Y-144415000D01*
X136840469Y-143370074D01*
X136563286Y-143480921D01*
X136409911Y-143791840D01*
X136320140Y-144126705D01*
X136297424Y-144472650D01*
X134745004Y-144472650D01*
X134752576Y-144357350D01*
X134707366Y-144013620D01*
X134595966Y-143685315D01*
X134486714Y-143480921D01*
X134209531Y-143370074D01*
X133164605Y-144415000D01*
X132805395Y-144415000D01*
X131760469Y-143370074D01*
X131483286Y-143480921D01*
X131329911Y-143791840D01*
X131240140Y-144126705D01*
X131217424Y-144472650D01*
X130680000Y-144472650D01*
X130680000Y-143190469D01*
X131940074Y-143190469D01*
X132985000Y-144235395D01*
X134029926Y-143190469D01*
X133919079Y-142913286D01*
X133608160Y-142759911D01*
X133273295Y-142670140D01*
X132927350Y-142647424D01*
X132583620Y-142692634D01*
X132255315Y-142804034D01*
X132050921Y-142913286D01*
X131940074Y-143190469D01*
X130680000Y-143190469D01*
X130680000Y-140559531D01*
X131940074Y-140559531D01*
X132050921Y-140836714D01*
X132361840Y-140990089D01*
X132696705Y-141079860D01*
X133042650Y-141102576D01*
X133386380Y-141057366D01*
X133714685Y-140945966D01*
X133919079Y-140836714D01*
X134029926Y-140559531D01*
X132985000Y-139514605D01*
X131940074Y-140559531D01*
X130680000Y-140559531D01*
X130680000Y-139392650D01*
X131217424Y-139392650D01*
X131262634Y-139736380D01*
X131374034Y-140064685D01*
X131483286Y-140269079D01*
X131760469Y-140379926D01*
X132805395Y-139335000D01*
X131760469Y-138290074D01*
X131483286Y-138400921D01*
X131329911Y-138711840D01*
X131240140Y-139046705D01*
X131217424Y-139392650D01*
X130680000Y-139392650D01*
X130680000Y-138110469D01*
X131940074Y-138110469D01*
X132985000Y-139155395D01*
X134029926Y-138110469D01*
X133919079Y-137833286D01*
X133608160Y-137679911D01*
X133273295Y-137590140D01*
X132927350Y-137567424D01*
X132583620Y-137612634D01*
X132255315Y-137724034D01*
X132050921Y-137833286D01*
X131940074Y-138110469D01*
X130680000Y-138110469D01*
X130680000Y-122103299D01*
X133172500Y-122103299D01*
X133172500Y-122566701D01*
X133262905Y-123021199D01*
X133440241Y-123449327D01*
X133697694Y-123834631D01*
X134025369Y-124162306D01*
X134410673Y-124419759D01*
X134838801Y-124597095D01*
X135293299Y-124687500D01*
X135756701Y-124687500D01*
X136211199Y-124597095D01*
X136639327Y-124419759D01*
X137024631Y-124162306D01*
X137352306Y-123834631D01*
X137609759Y-123449327D01*
X137787095Y-123021199D01*
X137877500Y-122566701D01*
X137877500Y-122103299D01*
X137787095Y-121648801D01*
X137609759Y-121220673D01*
X137352306Y-120835369D01*
X137024631Y-120507694D01*
X136639327Y-120250241D01*
X136211199Y-120072905D01*
X135756701Y-119982500D01*
X135293299Y-119982500D01*
X134838801Y-120072905D01*
X134410673Y-120250241D01*
X134025369Y-120507694D01*
X133697694Y-120835369D01*
X133440241Y-121220673D01*
X133262905Y-121648801D01*
X133172500Y-122103299D01*
X130680000Y-122103299D01*
X130680000Y-95133299D01*
X133172500Y-95133299D01*
X133172500Y-95596701D01*
X133262905Y-96051199D01*
X133440241Y-96479327D01*
X133697694Y-96864631D01*
X134025369Y-97192306D01*
X134410673Y-97449759D01*
X134838801Y-97627095D01*
X135293299Y-97717500D01*
X135756701Y-97717500D01*
X136211199Y-97627095D01*
X136639327Y-97449759D01*
X137024631Y-97192306D01*
X137352306Y-96864631D01*
X137609759Y-96479327D01*
X137787095Y-96051199D01*
X137877500Y-95596701D01*
X137877500Y-95133299D01*
X137787095Y-94678801D01*
X137609759Y-94250673D01*
X137352306Y-93865369D01*
X137024631Y-93537694D01*
X136639327Y-93280241D01*
X136211199Y-93102905D01*
X135756701Y-93012500D01*
X135293299Y-93012500D01*
X134838801Y-93102905D01*
X134410673Y-93280241D01*
X134025369Y-93537694D01*
X133697694Y-93865369D01*
X133440241Y-94250673D01*
X133262905Y-94678801D01*
X133172500Y-95133299D01*
X130680000Y-95133299D01*
X130680000Y-49285524D01*
X130856467Y-49711554D01*
G37*
%TD.AperFunction*%
D22*
X164085424Y-43984580D02*
X164148356Y-44003580D01*
X164206405Y-44034445D01*
X164257343Y-44075989D01*
X164299248Y-44126644D01*
X164330515Y-44184471D01*
X164349956Y-44247272D01*
X164360000Y-44342835D01*
X164360000Y-46166485D01*
X164323533Y-46078446D01*
X163903839Y-45450330D01*
X163369670Y-44916161D01*
X162741554Y-44496467D01*
X162043628Y-44207377D01*
X161302715Y-44060000D01*
X160547285Y-44060000D01*
X159806372Y-44207377D01*
X159108446Y-44496467D01*
X158480330Y-44916161D01*
X157946161Y-45450330D01*
X157526467Y-46078446D01*
X157237377Y-46776372D01*
X157090000Y-47517285D01*
X157090000Y-48272715D01*
X157237377Y-49013628D01*
X157526467Y-49711554D01*
X157946161Y-50339670D01*
X158480330Y-50873839D01*
X159108446Y-51293533D01*
X159634501Y-51511432D01*
X159634500Y-54298716D01*
X159629114Y-54301595D01*
X159494538Y-54412038D01*
X159422500Y-54499817D01*
X159350462Y-54412038D01*
X159215886Y-54301595D01*
X159062350Y-54219528D01*
X158895754Y-54168992D01*
X158722500Y-54151928D01*
X158047500Y-54151928D01*
X157874246Y-54168992D01*
X157707650Y-54219528D01*
X157554114Y-54301595D01*
X157419538Y-54412038D01*
X157309095Y-54546614D01*
X157227028Y-54700150D01*
X157176492Y-54866746D01*
X157159428Y-55040000D01*
X157159428Y-55990000D01*
X157176492Y-56163254D01*
X157227028Y-56329850D01*
X157309095Y-56483386D01*
X157419538Y-56617962D01*
X157554114Y-56728405D01*
X157559500Y-56731284D01*
X157559501Y-58279831D01*
X157540820Y-58285498D01*
X157430506Y-58344463D01*
X157333815Y-58423815D01*
X157254463Y-58520506D01*
X157195498Y-58630820D01*
X157159188Y-58750518D01*
X157146928Y-58875000D01*
X157146928Y-59775000D01*
X157159188Y-59899482D01*
X157195498Y-60019180D01*
X157254463Y-60129494D01*
X157333815Y-60226185D01*
X157430506Y-60305537D01*
X157540820Y-60364502D01*
X157660518Y-60400812D01*
X157785000Y-60413072D01*
X158985000Y-60413072D01*
X159109482Y-60400812D01*
X159229180Y-60364502D01*
X159339494Y-60305537D01*
X159436185Y-60226185D01*
X159498298Y-60150500D01*
X160997034Y-60150500D01*
X161006595Y-60168387D01*
X161117038Y-60302962D01*
X161143891Y-60325000D01*
X161117038Y-60347038D01*
X161006595Y-60481613D01*
X160924528Y-60635149D01*
X160873992Y-60801745D01*
X160856928Y-60974999D01*
X160856928Y-61675001D01*
X160873992Y-61848255D01*
X160924528Y-62014851D01*
X161006595Y-62168387D01*
X161117038Y-62302962D01*
X161251613Y-62413405D01*
X161369500Y-62476417D01*
X161369501Y-62944500D01*
X159623072Y-62944500D01*
X159623072Y-62175000D01*
X159610812Y-62050518D01*
X159574502Y-61930820D01*
X159515537Y-61820506D01*
X159436185Y-61723815D01*
X159339494Y-61644463D01*
X159229180Y-61585498D01*
X159109482Y-61549188D01*
X158985000Y-61536928D01*
X157785000Y-61536928D01*
X157660518Y-61549188D01*
X157540820Y-61585498D01*
X157430506Y-61644463D01*
X157333815Y-61723815D01*
X157271702Y-61799500D01*
X155119620Y-61799500D01*
X155195537Y-61706994D01*
X155254502Y-61596680D01*
X155290812Y-61476982D01*
X155303072Y-61352500D01*
X155300000Y-61050750D01*
X155141250Y-60892000D01*
X154067000Y-60892000D01*
X154067000Y-60912000D01*
X153813000Y-60912000D01*
X153813000Y-60892000D01*
X153793000Y-60892000D01*
X153793000Y-60638000D01*
X153813000Y-60638000D01*
X153813000Y-60618000D01*
X154067000Y-60618000D01*
X154067000Y-60638000D01*
X155141250Y-60638000D01*
X155300000Y-60479250D01*
X155303072Y-60177500D01*
X155290812Y-60053018D01*
X155254502Y-59933320D01*
X155195537Y-59823006D01*
X155116185Y-59726315D01*
X155114583Y-59725000D01*
X155311939Y-59725000D01*
X155511898Y-59685226D01*
X155700256Y-59607205D01*
X155869774Y-59493937D01*
X156013937Y-59349774D01*
X156127205Y-59180256D01*
X156205226Y-58991898D01*
X156245000Y-58791939D01*
X156245000Y-58588061D01*
X156205226Y-58388102D01*
X156127205Y-58199744D01*
X156013937Y-58030226D01*
X155869774Y-57886063D01*
X155700256Y-57772795D01*
X155511898Y-57694774D01*
X155311939Y-57655000D01*
X155108061Y-57655000D01*
X154987460Y-57678989D01*
X154908386Y-57614095D01*
X154754850Y-57532028D01*
X154588254Y-57481492D01*
X154415000Y-57464428D01*
X153465000Y-57464428D01*
X153291746Y-57481492D01*
X153125150Y-57532028D01*
X152971614Y-57614095D01*
X152837038Y-57724538D01*
X152726595Y-57859114D01*
X152723716Y-57864500D01*
X151703023Y-57864500D01*
X151687929Y-57711255D01*
X151643084Y-57563418D01*
X151590500Y-57465041D01*
X151590500Y-56825550D01*
X151594494Y-56785000D01*
X151583840Y-56676826D01*
X151578556Y-56623174D01*
X151531353Y-56467566D01*
X151454699Y-56324158D01*
X151351541Y-56198459D01*
X151320040Y-56172607D01*
X151107400Y-55959968D01*
X151107392Y-55959958D01*
X150487996Y-55340563D01*
X150615000Y-55353072D01*
X150915000Y-55353072D01*
X151068745Y-55337929D01*
X151216582Y-55293084D01*
X151352829Y-55220258D01*
X151472251Y-55122251D01*
X151570258Y-55002829D01*
X151643084Y-54866582D01*
X151687929Y-54718745D01*
X151703072Y-54565000D01*
X151703072Y-52915000D01*
X151687929Y-52761255D01*
X151646792Y-52625641D01*
X153109361Y-51163072D01*
X153177500Y-51163072D01*
X153350754Y-51146008D01*
X153517350Y-51095472D01*
X153670886Y-51013405D01*
X153805462Y-50902962D01*
X153915905Y-50768386D01*
X153997972Y-50614850D01*
X154048508Y-50448254D01*
X154065572Y-50275000D01*
X154065572Y-49325000D01*
X154048508Y-49151746D01*
X153997972Y-48985150D01*
X153915905Y-48831614D01*
X153805462Y-48697038D01*
X153670886Y-48586595D01*
X153517350Y-48504528D01*
X153350754Y-48453992D01*
X153177500Y-48436928D01*
X152502500Y-48436928D01*
X152329246Y-48453992D01*
X152162650Y-48504528D01*
X152009114Y-48586595D01*
X151874538Y-48697038D01*
X151802500Y-48784817D01*
X151730462Y-48697038D01*
X151595886Y-48586595D01*
X151442350Y-48504528D01*
X151275754Y-48453992D01*
X151215490Y-48448057D01*
X150742397Y-47974965D01*
X150716541Y-47943459D01*
X150590842Y-47840301D01*
X150447434Y-47763647D01*
X150291826Y-47716444D01*
X150170553Y-47704500D01*
X150170550Y-47704500D01*
X150130000Y-47700506D01*
X150089450Y-47704500D01*
X146995550Y-47704500D01*
X146955000Y-47700506D01*
X146914449Y-47704500D01*
X146914447Y-47704500D01*
X146793174Y-47716444D01*
X146637566Y-47763647D01*
X146494157Y-47840301D01*
X146399958Y-47917608D01*
X146399957Y-47917609D01*
X146368459Y-47943459D01*
X146342610Y-47974956D01*
X145853524Y-48464043D01*
X145701745Y-48478992D01*
X145535149Y-48529528D01*
X145381613Y-48611595D01*
X145247038Y-48722038D01*
X145136595Y-48856613D01*
X145054528Y-49010149D01*
X145003992Y-49176745D01*
X144986928Y-49349999D01*
X144986928Y-50250001D01*
X145003992Y-50423255D01*
X145054528Y-50589851D01*
X145136595Y-50743387D01*
X145247038Y-50877962D01*
X145381613Y-50988405D01*
X145535149Y-51070472D01*
X145701745Y-51121008D01*
X145853525Y-51135957D01*
X146844495Y-52126928D01*
X146805000Y-52126928D01*
X146651255Y-52142071D01*
X146503418Y-52186916D01*
X146367171Y-52259742D01*
X146320000Y-52298454D01*
X146272829Y-52259742D01*
X146136582Y-52186916D01*
X145988745Y-52142071D01*
X145835000Y-52126928D01*
X145535000Y-52126928D01*
X145381255Y-52142071D01*
X145233418Y-52186916D01*
X145097171Y-52259742D01*
X145050000Y-52298454D01*
X145002829Y-52259742D01*
X144866582Y-52186916D01*
X144718745Y-52142071D01*
X144565000Y-52126928D01*
X144265000Y-52126928D01*
X144111255Y-52142071D01*
X143963418Y-52186916D01*
X143829064Y-52258730D01*
X143799494Y-52234463D01*
X143689180Y-52175498D01*
X143569482Y-52139188D01*
X143445000Y-52126928D01*
X143430750Y-52130000D01*
X143272000Y-52288750D01*
X143272000Y-53613000D01*
X143292000Y-53613000D01*
X143292000Y-53867000D01*
X143272000Y-53867000D01*
X143272000Y-55191250D01*
X143430750Y-55350000D01*
X143445000Y-55353072D01*
X143569482Y-55340812D01*
X143689180Y-55304502D01*
X143702166Y-55297560D01*
X143725301Y-55340842D01*
X143735423Y-55353175D01*
X143828460Y-55466541D01*
X143859961Y-55492393D01*
X144437610Y-56070044D01*
X144463459Y-56101541D01*
X144494955Y-56127389D01*
X144494958Y-56127392D01*
X144589157Y-56204699D01*
X144700105Y-56264002D01*
X144732566Y-56281353D01*
X144888174Y-56328556D01*
X145009447Y-56340500D01*
X145009449Y-56340500D01*
X145050000Y-56344494D01*
X145090550Y-56340500D01*
X145644447Y-56340500D01*
X145685000Y-56344494D01*
X145725553Y-56340500D01*
X146914447Y-56340500D01*
X146955000Y-56344494D01*
X146995553Y-56340500D01*
X149153067Y-56340500D01*
X149939500Y-57126934D01*
X149939500Y-57134768D01*
X149798745Y-57092071D01*
X149645000Y-57076928D01*
X149345000Y-57076928D01*
X149191255Y-57092071D01*
X149043418Y-57136916D01*
X148909064Y-57208730D01*
X148879494Y-57184463D01*
X148769180Y-57125498D01*
X148649482Y-57089188D01*
X148525000Y-57076928D01*
X148510750Y-57080000D01*
X148352000Y-57238750D01*
X148352000Y-58563000D01*
X148372000Y-58563000D01*
X148372000Y-58817000D01*
X148352000Y-58817000D01*
X148352000Y-58837000D01*
X148098000Y-58837000D01*
X148098000Y-58817000D01*
X148078000Y-58817000D01*
X148078000Y-58563000D01*
X148098000Y-58563000D01*
X148098000Y-57238750D01*
X147939250Y-57080000D01*
X147925000Y-57076928D01*
X147800518Y-57089188D01*
X147680820Y-57125498D01*
X147570506Y-57184463D01*
X147540936Y-57208730D01*
X147406582Y-57136916D01*
X147258745Y-57092071D01*
X147105000Y-57076928D01*
X146805000Y-57076928D01*
X146651255Y-57092071D01*
X146503418Y-57136916D01*
X146367171Y-57209742D01*
X146320000Y-57248454D01*
X146272829Y-57209742D01*
X146136582Y-57136916D01*
X145988745Y-57092071D01*
X145835000Y-57076928D01*
X145535000Y-57076928D01*
X145381255Y-57092071D01*
X145233418Y-57136916D01*
X145097171Y-57209742D01*
X145050000Y-57248454D01*
X145002829Y-57209742D01*
X144866582Y-57136916D01*
X144718745Y-57092071D01*
X144565000Y-57076928D01*
X144265000Y-57076928D01*
X144111255Y-57092071D01*
X143963418Y-57136916D01*
X143829064Y-57208730D01*
X143799494Y-57184463D01*
X143689180Y-57125498D01*
X143569482Y-57089188D01*
X143445000Y-57076928D01*
X143430750Y-57080000D01*
X143272000Y-57238750D01*
X143272000Y-58563000D01*
X143292000Y-58563000D01*
X143292000Y-58817000D01*
X143272000Y-58817000D01*
X143272000Y-58837000D01*
X143018000Y-58837000D01*
X143018000Y-58817000D01*
X142368750Y-58817000D01*
X142210000Y-58975750D01*
X142207260Y-59590586D01*
X142157205Y-59469744D01*
X142043937Y-59300226D01*
X141899774Y-59156063D01*
X141730256Y-59042795D01*
X141541898Y-58964774D01*
X141341939Y-58925000D01*
X141138061Y-58925000D01*
X140938102Y-58964774D01*
X140749744Y-59042795D01*
X140580226Y-59156063D01*
X140436063Y-59300226D01*
X140322795Y-59469744D01*
X140244774Y-59658102D01*
X140205000Y-59858061D01*
X140205000Y-60061939D01*
X140238039Y-60228039D01*
X140071939Y-60195000D01*
X139868061Y-60195000D01*
X139668102Y-60234774D01*
X139479744Y-60312795D01*
X139310226Y-60426063D01*
X139166063Y-60570226D01*
X139052795Y-60739744D01*
X138974774Y-60928102D01*
X138935000Y-61128061D01*
X138935000Y-61331939D01*
X138974774Y-61531898D01*
X139052795Y-61720256D01*
X139105744Y-61799500D01*
X137908298Y-61799500D01*
X137846185Y-61723815D01*
X137749494Y-61644463D01*
X137639180Y-61585498D01*
X137519482Y-61549188D01*
X137395000Y-61536928D01*
X136195000Y-61536928D01*
X136070518Y-61549188D01*
X135950820Y-61585498D01*
X135840506Y-61644463D01*
X135743815Y-61723815D01*
X135664463Y-61820506D01*
X135605498Y-61930820D01*
X135569188Y-62050518D01*
X135556928Y-62175000D01*
X135556928Y-62944500D01*
X133810500Y-62944500D01*
X133810500Y-62476417D01*
X133928387Y-62413405D01*
X134062962Y-62302962D01*
X134173405Y-62168387D01*
X134255472Y-62014851D01*
X134306008Y-61848255D01*
X134323072Y-61675001D01*
X134323072Y-60974999D01*
X134306008Y-60801745D01*
X134255472Y-60635149D01*
X134173405Y-60481613D01*
X134062962Y-60347038D01*
X134036109Y-60325000D01*
X134062962Y-60302962D01*
X134173405Y-60168387D01*
X134182966Y-60150500D01*
X135681702Y-60150500D01*
X135743815Y-60226185D01*
X135840506Y-60305537D01*
X135950820Y-60364502D01*
X136070518Y-60400812D01*
X136195000Y-60413072D01*
X137395000Y-60413072D01*
X137519482Y-60400812D01*
X137639180Y-60364502D01*
X137749494Y-60305537D01*
X137846185Y-60226185D01*
X137925537Y-60129494D01*
X137984502Y-60019180D01*
X138020812Y-59899482D01*
X138033072Y-59775000D01*
X138033072Y-58875000D01*
X138020812Y-58750518D01*
X137984502Y-58630820D01*
X137925537Y-58520506D01*
X137846185Y-58423815D01*
X137749494Y-58344463D01*
X137639180Y-58285498D01*
X137620500Y-58279831D01*
X137620500Y-57715000D01*
X142206928Y-57715000D01*
X142210000Y-58404250D01*
X142368750Y-58563000D01*
X143018000Y-58563000D01*
X143018000Y-57238750D01*
X142859250Y-57080000D01*
X142845000Y-57076928D01*
X142720518Y-57089188D01*
X142600820Y-57125498D01*
X142490506Y-57184463D01*
X142393815Y-57263815D01*
X142314463Y-57360506D01*
X142255498Y-57470820D01*
X142219188Y-57590518D01*
X142206928Y-57715000D01*
X137620500Y-57715000D01*
X137620500Y-56731284D01*
X137625886Y-56728405D01*
X137760462Y-56617962D01*
X137870905Y-56483386D01*
X137952972Y-56329850D01*
X138003508Y-56163254D01*
X138020572Y-55990000D01*
X138020572Y-55040000D01*
X138003508Y-54866746D01*
X137957477Y-54715000D01*
X142206928Y-54715000D01*
X142219188Y-54839482D01*
X142255498Y-54959180D01*
X142314463Y-55069494D01*
X142393815Y-55166185D01*
X142490506Y-55245537D01*
X142600820Y-55304502D01*
X142720518Y-55340812D01*
X142845000Y-55353072D01*
X142859250Y-55350000D01*
X143018000Y-55191250D01*
X143018000Y-53867000D01*
X142368750Y-53867000D01*
X142210000Y-54025750D01*
X142206928Y-54715000D01*
X137957477Y-54715000D01*
X137952972Y-54700150D01*
X137870905Y-54546614D01*
X137760462Y-54412038D01*
X137625886Y-54301595D01*
X137472350Y-54219528D01*
X137305754Y-54168992D01*
X137132500Y-54151928D01*
X136457500Y-54151928D01*
X136284246Y-54168992D01*
X136117650Y-54219528D01*
X135964114Y-54301595D01*
X135829538Y-54412038D01*
X135757500Y-54499817D01*
X135685462Y-54412038D01*
X135550886Y-54301595D01*
X135545500Y-54298716D01*
X135545500Y-52765000D01*
X142206928Y-52765000D01*
X142210000Y-53454250D01*
X142368750Y-53613000D01*
X143018000Y-53613000D01*
X143018000Y-52288750D01*
X142859250Y-52130000D01*
X142845000Y-52126928D01*
X142720518Y-52139188D01*
X142600820Y-52175498D01*
X142490506Y-52234463D01*
X142393815Y-52313815D01*
X142314463Y-52410506D01*
X142255498Y-52520820D01*
X142219188Y-52640518D01*
X142206928Y-52765000D01*
X135545500Y-52765000D01*
X135545500Y-51511431D01*
X136071554Y-51293533D01*
X136699670Y-50873839D01*
X137233839Y-50339670D01*
X137653533Y-49711554D01*
X137942623Y-49013628D01*
X138090000Y-48272715D01*
X138090000Y-47517285D01*
X137942623Y-46776372D01*
X137653533Y-46078446D01*
X137233839Y-45450330D01*
X136699670Y-44916161D01*
X136071554Y-44496467D01*
X135373628Y-44207377D01*
X134632715Y-44060000D01*
X133877285Y-44060000D01*
X133136372Y-44207377D01*
X132438446Y-44496467D01*
X131810330Y-44916161D01*
X131276161Y-45450330D01*
X130856467Y-46078446D01*
X130680000Y-46504476D01*
X130680000Y-44347279D01*
X130689580Y-44249576D01*
X130708580Y-44186644D01*
X130739445Y-44128595D01*
X130780989Y-44077657D01*
X130831644Y-44035752D01*
X130889471Y-44004485D01*
X130952272Y-43985044D01*
X131047835Y-43975000D01*
X163987721Y-43975000D01*
X164085424Y-43984580D01*
%TA.AperFunction,Conductor*%
D23*
G36*
X164085424Y-43984580D02*
G01*
X164148356Y-44003580D01*
X164206405Y-44034445D01*
X164257343Y-44075989D01*
X164299248Y-44126644D01*
X164330515Y-44184471D01*
X164349956Y-44247272D01*
X164360000Y-44342835D01*
X164360000Y-46166485D01*
X164323533Y-46078446D01*
X163903839Y-45450330D01*
X163369670Y-44916161D01*
X162741554Y-44496467D01*
X162043628Y-44207377D01*
X161302715Y-44060000D01*
X160547285Y-44060000D01*
X159806372Y-44207377D01*
X159108446Y-44496467D01*
X158480330Y-44916161D01*
X157946161Y-45450330D01*
X157526467Y-46078446D01*
X157237377Y-46776372D01*
X157090000Y-47517285D01*
X157090000Y-48272715D01*
X157237377Y-49013628D01*
X157526467Y-49711554D01*
X157946161Y-50339670D01*
X158480330Y-50873839D01*
X159108446Y-51293533D01*
X159634501Y-51511432D01*
X159634500Y-54298716D01*
X159629114Y-54301595D01*
X159494538Y-54412038D01*
X159422500Y-54499817D01*
X159350462Y-54412038D01*
X159215886Y-54301595D01*
X159062350Y-54219528D01*
X158895754Y-54168992D01*
X158722500Y-54151928D01*
X158047500Y-54151928D01*
X157874246Y-54168992D01*
X157707650Y-54219528D01*
X157554114Y-54301595D01*
X157419538Y-54412038D01*
X157309095Y-54546614D01*
X157227028Y-54700150D01*
X157176492Y-54866746D01*
X157159428Y-55040000D01*
X157159428Y-55990000D01*
X157176492Y-56163254D01*
X157227028Y-56329850D01*
X157309095Y-56483386D01*
X157419538Y-56617962D01*
X157554114Y-56728405D01*
X157559500Y-56731284D01*
X157559501Y-58279831D01*
X157540820Y-58285498D01*
X157430506Y-58344463D01*
X157333815Y-58423815D01*
X157254463Y-58520506D01*
X157195498Y-58630820D01*
X157159188Y-58750518D01*
X157146928Y-58875000D01*
X157146928Y-59775000D01*
X157159188Y-59899482D01*
X157195498Y-60019180D01*
X157254463Y-60129494D01*
X157333815Y-60226185D01*
X157430506Y-60305537D01*
X157540820Y-60364502D01*
X157660518Y-60400812D01*
X157785000Y-60413072D01*
X158985000Y-60413072D01*
X159109482Y-60400812D01*
X159229180Y-60364502D01*
X159339494Y-60305537D01*
X159436185Y-60226185D01*
X159498298Y-60150500D01*
X160997034Y-60150500D01*
X161006595Y-60168387D01*
X161117038Y-60302962D01*
X161143891Y-60325000D01*
X161117038Y-60347038D01*
X161006595Y-60481613D01*
X160924528Y-60635149D01*
X160873992Y-60801745D01*
X160856928Y-60974999D01*
X160856928Y-61675001D01*
X160873992Y-61848255D01*
X160924528Y-62014851D01*
X161006595Y-62168387D01*
X161117038Y-62302962D01*
X161251613Y-62413405D01*
X161369500Y-62476417D01*
X161369501Y-62944500D01*
X159623072Y-62944500D01*
X159623072Y-62175000D01*
X159610812Y-62050518D01*
X159574502Y-61930820D01*
X159515537Y-61820506D01*
X159436185Y-61723815D01*
X159339494Y-61644463D01*
X159229180Y-61585498D01*
X159109482Y-61549188D01*
X158985000Y-61536928D01*
X157785000Y-61536928D01*
X157660518Y-61549188D01*
X157540820Y-61585498D01*
X157430506Y-61644463D01*
X157333815Y-61723815D01*
X157271702Y-61799500D01*
X155119620Y-61799500D01*
X155195537Y-61706994D01*
X155254502Y-61596680D01*
X155290812Y-61476982D01*
X155303072Y-61352500D01*
X155300000Y-61050750D01*
X155141250Y-60892000D01*
X154067000Y-60892000D01*
X154067000Y-60912000D01*
X153813000Y-60912000D01*
X153813000Y-60892000D01*
X153793000Y-60892000D01*
X153793000Y-60638000D01*
X153813000Y-60638000D01*
X153813000Y-60618000D01*
X154067000Y-60618000D01*
X154067000Y-60638000D01*
X155141250Y-60638000D01*
X155300000Y-60479250D01*
X155303072Y-60177500D01*
X155290812Y-60053018D01*
X155254502Y-59933320D01*
X155195537Y-59823006D01*
X155116185Y-59726315D01*
X155114583Y-59725000D01*
X155311939Y-59725000D01*
X155511898Y-59685226D01*
X155700256Y-59607205D01*
X155869774Y-59493937D01*
X156013937Y-59349774D01*
X156127205Y-59180256D01*
X156205226Y-58991898D01*
X156245000Y-58791939D01*
X156245000Y-58588061D01*
X156205226Y-58388102D01*
X156127205Y-58199744D01*
X156013937Y-58030226D01*
X155869774Y-57886063D01*
X155700256Y-57772795D01*
X155511898Y-57694774D01*
X155311939Y-57655000D01*
X155108061Y-57655000D01*
X154987460Y-57678989D01*
X154908386Y-57614095D01*
X154754850Y-57532028D01*
X154588254Y-57481492D01*
X154415000Y-57464428D01*
X153465000Y-57464428D01*
X153291746Y-57481492D01*
X153125150Y-57532028D01*
X152971614Y-57614095D01*
X152837038Y-57724538D01*
X152726595Y-57859114D01*
X152723716Y-57864500D01*
X151703023Y-57864500D01*
X151687929Y-57711255D01*
X151643084Y-57563418D01*
X151590500Y-57465041D01*
X151590500Y-56825550D01*
X151594494Y-56785000D01*
X151583840Y-56676826D01*
X151578556Y-56623174D01*
X151531353Y-56467566D01*
X151454699Y-56324158D01*
X151351541Y-56198459D01*
X151320040Y-56172607D01*
X151107400Y-55959968D01*
X151107392Y-55959958D01*
X150487996Y-55340563D01*
X150615000Y-55353072D01*
X150915000Y-55353072D01*
X151068745Y-55337929D01*
X151216582Y-55293084D01*
X151352829Y-55220258D01*
X151472251Y-55122251D01*
X151570258Y-55002829D01*
X151643084Y-54866582D01*
X151687929Y-54718745D01*
X151703072Y-54565000D01*
X151703072Y-52915000D01*
X151687929Y-52761255D01*
X151646792Y-52625641D01*
X153109361Y-51163072D01*
X153177500Y-51163072D01*
X153350754Y-51146008D01*
X153517350Y-51095472D01*
X153670886Y-51013405D01*
X153805462Y-50902962D01*
X153915905Y-50768386D01*
X153997972Y-50614850D01*
X154048508Y-50448254D01*
X154065572Y-50275000D01*
X154065572Y-49325000D01*
X154048508Y-49151746D01*
X153997972Y-48985150D01*
X153915905Y-48831614D01*
X153805462Y-48697038D01*
X153670886Y-48586595D01*
X153517350Y-48504528D01*
X153350754Y-48453992D01*
X153177500Y-48436928D01*
X152502500Y-48436928D01*
X152329246Y-48453992D01*
X152162650Y-48504528D01*
X152009114Y-48586595D01*
X151874538Y-48697038D01*
X151802500Y-48784817D01*
X151730462Y-48697038D01*
X151595886Y-48586595D01*
X151442350Y-48504528D01*
X151275754Y-48453992D01*
X151215490Y-48448057D01*
X150742397Y-47974965D01*
X150716541Y-47943459D01*
X150590842Y-47840301D01*
X150447434Y-47763647D01*
X150291826Y-47716444D01*
X150170553Y-47704500D01*
X150170550Y-47704500D01*
X150130000Y-47700506D01*
X150089450Y-47704500D01*
X146995550Y-47704500D01*
X146955000Y-47700506D01*
X146914449Y-47704500D01*
X146914447Y-47704500D01*
X146793174Y-47716444D01*
X146637566Y-47763647D01*
X146494157Y-47840301D01*
X146399958Y-47917608D01*
X146399957Y-47917609D01*
X146368459Y-47943459D01*
X146342610Y-47974956D01*
X145853524Y-48464043D01*
X145701745Y-48478992D01*
X145535149Y-48529528D01*
X145381613Y-48611595D01*
X145247038Y-48722038D01*
X145136595Y-48856613D01*
X145054528Y-49010149D01*
X145003992Y-49176745D01*
X144986928Y-49349999D01*
X144986928Y-50250001D01*
X145003992Y-50423255D01*
X145054528Y-50589851D01*
X145136595Y-50743387D01*
X145247038Y-50877962D01*
X145381613Y-50988405D01*
X145535149Y-51070472D01*
X145701745Y-51121008D01*
X145853525Y-51135957D01*
X146844495Y-52126928D01*
X146805000Y-52126928D01*
X146651255Y-52142071D01*
X146503418Y-52186916D01*
X146367171Y-52259742D01*
X146320000Y-52298454D01*
X146272829Y-52259742D01*
X146136582Y-52186916D01*
X145988745Y-52142071D01*
X145835000Y-52126928D01*
X145535000Y-52126928D01*
X145381255Y-52142071D01*
X145233418Y-52186916D01*
X145097171Y-52259742D01*
X145050000Y-52298454D01*
X145002829Y-52259742D01*
X144866582Y-52186916D01*
X144718745Y-52142071D01*
X144565000Y-52126928D01*
X144265000Y-52126928D01*
X144111255Y-52142071D01*
X143963418Y-52186916D01*
X143829064Y-52258730D01*
X143799494Y-52234463D01*
X143689180Y-52175498D01*
X143569482Y-52139188D01*
X143445000Y-52126928D01*
X143430750Y-52130000D01*
X143272000Y-52288750D01*
X143272000Y-53613000D01*
X143292000Y-53613000D01*
X143292000Y-53867000D01*
X143272000Y-53867000D01*
X143272000Y-55191250D01*
X143430750Y-55350000D01*
X143445000Y-55353072D01*
X143569482Y-55340812D01*
X143689180Y-55304502D01*
X143702166Y-55297560D01*
X143725301Y-55340842D01*
X143735423Y-55353175D01*
X143828460Y-55466541D01*
X143859961Y-55492393D01*
X144437610Y-56070044D01*
X144463459Y-56101541D01*
X144494955Y-56127389D01*
X144494958Y-56127392D01*
X144589157Y-56204699D01*
X144700105Y-56264002D01*
X144732566Y-56281353D01*
X144888174Y-56328556D01*
X145009447Y-56340500D01*
X145009449Y-56340500D01*
X145050000Y-56344494D01*
X145090550Y-56340500D01*
X145644447Y-56340500D01*
X145685000Y-56344494D01*
X145725553Y-56340500D01*
X146914447Y-56340500D01*
X146955000Y-56344494D01*
X146995553Y-56340500D01*
X149153067Y-56340500D01*
X149939500Y-57126934D01*
X149939500Y-57134768D01*
X149798745Y-57092071D01*
X149645000Y-57076928D01*
X149345000Y-57076928D01*
X149191255Y-57092071D01*
X149043418Y-57136916D01*
X148909064Y-57208730D01*
X148879494Y-57184463D01*
X148769180Y-57125498D01*
X148649482Y-57089188D01*
X148525000Y-57076928D01*
X148510750Y-57080000D01*
X148352000Y-57238750D01*
X148352000Y-58563000D01*
X148372000Y-58563000D01*
X148372000Y-58817000D01*
X148352000Y-58817000D01*
X148352000Y-58837000D01*
X148098000Y-58837000D01*
X148098000Y-58817000D01*
X148078000Y-58817000D01*
X148078000Y-58563000D01*
X148098000Y-58563000D01*
X148098000Y-57238750D01*
X147939250Y-57080000D01*
X147925000Y-57076928D01*
X147800518Y-57089188D01*
X147680820Y-57125498D01*
X147570506Y-57184463D01*
X147540936Y-57208730D01*
X147406582Y-57136916D01*
X147258745Y-57092071D01*
X147105000Y-57076928D01*
X146805000Y-57076928D01*
X146651255Y-57092071D01*
X146503418Y-57136916D01*
X146367171Y-57209742D01*
X146320000Y-57248454D01*
X146272829Y-57209742D01*
X146136582Y-57136916D01*
X145988745Y-57092071D01*
X145835000Y-57076928D01*
X145535000Y-57076928D01*
X145381255Y-57092071D01*
X145233418Y-57136916D01*
X145097171Y-57209742D01*
X145050000Y-57248454D01*
X145002829Y-57209742D01*
X144866582Y-57136916D01*
X144718745Y-57092071D01*
X144565000Y-57076928D01*
X144265000Y-57076928D01*
X144111255Y-57092071D01*
X143963418Y-57136916D01*
X143829064Y-57208730D01*
X143799494Y-57184463D01*
X143689180Y-57125498D01*
X143569482Y-57089188D01*
X143445000Y-57076928D01*
X143430750Y-57080000D01*
X143272000Y-57238750D01*
X143272000Y-58563000D01*
X143292000Y-58563000D01*
X143292000Y-58817000D01*
X143272000Y-58817000D01*
X143272000Y-58837000D01*
X143018000Y-58837000D01*
X143018000Y-58817000D01*
X142368750Y-58817000D01*
X142210000Y-58975750D01*
X142207260Y-59590586D01*
X142157205Y-59469744D01*
X142043937Y-59300226D01*
X141899774Y-59156063D01*
X141730256Y-59042795D01*
X141541898Y-58964774D01*
X141341939Y-58925000D01*
X141138061Y-58925000D01*
X140938102Y-58964774D01*
X140749744Y-59042795D01*
X140580226Y-59156063D01*
X140436063Y-59300226D01*
X140322795Y-59469744D01*
X140244774Y-59658102D01*
X140205000Y-59858061D01*
X140205000Y-60061939D01*
X140238039Y-60228039D01*
X140071939Y-60195000D01*
X139868061Y-60195000D01*
X139668102Y-60234774D01*
X139479744Y-60312795D01*
X139310226Y-60426063D01*
X139166063Y-60570226D01*
X139052795Y-60739744D01*
X138974774Y-60928102D01*
X138935000Y-61128061D01*
X138935000Y-61331939D01*
X138974774Y-61531898D01*
X139052795Y-61720256D01*
X139105744Y-61799500D01*
X137908298Y-61799500D01*
X137846185Y-61723815D01*
X137749494Y-61644463D01*
X137639180Y-61585498D01*
X137519482Y-61549188D01*
X137395000Y-61536928D01*
X136195000Y-61536928D01*
X136070518Y-61549188D01*
X135950820Y-61585498D01*
X135840506Y-61644463D01*
X135743815Y-61723815D01*
X135664463Y-61820506D01*
X135605498Y-61930820D01*
X135569188Y-62050518D01*
X135556928Y-62175000D01*
X135556928Y-62944500D01*
X133810500Y-62944500D01*
X133810500Y-62476417D01*
X133928387Y-62413405D01*
X134062962Y-62302962D01*
X134173405Y-62168387D01*
X134255472Y-62014851D01*
X134306008Y-61848255D01*
X134323072Y-61675001D01*
X134323072Y-60974999D01*
X134306008Y-60801745D01*
X134255472Y-60635149D01*
X134173405Y-60481613D01*
X134062962Y-60347038D01*
X134036109Y-60325000D01*
X134062962Y-60302962D01*
X134173405Y-60168387D01*
X134182966Y-60150500D01*
X135681702Y-60150500D01*
X135743815Y-60226185D01*
X135840506Y-60305537D01*
X135950820Y-60364502D01*
X136070518Y-60400812D01*
X136195000Y-60413072D01*
X137395000Y-60413072D01*
X137519482Y-60400812D01*
X137639180Y-60364502D01*
X137749494Y-60305537D01*
X137846185Y-60226185D01*
X137925537Y-60129494D01*
X137984502Y-60019180D01*
X138020812Y-59899482D01*
X138033072Y-59775000D01*
X138033072Y-58875000D01*
X138020812Y-58750518D01*
X137984502Y-58630820D01*
X137925537Y-58520506D01*
X137846185Y-58423815D01*
X137749494Y-58344463D01*
X137639180Y-58285498D01*
X137620500Y-58279831D01*
X137620500Y-57715000D01*
X142206928Y-57715000D01*
X142210000Y-58404250D01*
X142368750Y-58563000D01*
X143018000Y-58563000D01*
X143018000Y-57238750D01*
X142859250Y-57080000D01*
X142845000Y-57076928D01*
X142720518Y-57089188D01*
X142600820Y-57125498D01*
X142490506Y-57184463D01*
X142393815Y-57263815D01*
X142314463Y-57360506D01*
X142255498Y-57470820D01*
X142219188Y-57590518D01*
X142206928Y-57715000D01*
X137620500Y-57715000D01*
X137620500Y-56731284D01*
X137625886Y-56728405D01*
X137760462Y-56617962D01*
X137870905Y-56483386D01*
X137952972Y-56329850D01*
X138003508Y-56163254D01*
X138020572Y-55990000D01*
X138020572Y-55040000D01*
X138003508Y-54866746D01*
X137957477Y-54715000D01*
X142206928Y-54715000D01*
X142219188Y-54839482D01*
X142255498Y-54959180D01*
X142314463Y-55069494D01*
X142393815Y-55166185D01*
X142490506Y-55245537D01*
X142600820Y-55304502D01*
X142720518Y-55340812D01*
X142845000Y-55353072D01*
X142859250Y-55350000D01*
X143018000Y-55191250D01*
X143018000Y-53867000D01*
X142368750Y-53867000D01*
X142210000Y-54025750D01*
X142206928Y-54715000D01*
X137957477Y-54715000D01*
X137952972Y-54700150D01*
X137870905Y-54546614D01*
X137760462Y-54412038D01*
X137625886Y-54301595D01*
X137472350Y-54219528D01*
X137305754Y-54168992D01*
X137132500Y-54151928D01*
X136457500Y-54151928D01*
X136284246Y-54168992D01*
X136117650Y-54219528D01*
X135964114Y-54301595D01*
X135829538Y-54412038D01*
X135757500Y-54499817D01*
X135685462Y-54412038D01*
X135550886Y-54301595D01*
X135545500Y-54298716D01*
X135545500Y-52765000D01*
X142206928Y-52765000D01*
X142210000Y-53454250D01*
X142368750Y-53613000D01*
X143018000Y-53613000D01*
X143018000Y-52288750D01*
X142859250Y-52130000D01*
X142845000Y-52126928D01*
X142720518Y-52139188D01*
X142600820Y-52175498D01*
X142490506Y-52234463D01*
X142393815Y-52313815D01*
X142314463Y-52410506D01*
X142255498Y-52520820D01*
X142219188Y-52640518D01*
X142206928Y-52765000D01*
X135545500Y-52765000D01*
X135545500Y-51511431D01*
X136071554Y-51293533D01*
X136699670Y-50873839D01*
X137233839Y-50339670D01*
X137653533Y-49711554D01*
X137942623Y-49013628D01*
X138090000Y-48272715D01*
X138090000Y-47517285D01*
X137942623Y-46776372D01*
X137653533Y-46078446D01*
X137233839Y-45450330D01*
X136699670Y-44916161D01*
X136071554Y-44496467D01*
X135373628Y-44207377D01*
X134632715Y-44060000D01*
X133877285Y-44060000D01*
X133136372Y-44207377D01*
X132438446Y-44496467D01*
X131810330Y-44916161D01*
X131276161Y-45450330D01*
X130856467Y-46078446D01*
X130680000Y-46504476D01*
X130680000Y-44347279D01*
X130689580Y-44249576D01*
X130708580Y-44186644D01*
X130739445Y-44128595D01*
X130780989Y-44077657D01*
X130831644Y-44035752D01*
X130889471Y-44004485D01*
X130952272Y-43985044D01*
X131047835Y-43975000D01*
X163987721Y-43975000D01*
X164085424Y-43984580D01*
G37*
%TD.AperFunction*%
%TD*%
M02*
