M48
; DRILL file {KiCad (5.1.10)-1} date 05/18/22 17:58:08
; FORMAT={-:-/ absolute / metric / decimal}
; #@! TF.CreationDate,2022-05-18T17:58:08+01:00
; #@! TF.GenerationSoftware,Kicad,Pcbnew,(5.1.10)-1
; #@! TF.FileFunction,Plated,1,2,PTH
FMAT,2
METRIC
T1C0.400
T2C0.500
T3C0.900
T4C1.016
T5C1.500
T6C1.700
T7C3.200
%
G90
G05
T1
X131.064Y-44.45
X131.318Y-76.454
X131.318Y-108.204
X131.318Y-117.856
X131.318Y-126.492
X131.318Y-148.336
X131.572Y-63.5
X131.572Y-68.326
X131.572Y-85.344
X131.572Y-92.456
X131.572Y-99.568
X131.826Y-56.642
X132.08Y-52.324
X134.225Y-135.783
X134.366Y-133.604
X134.874Y-57.658
X135.075Y-131.873
X135.128Y-60.96
X135.128Y-155.956
X135.7Y-78.901
X135.7Y-80.932
X135.7Y-82.963
X135.7Y-84.993
X135.7Y-87.024
X135.714Y-76.87
X135.89Y-74.93
X136.144Y-89.154
X136.361Y-130.311
X136.5Y-72.901
X136.825Y-135.783
X137.039Y-133.777
X137.271Y-90.595
X137.335Y-71.052
X137.694Y-128.789
X138.146Y-92.312
X138.146Y-98.404
X138.146Y-100.435
X138.146Y-102.466
X138.146Y-104.497
X138.146Y-106.528
X138.146Y-108.559
X138.146Y-110.589
X138.146Y-112.62
X138.146Y-114.651
X138.146Y-116.682
X138.146Y-118.713
X138.146Y-120.744
X138.146Y-124.805
X138.146Y-126.836
X138.207Y-132.141
X138.3Y-78.901
X138.3Y-80.932
X138.3Y-82.963
X138.3Y-84.993
X138.3Y-87.024
X138.43Y-76.708
X138.44Y-69.351
X138.617Y-74.865
X138.938Y-152.4
X139.117Y-88.765
X139.289Y-72.952
X139.585Y-130.652
X139.7Y-53.594
X139.7Y-58.166
X139.785Y-67.832
X139.97Y-61.23
X139.97Y-63.77
X140.308Y-71.198
X140.462Y-90.17
X140.462Y-129.032
X140.716Y-48.768
X140.746Y-92.312
X140.746Y-94.343
X140.746Y-96.374
X140.746Y-98.404
X140.746Y-100.435
X140.746Y-102.466
X140.746Y-104.497
X140.746Y-106.528
X140.746Y-108.559
X140.746Y-110.589
X140.746Y-112.62
X140.746Y-114.651
X140.746Y-116.682
X140.746Y-118.713
X140.746Y-120.744
X140.746Y-122.774
X140.746Y-124.805
X140.746Y-126.836
X140.97Y-44.45
X141.24Y-59.96
X141.732Y-65.786
X141.986Y-136.652
X142.24Y-147.828
X142.24Y-159.512
X145.288Y-77.724
X145.542Y-83.82
X145.796Y-90.424
X145.796Y-96.774
X146.05Y-102.87
X146.05Y-109.982
X146.304Y-117.602
X146.304Y-127.254
X148.082Y-44.45
X148.082Y-56.642
X150.765Y-61.23
X150.876Y-127.254
X150.876Y-136.652
X151.13Y-74.93
X151.384Y-96.774
X151.384Y-102.87
X151.384Y-117.856
X151.638Y-90.678
X151.638Y-147.828
X152.035Y-64.405
X152.67Y-61.834
X152.908Y-56.134
X152.908Y-66.802
X152.908Y-159.512
X153.305Y-63.77
X154.575Y-63.77
X155.194Y-44.45
X155.194Y-53.594
X155.194Y-71.628
X155.21Y-58.69
X155.702Y-152.146
X157.48Y-60.96
X157.734Y-77.978
X157.734Y-84.328
X157.988Y-90.932
X158.242Y-97.028
X158.242Y-103.124
X158.496Y-118.11
X158.75Y-67.818
X158.75Y-127.508
X159.004Y-136.652
X159.258Y-147.574
X159.258Y-156.464
X160.274Y-60.96
X161.544Y-69.342
X162.814Y-72.136
X163.83Y-44.45
X163.83Y-127.508
X163.83Y-147.828
X164.084Y-78.232
X164.084Y-84.328
X164.084Y-91.186
X164.084Y-97.028
X164.084Y-103.124
X164.084Y-110.49
X164.084Y-118.364
X164.084Y-136.906
T2
X131.855Y-47.895
X132.558Y-46.198
X132.558Y-49.592
X134.255Y-45.495
X134.255Y-50.295
X135.952Y-46.198
X135.952Y-49.592
X136.655Y-47.895
X145.19Y-141.315
X145.19Y-156.315
X145.893Y-139.618
X145.893Y-143.012
X145.893Y-154.618
X145.893Y-158.012
X147.59Y-138.915
X147.59Y-143.715
X147.59Y-153.915
X147.59Y-158.715
X149.287Y-139.618
X149.287Y-143.012
X149.287Y-154.618
X149.287Y-158.012
X149.99Y-141.315
X149.99Y-156.315
X158.525Y-47.895
X159.228Y-46.198
X159.228Y-49.592
X160.925Y-45.495
X160.925Y-50.295
X162.622Y-46.198
X162.622Y-49.592
X163.325Y-47.895
T3
X142.955Y-69.36
X142.955Y-72.66
X144.955Y-69.36
X144.955Y-72.66
X148.955Y-69.36
X148.955Y-72.66
X150.955Y-69.36
X150.955Y-72.66
T4
X140.265Y-83.765
X152.965Y-83.765
T5
X135.525Y-141.875
T6
X132.985Y-139.335
X132.985Y-144.415
X138.065Y-139.335
X138.065Y-144.415
T7
X134.255Y-47.895
X147.59Y-141.315
X147.59Y-156.315
X160.925Y-47.895
T0
M30
