%TF.GenerationSoftware,KiCad,Pcbnew,(5.1.10)-1*%
%TF.CreationDate,2022-05-18T17:56:24+01:00*%
%TF.ProjectId,handifinder,68616e64-6966-4696-9e64-65722e6b6963,rev?*%
%TF.SameCoordinates,Original*%
%TF.FileFunction,Soldermask,Top*%
%TF.FilePolarity,Negative*%
%FSLAX46Y46*%
G04 Gerber Fmt 4.6, Leading zero omitted, Abs format (unit mm)*
G04 Created by KiCad (PCBNEW (5.1.10)-1) date 2022-05-18 17:56:24*
%MOMM*%
%LPD*%
G01*
G04 APERTURE LIST*
%ADD10C,3.435000*%
%ADD11C,2.000000*%
%ADD12C,2.050000*%
%ADD13C,2.250000*%
%ADD14R,1.200000X0.900000*%
%ADD15C,6.400000*%
%ADD16C,0.800000*%
%ADD17C,1.450000*%
%ADD18C,2.500000*%
G04 APERTURE END LIST*
D10*
%TO.C,BT1*%
X157875000Y-108855000D03*
X135525000Y-122335000D03*
X135525000Y-95365000D03*
D11*
X152965000Y-83765000D03*
X140265000Y-83765000D03*
%TD*%
D12*
%TO.C,J1*%
X135525000Y-141875000D03*
D13*
X138065000Y-144415000D03*
X138065000Y-139335000D03*
X132985000Y-139335000D03*
X132985000Y-144415000D03*
%TD*%
D14*
%TO.C,D1*%
X136795000Y-59325000D03*
X136795000Y-62625000D03*
%TD*%
%TO.C,C1*%
G36*
G01*
X151352500Y-49325000D02*
X151352500Y-50275000D01*
G75*
G02*
X151102500Y-50525000I-250000J0D01*
G01*
X150427500Y-50525000D01*
G75*
G02*
X150177500Y-50275000I0J250000D01*
G01*
X150177500Y-49325000D01*
G75*
G02*
X150427500Y-49075000I250000J0D01*
G01*
X151102500Y-49075000D01*
G75*
G02*
X151352500Y-49325000I0J-250000D01*
G01*
G37*
G36*
G01*
X153427500Y-49325000D02*
X153427500Y-50275000D01*
G75*
G02*
X153177500Y-50525000I-250000J0D01*
G01*
X152502500Y-50525000D01*
G75*
G02*
X152252500Y-50275000I0J250000D01*
G01*
X152252500Y-49325000D01*
G75*
G02*
X152502500Y-49075000I250000J0D01*
G01*
X153177500Y-49075000D01*
G75*
G02*
X153427500Y-49325000I0J-250000D01*
G01*
G37*
%TD*%
%TO.C,C2*%
G36*
G01*
X153465000Y-60177500D02*
X154415000Y-60177500D01*
G75*
G02*
X154665000Y-60427500I0J-250000D01*
G01*
X154665000Y-61102500D01*
G75*
G02*
X154415000Y-61352500I-250000J0D01*
G01*
X153465000Y-61352500D01*
G75*
G02*
X153215000Y-61102500I0J250000D01*
G01*
X153215000Y-60427500D01*
G75*
G02*
X153465000Y-60177500I250000J0D01*
G01*
G37*
G36*
G01*
X153465000Y-58102500D02*
X154415000Y-58102500D01*
G75*
G02*
X154665000Y-58352500I0J-250000D01*
G01*
X154665000Y-59027500D01*
G75*
G02*
X154415000Y-59277500I-250000J0D01*
G01*
X153465000Y-59277500D01*
G75*
G02*
X153215000Y-59027500I0J250000D01*
G01*
X153215000Y-58352500D01*
G75*
G02*
X153465000Y-58102500I250000J0D01*
G01*
G37*
%TD*%
%TO.C,C3*%
G36*
G01*
X162782500Y-65200000D02*
X162782500Y-66150000D01*
G75*
G02*
X162532500Y-66400000I-250000J0D01*
G01*
X161857500Y-66400000D01*
G75*
G02*
X161607500Y-66150000I0J250000D01*
G01*
X161607500Y-65200000D01*
G75*
G02*
X161857500Y-64950000I250000J0D01*
G01*
X162532500Y-64950000D01*
G75*
G02*
X162782500Y-65200000I0J-250000D01*
G01*
G37*
G36*
G01*
X160707500Y-65200000D02*
X160707500Y-66150000D01*
G75*
G02*
X160457500Y-66400000I-250000J0D01*
G01*
X159782500Y-66400000D01*
G75*
G02*
X159532500Y-66150000I0J250000D01*
G01*
X159532500Y-65200000D01*
G75*
G02*
X159782500Y-64950000I250000J0D01*
G01*
X160457500Y-64950000D01*
G75*
G02*
X160707500Y-65200000I0J-250000D01*
G01*
G37*
%TD*%
%TO.C,C4*%
G36*
G01*
X134472500Y-66150000D02*
X134472500Y-65200000D01*
G75*
G02*
X134722500Y-64950000I250000J0D01*
G01*
X135397500Y-64950000D01*
G75*
G02*
X135647500Y-65200000I0J-250000D01*
G01*
X135647500Y-66150000D01*
G75*
G02*
X135397500Y-66400000I-250000J0D01*
G01*
X134722500Y-66400000D01*
G75*
G02*
X134472500Y-66150000I0J250000D01*
G01*
G37*
G36*
G01*
X132397500Y-66150000D02*
X132397500Y-65200000D01*
G75*
G02*
X132647500Y-64950000I250000J0D01*
G01*
X133322500Y-64950000D01*
G75*
G02*
X133572500Y-65200000I0J-250000D01*
G01*
X133572500Y-66150000D01*
G75*
G02*
X133322500Y-66400000I-250000J0D01*
G01*
X132647500Y-66400000D01*
G75*
G02*
X132397500Y-66150000I0J250000D01*
G01*
G37*
%TD*%
%TO.C,C5*%
G36*
G01*
X150290000Y-64050000D02*
X151240000Y-64050000D01*
G75*
G02*
X151490000Y-64300000I0J-250000D01*
G01*
X151490000Y-64975000D01*
G75*
G02*
X151240000Y-65225000I-250000J0D01*
G01*
X150290000Y-65225000D01*
G75*
G02*
X150040000Y-64975000I0J250000D01*
G01*
X150040000Y-64300000D01*
G75*
G02*
X150290000Y-64050000I250000J0D01*
G01*
G37*
G36*
G01*
X150290000Y-66125000D02*
X151240000Y-66125000D01*
G75*
G02*
X151490000Y-66375000I0J-250000D01*
G01*
X151490000Y-67050000D01*
G75*
G02*
X151240000Y-67300000I-250000J0D01*
G01*
X150290000Y-67300000D01*
G75*
G02*
X150040000Y-67050000I0J250000D01*
G01*
X150040000Y-66375000D01*
G75*
G02*
X150290000Y-66125000I250000J0D01*
G01*
G37*
%TD*%
%TO.C,C6*%
G36*
G01*
X137382500Y-55040000D02*
X137382500Y-55990000D01*
G75*
G02*
X137132500Y-56240000I-250000J0D01*
G01*
X136457500Y-56240000D01*
G75*
G02*
X136207500Y-55990000I0J250000D01*
G01*
X136207500Y-55040000D01*
G75*
G02*
X136457500Y-54790000I250000J0D01*
G01*
X137132500Y-54790000D01*
G75*
G02*
X137382500Y-55040000I0J-250000D01*
G01*
G37*
G36*
G01*
X135307500Y-55040000D02*
X135307500Y-55990000D01*
G75*
G02*
X135057500Y-56240000I-250000J0D01*
G01*
X134382500Y-56240000D01*
G75*
G02*
X134132500Y-55990000I0J250000D01*
G01*
X134132500Y-55040000D01*
G75*
G02*
X134382500Y-54790000I250000J0D01*
G01*
X135057500Y-54790000D01*
G75*
G02*
X135307500Y-55040000I0J-250000D01*
G01*
G37*
%TD*%
%TO.C,C7*%
G36*
G01*
X142670000Y-63987500D02*
X143620000Y-63987500D01*
G75*
G02*
X143870000Y-64237500I0J-250000D01*
G01*
X143870000Y-64912500D01*
G75*
G02*
X143620000Y-65162500I-250000J0D01*
G01*
X142670000Y-65162500D01*
G75*
G02*
X142420000Y-64912500I0J250000D01*
G01*
X142420000Y-64237500D01*
G75*
G02*
X142670000Y-63987500I250000J0D01*
G01*
G37*
G36*
G01*
X142670000Y-61912500D02*
X143620000Y-61912500D01*
G75*
G02*
X143870000Y-62162500I0J-250000D01*
G01*
X143870000Y-62837500D01*
G75*
G02*
X143620000Y-63087500I-250000J0D01*
G01*
X142670000Y-63087500D01*
G75*
G02*
X142420000Y-62837500I0J250000D01*
G01*
X142420000Y-62162500D01*
G75*
G02*
X142670000Y-61912500I250000J0D01*
G01*
G37*
%TD*%
%TO.C,C8*%
G36*
G01*
X157797500Y-55990000D02*
X157797500Y-55040000D01*
G75*
G02*
X158047500Y-54790000I250000J0D01*
G01*
X158722500Y-54790000D01*
G75*
G02*
X158972500Y-55040000I0J-250000D01*
G01*
X158972500Y-55990000D01*
G75*
G02*
X158722500Y-56240000I-250000J0D01*
G01*
X158047500Y-56240000D01*
G75*
G02*
X157797500Y-55990000I0J250000D01*
G01*
G37*
G36*
G01*
X159872500Y-55990000D02*
X159872500Y-55040000D01*
G75*
G02*
X160122500Y-54790000I250000J0D01*
G01*
X160797500Y-54790000D01*
G75*
G02*
X161047500Y-55040000I0J-250000D01*
G01*
X161047500Y-55990000D01*
G75*
G02*
X160797500Y-56240000I-250000J0D01*
G01*
X160122500Y-56240000D01*
G75*
G02*
X159872500Y-55990000I0J250000D01*
G01*
G37*
%TD*%
%TO.C,D2*%
X158385000Y-62625000D03*
X158385000Y-59325000D03*
%TD*%
D15*
%TO.C,H1*%
X134255000Y-47895000D03*
D16*
X136655000Y-47895000D03*
X135952056Y-49592056D03*
X134255000Y-50295000D03*
X132557944Y-49592056D03*
X131855000Y-47895000D03*
X132557944Y-46197944D03*
X134255000Y-45495000D03*
X135952056Y-46197944D03*
%TD*%
%TO.C,H2*%
X162622056Y-46197944D03*
X160925000Y-45495000D03*
X159227944Y-46197944D03*
X158525000Y-47895000D03*
X159227944Y-49592056D03*
X160925000Y-50295000D03*
X162622056Y-49592056D03*
X163325000Y-47895000D03*
D15*
X160925000Y-47895000D03*
%TD*%
%TO.C,R1*%
G36*
G01*
X148825000Y-49349999D02*
X148825000Y-50250001D01*
G75*
G02*
X148575001Y-50500000I-249999J0D01*
G01*
X147874999Y-50500000D01*
G75*
G02*
X147625000Y-50250001I0J249999D01*
G01*
X147625000Y-49349999D01*
G75*
G02*
X147874999Y-49100000I249999J0D01*
G01*
X148575001Y-49100000D01*
G75*
G02*
X148825000Y-49349999I0J-249999D01*
G01*
G37*
G36*
G01*
X146825000Y-49349999D02*
X146825000Y-50250001D01*
G75*
G02*
X146575001Y-50500000I-249999J0D01*
G01*
X145874999Y-50500000D01*
G75*
G02*
X145625000Y-50250001I0J249999D01*
G01*
X145625000Y-49349999D01*
G75*
G02*
X145874999Y-49100000I249999J0D01*
G01*
X146575001Y-49100000D01*
G75*
G02*
X146825000Y-49349999I0J-249999D01*
G01*
G37*
%TD*%
%TO.C,R2*%
G36*
G01*
X155715000Y-65224999D02*
X155715000Y-66125001D01*
G75*
G02*
X155465001Y-66375000I-249999J0D01*
G01*
X154764999Y-66375000D01*
G75*
G02*
X154515000Y-66125001I0J249999D01*
G01*
X154515000Y-65224999D01*
G75*
G02*
X154764999Y-64975000I249999J0D01*
G01*
X155465001Y-64975000D01*
G75*
G02*
X155715000Y-65224999I0J-249999D01*
G01*
G37*
G36*
G01*
X157715000Y-65224999D02*
X157715000Y-66125001D01*
G75*
G02*
X157465001Y-66375000I-249999J0D01*
G01*
X156764999Y-66375000D01*
G75*
G02*
X156515000Y-66125001I0J249999D01*
G01*
X156515000Y-65224999D01*
G75*
G02*
X156764999Y-64975000I249999J0D01*
G01*
X157465001Y-64975000D01*
G75*
G02*
X157715000Y-65224999I0J-249999D01*
G01*
G37*
%TD*%
%TO.C,R3*%
G36*
G01*
X137465000Y-66125001D02*
X137465000Y-65224999D01*
G75*
G02*
X137714999Y-64975000I249999J0D01*
G01*
X138415001Y-64975000D01*
G75*
G02*
X138665000Y-65224999I0J-249999D01*
G01*
X138665000Y-66125001D01*
G75*
G02*
X138415001Y-66375000I-249999J0D01*
G01*
X137714999Y-66375000D01*
G75*
G02*
X137465000Y-66125001I0J249999D01*
G01*
G37*
G36*
G01*
X139465000Y-66125001D02*
X139465000Y-65224999D01*
G75*
G02*
X139714999Y-64975000I249999J0D01*
G01*
X140415001Y-64975000D01*
G75*
G02*
X140665000Y-65224999I0J-249999D01*
G01*
X140665000Y-66125001D01*
G75*
G02*
X140415001Y-66375000I-249999J0D01*
G01*
X139714999Y-66375000D01*
G75*
G02*
X139465000Y-66125001I0J249999D01*
G01*
G37*
%TD*%
%TO.C,R4*%
G36*
G01*
X132534999Y-60725000D02*
X133435001Y-60725000D01*
G75*
G02*
X133685000Y-60974999I0J-249999D01*
G01*
X133685000Y-61675001D01*
G75*
G02*
X133435001Y-61925000I-249999J0D01*
G01*
X132534999Y-61925000D01*
G75*
G02*
X132285000Y-61675001I0J249999D01*
G01*
X132285000Y-60974999D01*
G75*
G02*
X132534999Y-60725000I249999J0D01*
G01*
G37*
G36*
G01*
X132534999Y-58725000D02*
X133435001Y-58725000D01*
G75*
G02*
X133685000Y-58974999I0J-249999D01*
G01*
X133685000Y-59675001D01*
G75*
G02*
X133435001Y-59925000I-249999J0D01*
G01*
X132534999Y-59925000D01*
G75*
G02*
X132285000Y-59675001I0J249999D01*
G01*
X132285000Y-58974999D01*
G75*
G02*
X132534999Y-58725000I249999J0D01*
G01*
G37*
%TD*%
%TO.C,R5*%
G36*
G01*
X146504999Y-63900000D02*
X147405001Y-63900000D01*
G75*
G02*
X147655000Y-64149999I0J-249999D01*
G01*
X147655000Y-64850001D01*
G75*
G02*
X147405001Y-65100000I-249999J0D01*
G01*
X146504999Y-65100000D01*
G75*
G02*
X146255000Y-64850001I0J249999D01*
G01*
X146255000Y-64149999D01*
G75*
G02*
X146504999Y-63900000I249999J0D01*
G01*
G37*
G36*
G01*
X146504999Y-61900000D02*
X147405001Y-61900000D01*
G75*
G02*
X147655000Y-62149999I0J-249999D01*
G01*
X147655000Y-62850001D01*
G75*
G02*
X147405001Y-63100000I-249999J0D01*
G01*
X146504999Y-63100000D01*
G75*
G02*
X146255000Y-62850001I0J249999D01*
G01*
X146255000Y-62149999D01*
G75*
G02*
X146504999Y-61900000I249999J0D01*
G01*
G37*
%TD*%
%TO.C,R6*%
G36*
G01*
X161744999Y-58725000D02*
X162645001Y-58725000D01*
G75*
G02*
X162895000Y-58974999I0J-249999D01*
G01*
X162895000Y-59675001D01*
G75*
G02*
X162645001Y-59925000I-249999J0D01*
G01*
X161744999Y-59925000D01*
G75*
G02*
X161495000Y-59675001I0J249999D01*
G01*
X161495000Y-58974999D01*
G75*
G02*
X161744999Y-58725000I249999J0D01*
G01*
G37*
G36*
G01*
X161744999Y-60725000D02*
X162645001Y-60725000D01*
G75*
G02*
X162895000Y-60974999I0J-249999D01*
G01*
X162895000Y-61675001D01*
G75*
G02*
X162645001Y-61925000I-249999J0D01*
G01*
X161744999Y-61925000D01*
G75*
G02*
X161495000Y-61675001I0J249999D01*
G01*
X161495000Y-60974999D01*
G75*
G02*
X161744999Y-60725000I249999J0D01*
G01*
G37*
%TD*%
D17*
%TO.C,S1*%
X142955000Y-72660000D03*
X144955000Y-72660000D03*
X148955000Y-72660000D03*
X150955000Y-72660000D03*
X142955000Y-69360000D03*
X144955000Y-69360000D03*
X148955000Y-69360000D03*
X150955000Y-69360000D03*
%TD*%
D18*
%TO.C,TP1*%
X159655000Y-72025000D03*
%TD*%
%TO.C,U1*%
G36*
G01*
X150615000Y-52765000D02*
X150915000Y-52765000D01*
G75*
G02*
X151065000Y-52915000I0J-150000D01*
G01*
X151065000Y-54565000D01*
G75*
G02*
X150915000Y-54715000I-150000J0D01*
G01*
X150615000Y-54715000D01*
G75*
G02*
X150465000Y-54565000I0J150000D01*
G01*
X150465000Y-52915000D01*
G75*
G02*
X150615000Y-52765000I150000J0D01*
G01*
G37*
G36*
G01*
X149345000Y-52765000D02*
X149645000Y-52765000D01*
G75*
G02*
X149795000Y-52915000I0J-150000D01*
G01*
X149795000Y-54565000D01*
G75*
G02*
X149645000Y-54715000I-150000J0D01*
G01*
X149345000Y-54715000D01*
G75*
G02*
X149195000Y-54565000I0J150000D01*
G01*
X149195000Y-52915000D01*
G75*
G02*
X149345000Y-52765000I150000J0D01*
G01*
G37*
G36*
G01*
X148075000Y-52765000D02*
X148375000Y-52765000D01*
G75*
G02*
X148525000Y-52915000I0J-150000D01*
G01*
X148525000Y-54565000D01*
G75*
G02*
X148375000Y-54715000I-150000J0D01*
G01*
X148075000Y-54715000D01*
G75*
G02*
X147925000Y-54565000I0J150000D01*
G01*
X147925000Y-52915000D01*
G75*
G02*
X148075000Y-52765000I150000J0D01*
G01*
G37*
G36*
G01*
X146805000Y-52765000D02*
X147105000Y-52765000D01*
G75*
G02*
X147255000Y-52915000I0J-150000D01*
G01*
X147255000Y-54565000D01*
G75*
G02*
X147105000Y-54715000I-150000J0D01*
G01*
X146805000Y-54715000D01*
G75*
G02*
X146655000Y-54565000I0J150000D01*
G01*
X146655000Y-52915000D01*
G75*
G02*
X146805000Y-52765000I150000J0D01*
G01*
G37*
G36*
G01*
X145535000Y-52765000D02*
X145835000Y-52765000D01*
G75*
G02*
X145985000Y-52915000I0J-150000D01*
G01*
X145985000Y-54565000D01*
G75*
G02*
X145835000Y-54715000I-150000J0D01*
G01*
X145535000Y-54715000D01*
G75*
G02*
X145385000Y-54565000I0J150000D01*
G01*
X145385000Y-52915000D01*
G75*
G02*
X145535000Y-52765000I150000J0D01*
G01*
G37*
G36*
G01*
X144265000Y-52765000D02*
X144565000Y-52765000D01*
G75*
G02*
X144715000Y-52915000I0J-150000D01*
G01*
X144715000Y-54565000D01*
G75*
G02*
X144565000Y-54715000I-150000J0D01*
G01*
X144265000Y-54715000D01*
G75*
G02*
X144115000Y-54565000I0J150000D01*
G01*
X144115000Y-52915000D01*
G75*
G02*
X144265000Y-52765000I150000J0D01*
G01*
G37*
G36*
G01*
X142995000Y-52765000D02*
X143295000Y-52765000D01*
G75*
G02*
X143445000Y-52915000I0J-150000D01*
G01*
X143445000Y-54565000D01*
G75*
G02*
X143295000Y-54715000I-150000J0D01*
G01*
X142995000Y-54715000D01*
G75*
G02*
X142845000Y-54565000I0J150000D01*
G01*
X142845000Y-52915000D01*
G75*
G02*
X142995000Y-52765000I150000J0D01*
G01*
G37*
G36*
G01*
X142995000Y-57715000D02*
X143295000Y-57715000D01*
G75*
G02*
X143445000Y-57865000I0J-150000D01*
G01*
X143445000Y-59515000D01*
G75*
G02*
X143295000Y-59665000I-150000J0D01*
G01*
X142995000Y-59665000D01*
G75*
G02*
X142845000Y-59515000I0J150000D01*
G01*
X142845000Y-57865000D01*
G75*
G02*
X142995000Y-57715000I150000J0D01*
G01*
G37*
G36*
G01*
X144265000Y-57715000D02*
X144565000Y-57715000D01*
G75*
G02*
X144715000Y-57865000I0J-150000D01*
G01*
X144715000Y-59515000D01*
G75*
G02*
X144565000Y-59665000I-150000J0D01*
G01*
X144265000Y-59665000D01*
G75*
G02*
X144115000Y-59515000I0J150000D01*
G01*
X144115000Y-57865000D01*
G75*
G02*
X144265000Y-57715000I150000J0D01*
G01*
G37*
G36*
G01*
X145535000Y-57715000D02*
X145835000Y-57715000D01*
G75*
G02*
X145985000Y-57865000I0J-150000D01*
G01*
X145985000Y-59515000D01*
G75*
G02*
X145835000Y-59665000I-150000J0D01*
G01*
X145535000Y-59665000D01*
G75*
G02*
X145385000Y-59515000I0J150000D01*
G01*
X145385000Y-57865000D01*
G75*
G02*
X145535000Y-57715000I150000J0D01*
G01*
G37*
G36*
G01*
X146805000Y-57715000D02*
X147105000Y-57715000D01*
G75*
G02*
X147255000Y-57865000I0J-150000D01*
G01*
X147255000Y-59515000D01*
G75*
G02*
X147105000Y-59665000I-150000J0D01*
G01*
X146805000Y-59665000D01*
G75*
G02*
X146655000Y-59515000I0J150000D01*
G01*
X146655000Y-57865000D01*
G75*
G02*
X146805000Y-57715000I150000J0D01*
G01*
G37*
G36*
G01*
X148075000Y-57715000D02*
X148375000Y-57715000D01*
G75*
G02*
X148525000Y-57865000I0J-150000D01*
G01*
X148525000Y-59515000D01*
G75*
G02*
X148375000Y-59665000I-150000J0D01*
G01*
X148075000Y-59665000D01*
G75*
G02*
X147925000Y-59515000I0J150000D01*
G01*
X147925000Y-57865000D01*
G75*
G02*
X148075000Y-57715000I150000J0D01*
G01*
G37*
G36*
G01*
X149345000Y-57715000D02*
X149645000Y-57715000D01*
G75*
G02*
X149795000Y-57865000I0J-150000D01*
G01*
X149795000Y-59515000D01*
G75*
G02*
X149645000Y-59665000I-150000J0D01*
G01*
X149345000Y-59665000D01*
G75*
G02*
X149195000Y-59515000I0J150000D01*
G01*
X149195000Y-57865000D01*
G75*
G02*
X149345000Y-57715000I150000J0D01*
G01*
G37*
G36*
G01*
X150615000Y-57715000D02*
X150915000Y-57715000D01*
G75*
G02*
X151065000Y-57865000I0J-150000D01*
G01*
X151065000Y-59515000D01*
G75*
G02*
X150915000Y-59665000I-150000J0D01*
G01*
X150615000Y-59665000D01*
G75*
G02*
X150465000Y-59515000I0J150000D01*
G01*
X150465000Y-57865000D01*
G75*
G02*
X150615000Y-57715000I150000J0D01*
G01*
G37*
%TD*%
D16*
%TO.C,H3*%
X145892944Y-154617944D03*
X145190000Y-156315000D03*
X145892944Y-158012056D03*
X147590000Y-158715000D03*
X149287056Y-158012056D03*
X149990000Y-156315000D03*
X149287056Y-154617944D03*
X147590000Y-153915000D03*
D15*
X147590000Y-156315000D03*
%TD*%
%TO.C,H4*%
X147590000Y-141315000D03*
D16*
X147590000Y-138915000D03*
X149287056Y-139617944D03*
X149990000Y-141315000D03*
X149287056Y-143012056D03*
X147590000Y-143715000D03*
X145892944Y-143012056D03*
X145190000Y-141315000D03*
X145892944Y-139617944D03*
%TD*%
M02*
