%TF.GenerationSoftware,KiCad,Pcbnew,(5.1.10)-1*%
%TF.CreationDate,2022-05-18T17:56:25+01:00*%
%TF.ProjectId,handifinder,68616e64-6966-4696-9e64-65722e6b6963,rev?*%
%TF.SameCoordinates,Original*%
%TF.FileFunction,Soldermask,Bot*%
%TF.FilePolarity,Negative*%
%FSLAX46Y46*%
G04 Gerber Fmt 4.6, Leading zero omitted, Abs format (unit mm)*
G04 Created by KiCad (PCBNEW (5.1.10)-1) date 2022-05-18 17:56:25*
%MOMM*%
%LPD*%
G01*
G04 APERTURE LIST*
%ADD10C,3.435000*%
%ADD11C,2.000000*%
%ADD12C,2.050000*%
%ADD13C,2.250000*%
%ADD14C,6.400000*%
%ADD15C,0.800000*%
%ADD16C,1.450000*%
G04 APERTURE END LIST*
D10*
%TO.C,BT1*%
X157875000Y-108855000D03*
X135525000Y-122335000D03*
X135525000Y-95365000D03*
D11*
X152965000Y-83765000D03*
X140265000Y-83765000D03*
%TD*%
D12*
%TO.C,J1*%
X135525000Y-141875000D03*
D13*
X138065000Y-144415000D03*
X138065000Y-139335000D03*
X132985000Y-139335000D03*
X132985000Y-144415000D03*
%TD*%
D14*
%TO.C,H1*%
X134255000Y-47895000D03*
D15*
X136655000Y-47895000D03*
X135952056Y-49592056D03*
X134255000Y-50295000D03*
X132557944Y-49592056D03*
X131855000Y-47895000D03*
X132557944Y-46197944D03*
X134255000Y-45495000D03*
X135952056Y-46197944D03*
%TD*%
%TO.C,H2*%
X162622056Y-46197944D03*
X160925000Y-45495000D03*
X159227944Y-46197944D03*
X158525000Y-47895000D03*
X159227944Y-49592056D03*
X160925000Y-50295000D03*
X162622056Y-49592056D03*
X163325000Y-47895000D03*
D14*
X160925000Y-47895000D03*
%TD*%
D16*
%TO.C,S1*%
X142955000Y-72660000D03*
X144955000Y-72660000D03*
X148955000Y-72660000D03*
X150955000Y-72660000D03*
X142955000Y-69360000D03*
X144955000Y-69360000D03*
X148955000Y-69360000D03*
X150955000Y-69360000D03*
%TD*%
D15*
%TO.C,H3*%
X145892944Y-154617944D03*
X145190000Y-156315000D03*
X145892944Y-158012056D03*
X147590000Y-158715000D03*
X149287056Y-158012056D03*
X149990000Y-156315000D03*
X149287056Y-154617944D03*
X147590000Y-153915000D03*
D14*
X147590000Y-156315000D03*
%TD*%
%TO.C,H4*%
X147590000Y-141315000D03*
D15*
X147590000Y-138915000D03*
X149287056Y-139617944D03*
X149990000Y-141315000D03*
X149287056Y-143012056D03*
X147590000Y-143715000D03*
X145892944Y-143012056D03*
X145190000Y-141315000D03*
X145892944Y-139617944D03*
%TD*%
M02*
