%TF.GenerationSoftware,KiCad,Pcbnew,(5.1.10)-1*%
%TF.CreationDate,2022-05-18T17:56:24+01:00*%
%TF.ProjectId,handifinder,68616e64-6966-4696-9e64-65722e6b6963,rev?*%
%TF.SameCoordinates,Original*%
%TF.FileFunction,Copper,L2,Bot*%
%TF.FilePolarity,Positive*%
%FSLAX46Y46*%
G04 Gerber Fmt 4.6, Leading zero omitted, Abs format (unit mm)*
G04 Created by KiCad (PCBNEW (5.1.10)-1) date 2022-05-18 17:56:24*
%MOMM*%
%LPD*%
G01*
G04 APERTURE LIST*
%TA.AperFunction,WasherPad*%
%ADD10C,3.435000*%
%TD*%
%TA.AperFunction,ComponentPad*%
%ADD11C,2.000000*%
%TD*%
%TA.AperFunction,ComponentPad*%
%ADD12C,2.050000*%
%TD*%
%TA.AperFunction,ComponentPad*%
%ADD13C,2.250000*%
%TD*%
%TA.AperFunction,ComponentPad*%
%ADD14C,6.400000*%
%TD*%
%TA.AperFunction,ComponentPad*%
%ADD15C,0.800000*%
%TD*%
%TA.AperFunction,ComponentPad*%
%ADD16C,1.450000*%
%TD*%
%TA.AperFunction,ViaPad*%
%ADD17C,0.800000*%
%TD*%
%TA.AperFunction,Conductor*%
%ADD18C,0.381000*%
%TD*%
%TA.AperFunction,Conductor*%
%ADD19C,0.254000*%
%TD*%
%TA.AperFunction,Conductor*%
%ADD20C,0.100000*%
%TD*%
G04 APERTURE END LIST*
D10*
%TO.P,BT1,*%
%TO.N,*%
X157875000Y-108855000D03*
X135525000Y-122335000D03*
X135525000Y-95365000D03*
D11*
%TO.P,BT1,1*%
%TO.N,+BATT*%
X152965000Y-83765000D03*
%TO.P,BT1,2*%
%TO.N,GND*%
X140265000Y-83765000D03*
%TD*%
D12*
%TO.P,J1,1*%
%TO.N,Net-(C7-Pad2)*%
X135525000Y-141875000D03*
D13*
%TO.P,J1,2*%
%TO.N,GND*%
X138065000Y-144415000D03*
X138065000Y-139335000D03*
X132985000Y-139335000D03*
X132985000Y-144415000D03*
%TD*%
D14*
%TO.P,H1,1*%
%TO.N,/ANT1*%
X134255000Y-47895000D03*
D15*
X136655000Y-47895000D03*
X135952056Y-49592056D03*
X134255000Y-50295000D03*
X132557944Y-49592056D03*
X131855000Y-47895000D03*
X132557944Y-46197944D03*
X134255000Y-45495000D03*
X135952056Y-46197944D03*
%TD*%
%TO.P,H2,1*%
%TO.N,/ANT2*%
X162622056Y-46197944D03*
X160925000Y-45495000D03*
X159227944Y-46197944D03*
X158525000Y-47895000D03*
X159227944Y-49592056D03*
X160925000Y-50295000D03*
X162622056Y-49592056D03*
X163325000Y-47895000D03*
D14*
X160925000Y-47895000D03*
%TD*%
D16*
%TO.P,S1,8*%
%TO.N,GND*%
X142955000Y-72660000D03*
%TO.P,S1,7*%
%TO.N,Net-(S1-Pad6)*%
X144955000Y-72660000D03*
%TO.P,S1,6*%
X148955000Y-72660000D03*
%TO.P,S1,5*%
%TO.N,+BATT*%
X150955000Y-72660000D03*
%TO.P,S1,4*%
X142955000Y-69360000D03*
%TO.P,S1,3*%
%TO.N,+9V*%
X144955000Y-69360000D03*
%TO.P,S1,2*%
X148955000Y-69360000D03*
%TO.P,S1,1*%
%TO.N,+BATT*%
X150955000Y-69360000D03*
%TD*%
D15*
%TO.P,H3,1*%
%TO.N,GND*%
X145892944Y-154617944D03*
X145190000Y-156315000D03*
X145892944Y-158012056D03*
X147590000Y-158715000D03*
X149287056Y-158012056D03*
X149990000Y-156315000D03*
X149287056Y-154617944D03*
X147590000Y-153915000D03*
D14*
X147590000Y-156315000D03*
%TD*%
%TO.P,H4,1*%
%TO.N,GND*%
X147590000Y-141315000D03*
D15*
X147590000Y-138915000D03*
X149287056Y-139617944D03*
X149990000Y-141315000D03*
X149287056Y-143012056D03*
X147590000Y-143715000D03*
X145892944Y-143012056D03*
X145190000Y-141315000D03*
X145892944Y-139617944D03*
%TD*%
D17*
%TO.N,GND*%
X136825000Y-135782510D03*
X137039240Y-133776696D03*
X138207412Y-132141064D03*
X139584505Y-130652145D03*
X140746000Y-126836010D03*
X140746000Y-124805181D03*
X140746000Y-122774351D03*
X140746000Y-120743521D03*
X140746000Y-118712691D03*
X140746000Y-116681861D03*
X140746000Y-114651031D03*
X140746000Y-112620201D03*
X140746000Y-110589371D03*
X140746000Y-108558541D03*
X140746000Y-106527711D03*
X140746000Y-104496881D03*
X140746000Y-102466051D03*
X140746000Y-100435221D03*
X140746000Y-98404392D03*
X140746000Y-96373562D03*
X140746000Y-94342732D03*
X140746000Y-92311902D03*
X139117328Y-88764850D03*
X138300000Y-87024240D03*
X138300000Y-84993411D03*
X138300000Y-82962581D03*
X138300000Y-80931751D03*
X138300000Y-78900921D03*
X138617144Y-74864792D03*
X139289388Y-72951691D03*
X140307654Y-71198404D03*
X139784866Y-67831654D03*
X138439565Y-69350528D03*
X137334924Y-71052119D03*
X136500156Y-72901275D03*
X135713961Y-76870260D03*
X135700000Y-78900921D03*
X135700000Y-80931751D03*
X135700000Y-82962580D03*
X135700000Y-84993410D03*
X135700000Y-87024240D03*
X137270789Y-90595267D03*
X138146000Y-92311902D03*
X138146000Y-98404391D03*
X138146000Y-100435221D03*
X138146000Y-102466051D03*
X138146000Y-104496881D03*
X138146000Y-106527711D03*
X138146000Y-108558541D03*
X138146000Y-110589371D03*
X138146000Y-112620201D03*
X138146000Y-114651031D03*
X138146000Y-116681861D03*
X138146000Y-118712691D03*
X138146000Y-120743521D03*
X138146000Y-124805180D03*
X138146000Y-126836010D03*
X137693931Y-128789045D03*
X136360872Y-130310648D03*
X135074525Y-131873057D03*
X134225000Y-135782510D03*
X134366000Y-133604000D03*
X140462000Y-129032000D03*
X140462000Y-90170000D03*
X136144000Y-89154000D03*
X135890000Y-74930000D03*
X138430000Y-76708000D03*
X141732000Y-65786000D03*
X131064000Y-44450000D03*
X163830000Y-44450000D03*
X148082000Y-44450000D03*
X140970000Y-44450000D03*
X155194000Y-44450000D03*
X139700000Y-53594000D03*
X155194000Y-53594000D03*
X160274000Y-60960000D03*
X157480000Y-60960000D03*
X152908000Y-66802000D03*
X158750000Y-67818000D03*
X162814000Y-72136000D03*
X161544000Y-69342000D03*
X155194000Y-71628000D03*
X135128000Y-60960000D03*
X139700000Y-58166000D03*
X140716000Y-48768000D03*
X132080000Y-52324000D03*
X134874000Y-57658000D03*
X131572000Y-63500000D03*
X131826000Y-56642000D03*
X131572000Y-68326000D03*
X131318000Y-76454000D03*
X131572000Y-85344000D03*
X131572000Y-92456000D03*
X131572000Y-99568000D03*
X131318000Y-108204000D03*
X131318000Y-117856000D03*
X131318000Y-126492000D03*
X131318000Y-148336000D03*
X135128000Y-155956000D03*
X142240000Y-159512000D03*
X152908000Y-159512000D03*
X159258000Y-156464000D03*
X163830000Y-147828000D03*
X164084000Y-136906000D03*
X163830000Y-127508000D03*
X164084000Y-118364000D03*
X164084000Y-110490000D03*
X164084000Y-103124000D03*
X164084000Y-97028000D03*
X164084000Y-91186000D03*
X164084000Y-84328000D03*
X164084000Y-78232000D03*
X157734000Y-77978000D03*
X157734000Y-84328000D03*
X157988000Y-90932000D03*
X158242000Y-97028000D03*
X158242000Y-103124000D03*
X158496000Y-118110000D03*
X158750000Y-127508000D03*
X159004000Y-136652000D03*
X159258000Y-147574000D03*
X150876000Y-136652000D03*
X150876000Y-127254000D03*
X151384000Y-117856000D03*
X151384000Y-102870000D03*
X151384000Y-96774000D03*
X151638000Y-90678000D03*
X145288000Y-77724000D03*
X145796000Y-90424000D03*
X145796000Y-96774000D03*
X146050000Y-102870000D03*
X146050000Y-109982000D03*
X146304000Y-117602000D03*
X146304000Y-127254000D03*
X141986000Y-136652000D03*
X142240000Y-147828000D03*
X151638000Y-147828000D03*
X138938000Y-152400000D03*
X155702000Y-152146000D03*
X145542000Y-83820000D03*
X151130000Y-74930000D03*
X152908000Y-56134000D03*
X148082000Y-56642000D03*
%TO.N,+9V*%
X152035000Y-64405000D03*
X155210000Y-58690000D03*
%TO.N,Net-(R2-Pad2)*%
X153305000Y-63770000D03*
X150765000Y-61230000D03*
%TO.N,Net-(R3-Pad2)*%
X139970000Y-63770000D03*
X139970000Y-61230000D03*
%TO.N,Net-(S1-Pad6)*%
X141240000Y-59960000D03*
%TO.N,Net-(TP1-Pad1)*%
X152670000Y-61834500D03*
X154575000Y-63770000D03*
%TD*%
D18*
%TO.N,+9V*%
X155845000Y-59325000D02*
X155210000Y-58690000D01*
X155845000Y-64405000D02*
X155845000Y-59325000D01*
X155445001Y-64804999D02*
X155845000Y-64405000D01*
X152434999Y-64804999D02*
X155445001Y-64804999D01*
X152035000Y-64405000D02*
X152434999Y-64804999D01*
%TO.N,Net-(R2-Pad2)*%
X153305000Y-63770000D02*
X150765000Y-61230000D01*
%TO.N,Net-(R3-Pad2)*%
X139970000Y-63770000D02*
X139970000Y-61230000D01*
%TO.N,Net-(S1-Pad6)*%
X147020000Y-70725000D02*
X148955000Y-72660000D01*
X147020000Y-65740000D02*
X147020000Y-66245000D01*
X141240000Y-59960000D02*
X147020000Y-65740000D01*
X147020000Y-66245000D02*
X147020000Y-70725000D01*
%TO.N,Net-(TP1-Pad1)*%
X154272750Y-63467750D02*
X154575000Y-63770000D01*
X154272750Y-63437250D02*
X154272750Y-63467750D01*
X152670000Y-61834500D02*
X154272750Y-63437250D01*
%TD*%
D19*
%TO.N,GND*%
X164085424Y-43984580D02*
X164148356Y-44003580D01*
X164206405Y-44034445D01*
X164257343Y-44075989D01*
X164299248Y-44126644D01*
X164330515Y-44184471D01*
X164349956Y-44247272D01*
X164360000Y-44342835D01*
X164360000Y-46166485D01*
X164323533Y-46078446D01*
X163903839Y-45450330D01*
X163369670Y-44916161D01*
X162741554Y-44496467D01*
X162043628Y-44207377D01*
X161302715Y-44060000D01*
X160547285Y-44060000D01*
X159806372Y-44207377D01*
X159108446Y-44496467D01*
X158480330Y-44916161D01*
X157946161Y-45450330D01*
X157526467Y-46078446D01*
X157237377Y-46776372D01*
X157090000Y-47517285D01*
X157090000Y-48272715D01*
X157237377Y-49013628D01*
X157526467Y-49711554D01*
X157946161Y-50339670D01*
X158480330Y-50873839D01*
X159108446Y-51293533D01*
X159806372Y-51582623D01*
X160547285Y-51730000D01*
X161302715Y-51730000D01*
X162043628Y-51582623D01*
X162741554Y-51293533D01*
X163369670Y-50873839D01*
X163903839Y-50339670D01*
X164323533Y-49711554D01*
X164360000Y-49623515D01*
X164360001Y-137282572D01*
X164360000Y-137282582D01*
X164360001Y-146090992D01*
X164358956Y-146093200D01*
X164327332Y-146219303D01*
X164320918Y-146349153D01*
X164323105Y-146363926D01*
X164316907Y-147768512D01*
X164159843Y-149179261D01*
X163853751Y-150565348D01*
X163402106Y-151911050D01*
X162810020Y-153201134D01*
X162084187Y-154421012D01*
X161232841Y-155556844D01*
X160265622Y-156595775D01*
X159193472Y-157526046D01*
X158028541Y-158337117D01*
X156784017Y-159019808D01*
X155473994Y-159566384D01*
X154113310Y-159970657D01*
X152934566Y-160188000D01*
X142113565Y-160188000D01*
X141181127Y-160037814D01*
X139811635Y-159664447D01*
X138489573Y-159147667D01*
X138235875Y-159015881D01*
X145068724Y-159015881D01*
X145428912Y-159505548D01*
X146092882Y-159865849D01*
X146814385Y-160089694D01*
X147565695Y-160168480D01*
X148317938Y-160099178D01*
X149042208Y-159884452D01*
X149710670Y-159532555D01*
X149751088Y-159505548D01*
X150111276Y-159015881D01*
X147590000Y-156494605D01*
X145068724Y-159015881D01*
X138235875Y-159015881D01*
X137229918Y-158493328D01*
X136046918Y-157708833D01*
X134953985Y-156803072D01*
X134454850Y-156290695D01*
X143736520Y-156290695D01*
X143805822Y-157042938D01*
X144020548Y-157767208D01*
X144372445Y-158435670D01*
X144399452Y-158476088D01*
X144889119Y-158836276D01*
X147410395Y-156315000D01*
X147769605Y-156315000D01*
X150290881Y-158836276D01*
X150780548Y-158476088D01*
X151140849Y-157812118D01*
X151364694Y-157090615D01*
X151443480Y-156339305D01*
X151374178Y-155587062D01*
X151159452Y-154862792D01*
X150807555Y-154194330D01*
X150780548Y-154153912D01*
X150290881Y-153793724D01*
X147769605Y-156315000D01*
X147410395Y-156315000D01*
X144889119Y-153793724D01*
X144399452Y-154153912D01*
X144039151Y-154817882D01*
X143815306Y-155539385D01*
X143736520Y-156290695D01*
X134454850Y-156290695D01*
X133963487Y-155786298D01*
X133086653Y-154670038D01*
X132425559Y-153614119D01*
X145068724Y-153614119D01*
X147590000Y-156135395D01*
X150111276Y-153614119D01*
X149751088Y-153124452D01*
X149087118Y-152764151D01*
X148365615Y-152540306D01*
X147614305Y-152461520D01*
X146862062Y-152530822D01*
X146137792Y-152745548D01*
X145469330Y-153097445D01*
X145428912Y-153124452D01*
X145068724Y-153614119D01*
X132425559Y-153614119D01*
X132333391Y-153466906D01*
X131712250Y-152190553D01*
X131230254Y-150855413D01*
X130892865Y-149476618D01*
X130703326Y-148065482D01*
X130660386Y-146996378D01*
X130679054Y-146357021D01*
X130680000Y-146347419D01*
X130680000Y-146324632D01*
X130680665Y-146301857D01*
X130680000Y-146292234D01*
X130680000Y-145639531D01*
X131940074Y-145639531D01*
X132050921Y-145916714D01*
X132361840Y-146070089D01*
X132696705Y-146159860D01*
X133042650Y-146182576D01*
X133386380Y-146137366D01*
X133714685Y-146025966D01*
X133919079Y-145916714D01*
X134029926Y-145639531D01*
X137020074Y-145639531D01*
X137130921Y-145916714D01*
X137441840Y-146070089D01*
X137776705Y-146159860D01*
X138122650Y-146182576D01*
X138466380Y-146137366D01*
X138794685Y-146025966D01*
X138999079Y-145916714D01*
X139109926Y-145639531D01*
X138065000Y-144594605D01*
X137020074Y-145639531D01*
X134029926Y-145639531D01*
X132985000Y-144594605D01*
X131940074Y-145639531D01*
X130680000Y-145639531D01*
X130680000Y-144472650D01*
X131217424Y-144472650D01*
X131262634Y-144816380D01*
X131374034Y-145144685D01*
X131483286Y-145349079D01*
X131760469Y-145459926D01*
X132805395Y-144415000D01*
X133164605Y-144415000D01*
X134209531Y-145459926D01*
X134486714Y-145349079D01*
X134640089Y-145038160D01*
X134729860Y-144703295D01*
X134745004Y-144472650D01*
X136297424Y-144472650D01*
X136342634Y-144816380D01*
X136454034Y-145144685D01*
X136563286Y-145349079D01*
X136840469Y-145459926D01*
X137885395Y-144415000D01*
X138244605Y-144415000D01*
X139289531Y-145459926D01*
X139566714Y-145349079D01*
X139720089Y-145038160D01*
X139809860Y-144703295D01*
X139832576Y-144357350D01*
X139787664Y-144015881D01*
X145068724Y-144015881D01*
X145428912Y-144505548D01*
X146092882Y-144865849D01*
X146814385Y-145089694D01*
X147565695Y-145168480D01*
X148317938Y-145099178D01*
X149042208Y-144884452D01*
X149710670Y-144532555D01*
X149751088Y-144505548D01*
X150111276Y-144015881D01*
X147590000Y-141494605D01*
X145068724Y-144015881D01*
X139787664Y-144015881D01*
X139787366Y-144013620D01*
X139675966Y-143685315D01*
X139566714Y-143480921D01*
X139289531Y-143370074D01*
X138244605Y-144415000D01*
X137885395Y-144415000D01*
X136840469Y-143370074D01*
X136563286Y-143480921D01*
X136409911Y-143791840D01*
X136320140Y-144126705D01*
X136297424Y-144472650D01*
X134745004Y-144472650D01*
X134752576Y-144357350D01*
X134707366Y-144013620D01*
X134595966Y-143685315D01*
X134486714Y-143480921D01*
X134209531Y-143370074D01*
X133164605Y-144415000D01*
X132805395Y-144415000D01*
X131760469Y-143370074D01*
X131483286Y-143480921D01*
X131329911Y-143791840D01*
X131240140Y-144126705D01*
X131217424Y-144472650D01*
X130680000Y-144472650D01*
X130680000Y-143190469D01*
X131940074Y-143190469D01*
X132985000Y-144235395D01*
X134029926Y-143190469D01*
X133919079Y-142913286D01*
X133608160Y-142759911D01*
X133273295Y-142670140D01*
X132927350Y-142647424D01*
X132583620Y-142692634D01*
X132255315Y-142804034D01*
X132050921Y-142913286D01*
X131940074Y-143190469D01*
X130680000Y-143190469D01*
X130680000Y-141711504D01*
X133865000Y-141711504D01*
X133865000Y-142038496D01*
X133928793Y-142359204D01*
X134053927Y-142661305D01*
X134235594Y-142933188D01*
X134466812Y-143164406D01*
X134738695Y-143346073D01*
X135040796Y-143471207D01*
X135361504Y-143535000D01*
X135688496Y-143535000D01*
X136009204Y-143471207D01*
X136311305Y-143346073D01*
X136544182Y-143190469D01*
X137020074Y-143190469D01*
X138065000Y-144235395D01*
X139109926Y-143190469D01*
X138999079Y-142913286D01*
X138688160Y-142759911D01*
X138353295Y-142670140D01*
X138007350Y-142647424D01*
X137663620Y-142692634D01*
X137335315Y-142804034D01*
X137130921Y-142913286D01*
X137020074Y-143190469D01*
X136544182Y-143190469D01*
X136583188Y-143164406D01*
X136814406Y-142933188D01*
X136996073Y-142661305D01*
X137121207Y-142359204D01*
X137185000Y-142038496D01*
X137185000Y-141711504D01*
X137121207Y-141390796D01*
X137079744Y-141290695D01*
X143736520Y-141290695D01*
X143805822Y-142042938D01*
X144020548Y-142767208D01*
X144372445Y-143435670D01*
X144399452Y-143476088D01*
X144889119Y-143836276D01*
X147410395Y-141315000D01*
X147769605Y-141315000D01*
X150290881Y-143836276D01*
X150780548Y-143476088D01*
X151140849Y-142812118D01*
X151364694Y-142090615D01*
X151443480Y-141339305D01*
X151374178Y-140587062D01*
X151159452Y-139862792D01*
X150807555Y-139194330D01*
X150780548Y-139153912D01*
X150290881Y-138793724D01*
X147769605Y-141315000D01*
X147410395Y-141315000D01*
X144889119Y-138793724D01*
X144399452Y-139153912D01*
X144039151Y-139817882D01*
X143815306Y-140539385D01*
X143736520Y-141290695D01*
X137079744Y-141290695D01*
X136996073Y-141088695D01*
X136814406Y-140816812D01*
X136583188Y-140585594D01*
X136544183Y-140559531D01*
X137020074Y-140559531D01*
X137130921Y-140836714D01*
X137441840Y-140990089D01*
X137776705Y-141079860D01*
X138122650Y-141102576D01*
X138466380Y-141057366D01*
X138794685Y-140945966D01*
X138999079Y-140836714D01*
X139109926Y-140559531D01*
X138065000Y-139514605D01*
X137020074Y-140559531D01*
X136544183Y-140559531D01*
X136311305Y-140403927D01*
X136009204Y-140278793D01*
X135688496Y-140215000D01*
X135361504Y-140215000D01*
X135040796Y-140278793D01*
X134738695Y-140403927D01*
X134466812Y-140585594D01*
X134235594Y-140816812D01*
X134053927Y-141088695D01*
X133928793Y-141390796D01*
X133865000Y-141711504D01*
X130680000Y-141711504D01*
X130680000Y-140559531D01*
X131940074Y-140559531D01*
X132050921Y-140836714D01*
X132361840Y-140990089D01*
X132696705Y-141079860D01*
X133042650Y-141102576D01*
X133386380Y-141057366D01*
X133714685Y-140945966D01*
X133919079Y-140836714D01*
X134029926Y-140559531D01*
X132985000Y-139514605D01*
X131940074Y-140559531D01*
X130680000Y-140559531D01*
X130680000Y-139392650D01*
X131217424Y-139392650D01*
X131262634Y-139736380D01*
X131374034Y-140064685D01*
X131483286Y-140269079D01*
X131760469Y-140379926D01*
X132805395Y-139335000D01*
X133164605Y-139335000D01*
X134209531Y-140379926D01*
X134486714Y-140269079D01*
X134640089Y-139958160D01*
X134729860Y-139623295D01*
X134745004Y-139392650D01*
X136297424Y-139392650D01*
X136342634Y-139736380D01*
X136454034Y-140064685D01*
X136563286Y-140269079D01*
X136840469Y-140379926D01*
X137885395Y-139335000D01*
X138244605Y-139335000D01*
X139289531Y-140379926D01*
X139566714Y-140269079D01*
X139720089Y-139958160D01*
X139809860Y-139623295D01*
X139832576Y-139277350D01*
X139787366Y-138933620D01*
X139678954Y-138614119D01*
X145068724Y-138614119D01*
X147590000Y-141135395D01*
X150111276Y-138614119D01*
X149751088Y-138124452D01*
X149087118Y-137764151D01*
X148365615Y-137540306D01*
X147614305Y-137461520D01*
X146862062Y-137530822D01*
X146137792Y-137745548D01*
X145469330Y-138097445D01*
X145428912Y-138124452D01*
X145068724Y-138614119D01*
X139678954Y-138614119D01*
X139675966Y-138605315D01*
X139566714Y-138400921D01*
X139289531Y-138290074D01*
X138244605Y-139335000D01*
X137885395Y-139335000D01*
X136840469Y-138290074D01*
X136563286Y-138400921D01*
X136409911Y-138711840D01*
X136320140Y-139046705D01*
X136297424Y-139392650D01*
X134745004Y-139392650D01*
X134752576Y-139277350D01*
X134707366Y-138933620D01*
X134595966Y-138605315D01*
X134486714Y-138400921D01*
X134209531Y-138290074D01*
X133164605Y-139335000D01*
X132805395Y-139335000D01*
X131760469Y-138290074D01*
X131483286Y-138400921D01*
X131329911Y-138711840D01*
X131240140Y-139046705D01*
X131217424Y-139392650D01*
X130680000Y-139392650D01*
X130680000Y-138110469D01*
X131940074Y-138110469D01*
X132985000Y-139155395D01*
X134029926Y-138110469D01*
X137020074Y-138110469D01*
X138065000Y-139155395D01*
X139109926Y-138110469D01*
X138999079Y-137833286D01*
X138688160Y-137679911D01*
X138353295Y-137590140D01*
X138007350Y-137567424D01*
X137663620Y-137612634D01*
X137335315Y-137724034D01*
X137130921Y-137833286D01*
X137020074Y-138110469D01*
X134029926Y-138110469D01*
X133919079Y-137833286D01*
X133608160Y-137679911D01*
X133273295Y-137590140D01*
X132927350Y-137567424D01*
X132583620Y-137612634D01*
X132255315Y-137724034D01*
X132050921Y-137833286D01*
X131940074Y-138110469D01*
X130680000Y-138110469D01*
X130680000Y-122103299D01*
X133172500Y-122103299D01*
X133172500Y-122566701D01*
X133262905Y-123021199D01*
X133440241Y-123449327D01*
X133697694Y-123834631D01*
X134025369Y-124162306D01*
X134410673Y-124419759D01*
X134838801Y-124597095D01*
X135293299Y-124687500D01*
X135756701Y-124687500D01*
X136211199Y-124597095D01*
X136639327Y-124419759D01*
X137024631Y-124162306D01*
X137352306Y-123834631D01*
X137609759Y-123449327D01*
X137787095Y-123021199D01*
X137877500Y-122566701D01*
X137877500Y-122103299D01*
X137787095Y-121648801D01*
X137609759Y-121220673D01*
X137352306Y-120835369D01*
X137024631Y-120507694D01*
X136639327Y-120250241D01*
X136211199Y-120072905D01*
X135756701Y-119982500D01*
X135293299Y-119982500D01*
X134838801Y-120072905D01*
X134410673Y-120250241D01*
X134025369Y-120507694D01*
X133697694Y-120835369D01*
X133440241Y-121220673D01*
X133262905Y-121648801D01*
X133172500Y-122103299D01*
X130680000Y-122103299D01*
X130680000Y-108623299D01*
X155522500Y-108623299D01*
X155522500Y-109086701D01*
X155612905Y-109541199D01*
X155790241Y-109969327D01*
X156047694Y-110354631D01*
X156375369Y-110682306D01*
X156760673Y-110939759D01*
X157188801Y-111117095D01*
X157643299Y-111207500D01*
X158106701Y-111207500D01*
X158561199Y-111117095D01*
X158989327Y-110939759D01*
X159374631Y-110682306D01*
X159702306Y-110354631D01*
X159959759Y-109969327D01*
X160137095Y-109541199D01*
X160227500Y-109086701D01*
X160227500Y-108623299D01*
X160137095Y-108168801D01*
X159959759Y-107740673D01*
X159702306Y-107355369D01*
X159374631Y-107027694D01*
X158989327Y-106770241D01*
X158561199Y-106592905D01*
X158106701Y-106502500D01*
X157643299Y-106502500D01*
X157188801Y-106592905D01*
X156760673Y-106770241D01*
X156375369Y-107027694D01*
X156047694Y-107355369D01*
X155790241Y-107740673D01*
X155612905Y-108168801D01*
X155522500Y-108623299D01*
X130680000Y-108623299D01*
X130680000Y-95133299D01*
X133172500Y-95133299D01*
X133172500Y-95596701D01*
X133262905Y-96051199D01*
X133440241Y-96479327D01*
X133697694Y-96864631D01*
X134025369Y-97192306D01*
X134410673Y-97449759D01*
X134838801Y-97627095D01*
X135293299Y-97717500D01*
X135756701Y-97717500D01*
X136211199Y-97627095D01*
X136639327Y-97449759D01*
X137024631Y-97192306D01*
X137352306Y-96864631D01*
X137609759Y-96479327D01*
X137787095Y-96051199D01*
X137877500Y-95596701D01*
X137877500Y-95133299D01*
X137787095Y-94678801D01*
X137609759Y-94250673D01*
X137352306Y-93865369D01*
X137024631Y-93537694D01*
X136639327Y-93280241D01*
X136211199Y-93102905D01*
X135756701Y-93012500D01*
X135293299Y-93012500D01*
X134838801Y-93102905D01*
X134410673Y-93280241D01*
X134025369Y-93537694D01*
X133697694Y-93865369D01*
X133440241Y-94250673D01*
X133262905Y-94678801D01*
X133172500Y-95133299D01*
X130680000Y-95133299D01*
X130680000Y-84900413D01*
X139309192Y-84900413D01*
X139404956Y-85164814D01*
X139694571Y-85305704D01*
X140006108Y-85387384D01*
X140327595Y-85406718D01*
X140646675Y-85362961D01*
X140951088Y-85257795D01*
X141125044Y-85164814D01*
X141220808Y-84900413D01*
X140265000Y-83944605D01*
X139309192Y-84900413D01*
X130680000Y-84900413D01*
X130680000Y-83827595D01*
X138623282Y-83827595D01*
X138667039Y-84146675D01*
X138772205Y-84451088D01*
X138865186Y-84625044D01*
X139129587Y-84720808D01*
X140085395Y-83765000D01*
X140444605Y-83765000D01*
X141400413Y-84720808D01*
X141664814Y-84625044D01*
X141805704Y-84335429D01*
X141887384Y-84023892D01*
X141906718Y-83702405D01*
X141893219Y-83603967D01*
X151330000Y-83603967D01*
X151330000Y-83926033D01*
X151392832Y-84241912D01*
X151516082Y-84539463D01*
X151695013Y-84807252D01*
X151922748Y-85034987D01*
X152190537Y-85213918D01*
X152488088Y-85337168D01*
X152803967Y-85400000D01*
X153126033Y-85400000D01*
X153441912Y-85337168D01*
X153739463Y-85213918D01*
X154007252Y-85034987D01*
X154234987Y-84807252D01*
X154413918Y-84539463D01*
X154537168Y-84241912D01*
X154600000Y-83926033D01*
X154600000Y-83603967D01*
X154537168Y-83288088D01*
X154413918Y-82990537D01*
X154234987Y-82722748D01*
X154007252Y-82495013D01*
X153739463Y-82316082D01*
X153441912Y-82192832D01*
X153126033Y-82130000D01*
X152803967Y-82130000D01*
X152488088Y-82192832D01*
X152190537Y-82316082D01*
X151922748Y-82495013D01*
X151695013Y-82722748D01*
X151516082Y-82990537D01*
X151392832Y-83288088D01*
X151330000Y-83603967D01*
X141893219Y-83603967D01*
X141862961Y-83383325D01*
X141757795Y-83078912D01*
X141664814Y-82904956D01*
X141400413Y-82809192D01*
X140444605Y-83765000D01*
X140085395Y-83765000D01*
X139129587Y-82809192D01*
X138865186Y-82904956D01*
X138724296Y-83194571D01*
X138642616Y-83506108D01*
X138623282Y-83827595D01*
X130680000Y-83827595D01*
X130680000Y-82629587D01*
X139309192Y-82629587D01*
X140265000Y-83585395D01*
X141220808Y-82629587D01*
X141125044Y-82365186D01*
X140835429Y-82224296D01*
X140523892Y-82142616D01*
X140202405Y-82123282D01*
X139883325Y-82167039D01*
X139578912Y-82272205D01*
X139404956Y-82365186D01*
X139309192Y-82629587D01*
X130680000Y-82629587D01*
X130680000Y-73599133D01*
X142195472Y-73599133D01*
X142257965Y-73835450D01*
X142500678Y-73948850D01*
X142760849Y-74012719D01*
X143028482Y-74024604D01*
X143293291Y-73984048D01*
X143545100Y-73892609D01*
X143652035Y-73835450D01*
X143714528Y-73599133D01*
X142955000Y-72839605D01*
X142195472Y-73599133D01*
X130680000Y-73599133D01*
X130680000Y-72733482D01*
X141590396Y-72733482D01*
X141630952Y-72998291D01*
X141722391Y-73250100D01*
X141779550Y-73357035D01*
X142015867Y-73419528D01*
X142775395Y-72660000D01*
X143134605Y-72660000D01*
X143729262Y-73254657D01*
X143749784Y-73304201D01*
X143898619Y-73526949D01*
X144088051Y-73716381D01*
X144310799Y-73865216D01*
X144558303Y-73967736D01*
X144821052Y-74020000D01*
X145088948Y-74020000D01*
X145351697Y-73967736D01*
X145599201Y-73865216D01*
X145821949Y-73716381D01*
X146011381Y-73526949D01*
X146160216Y-73304201D01*
X146262736Y-73056697D01*
X146315000Y-72793948D01*
X146315000Y-72526052D01*
X146262736Y-72263303D01*
X146160216Y-72015799D01*
X146011381Y-71793051D01*
X145821949Y-71603619D01*
X145599201Y-71454784D01*
X145351697Y-71352264D01*
X145088948Y-71300000D01*
X144821052Y-71300000D01*
X144558303Y-71352264D01*
X144310799Y-71454784D01*
X144088051Y-71603619D01*
X143898619Y-71793051D01*
X143749784Y-72015799D01*
X143729262Y-72065343D01*
X143134605Y-72660000D01*
X142775395Y-72660000D01*
X142015867Y-71900472D01*
X141779550Y-71962965D01*
X141666150Y-72205678D01*
X141602281Y-72465849D01*
X141590396Y-72733482D01*
X130680000Y-72733482D01*
X130680000Y-71720867D01*
X142195472Y-71720867D01*
X142955000Y-72480395D01*
X143714528Y-71720867D01*
X143652035Y-71484550D01*
X143409322Y-71371150D01*
X143149151Y-71307281D01*
X142881518Y-71295396D01*
X142616709Y-71335952D01*
X142364900Y-71427391D01*
X142257965Y-71484550D01*
X142195472Y-71720867D01*
X130680000Y-71720867D01*
X130680000Y-61128061D01*
X138935000Y-61128061D01*
X138935000Y-61331939D01*
X138974774Y-61531898D01*
X139052795Y-61720256D01*
X139144501Y-61857504D01*
X139144500Y-63142497D01*
X139052795Y-63279744D01*
X138974774Y-63468102D01*
X138935000Y-63668061D01*
X138935000Y-63871939D01*
X138974774Y-64071898D01*
X139052795Y-64260256D01*
X139166063Y-64429774D01*
X139310226Y-64573937D01*
X139479744Y-64687205D01*
X139668102Y-64765226D01*
X139868061Y-64805000D01*
X140071939Y-64805000D01*
X140271898Y-64765226D01*
X140460256Y-64687205D01*
X140629774Y-64573937D01*
X140773937Y-64429774D01*
X140887205Y-64260256D01*
X140965226Y-64071898D01*
X141005000Y-63871939D01*
X141005000Y-63668061D01*
X140965226Y-63468102D01*
X140887205Y-63279744D01*
X140795500Y-63142497D01*
X140795500Y-61857503D01*
X140887205Y-61720256D01*
X140965226Y-61531898D01*
X141005000Y-61331939D01*
X141005000Y-61128061D01*
X140971961Y-60961961D01*
X141099996Y-60987429D01*
X146194500Y-66081933D01*
X146194500Y-66204448D01*
X146194501Y-68798569D01*
X146160216Y-68715799D01*
X146011381Y-68493051D01*
X145821949Y-68303619D01*
X145599201Y-68154784D01*
X145351697Y-68052264D01*
X145088948Y-68000000D01*
X144821052Y-68000000D01*
X144558303Y-68052264D01*
X144310799Y-68154784D01*
X144088051Y-68303619D01*
X143955000Y-68436670D01*
X143821949Y-68303619D01*
X143599201Y-68154784D01*
X143351697Y-68052264D01*
X143088948Y-68000000D01*
X142821052Y-68000000D01*
X142558303Y-68052264D01*
X142310799Y-68154784D01*
X142088051Y-68303619D01*
X141898619Y-68493051D01*
X141749784Y-68715799D01*
X141647264Y-68963303D01*
X141595000Y-69226052D01*
X141595000Y-69493948D01*
X141647264Y-69756697D01*
X141749784Y-70004201D01*
X141898619Y-70226949D01*
X142088051Y-70416381D01*
X142310799Y-70565216D01*
X142558303Y-70667736D01*
X142821052Y-70720000D01*
X143088948Y-70720000D01*
X143351697Y-70667736D01*
X143599201Y-70565216D01*
X143821949Y-70416381D01*
X143955000Y-70283330D01*
X144088051Y-70416381D01*
X144310799Y-70565216D01*
X144558303Y-70667736D01*
X144821052Y-70720000D01*
X145088948Y-70720000D01*
X145351697Y-70667736D01*
X145599201Y-70565216D01*
X145821949Y-70416381D01*
X146011381Y-70226949D01*
X146160216Y-70004201D01*
X146194501Y-69921431D01*
X146194501Y-70684440D01*
X146190506Y-70725000D01*
X146206445Y-70886826D01*
X146253647Y-71042433D01*
X146330301Y-71185842D01*
X146391863Y-71260854D01*
X146433460Y-71311541D01*
X146464961Y-71337393D01*
X147604726Y-72477158D01*
X147595000Y-72526052D01*
X147595000Y-72793948D01*
X147647264Y-73056697D01*
X147749784Y-73304201D01*
X147898619Y-73526949D01*
X148088051Y-73716381D01*
X148310799Y-73865216D01*
X148558303Y-73967736D01*
X148821052Y-74020000D01*
X149088948Y-74020000D01*
X149351697Y-73967736D01*
X149599201Y-73865216D01*
X149821949Y-73716381D01*
X149955000Y-73583330D01*
X150088051Y-73716381D01*
X150310799Y-73865216D01*
X150558303Y-73967736D01*
X150821052Y-74020000D01*
X151088948Y-74020000D01*
X151351697Y-73967736D01*
X151599201Y-73865216D01*
X151821949Y-73716381D01*
X152011381Y-73526949D01*
X152160216Y-73304201D01*
X152262736Y-73056697D01*
X152315000Y-72793948D01*
X152315000Y-72526052D01*
X152262736Y-72263303D01*
X152160216Y-72015799D01*
X152011381Y-71793051D01*
X151821949Y-71603619D01*
X151599201Y-71454784D01*
X151351697Y-71352264D01*
X151088948Y-71300000D01*
X150821052Y-71300000D01*
X150558303Y-71352264D01*
X150310799Y-71454784D01*
X150088051Y-71603619D01*
X149955000Y-71736670D01*
X149821949Y-71603619D01*
X149599201Y-71454784D01*
X149351697Y-71352264D01*
X149088948Y-71300000D01*
X148821052Y-71300000D01*
X148772158Y-71309726D01*
X147845500Y-70383068D01*
X147845500Y-70147451D01*
X147898619Y-70226949D01*
X148088051Y-70416381D01*
X148310799Y-70565216D01*
X148558303Y-70667736D01*
X148821052Y-70720000D01*
X149088948Y-70720000D01*
X149351697Y-70667736D01*
X149599201Y-70565216D01*
X149821949Y-70416381D01*
X149955000Y-70283330D01*
X150088051Y-70416381D01*
X150310799Y-70565216D01*
X150558303Y-70667736D01*
X150821052Y-70720000D01*
X151088948Y-70720000D01*
X151351697Y-70667736D01*
X151599201Y-70565216D01*
X151821949Y-70416381D01*
X152011381Y-70226949D01*
X152160216Y-70004201D01*
X152262736Y-69756697D01*
X152315000Y-69493948D01*
X152315000Y-69226052D01*
X152262736Y-68963303D01*
X152160216Y-68715799D01*
X152011381Y-68493051D01*
X151821949Y-68303619D01*
X151599201Y-68154784D01*
X151351697Y-68052264D01*
X151088948Y-68000000D01*
X150821052Y-68000000D01*
X150558303Y-68052264D01*
X150310799Y-68154784D01*
X150088051Y-68303619D01*
X149955000Y-68436670D01*
X149821949Y-68303619D01*
X149599201Y-68154784D01*
X149351697Y-68052264D01*
X149088948Y-68000000D01*
X148821052Y-68000000D01*
X148558303Y-68052264D01*
X148310799Y-68154784D01*
X148088051Y-68303619D01*
X147898619Y-68493051D01*
X147845500Y-68572549D01*
X147845500Y-65780542D01*
X147849493Y-65739999D01*
X147845500Y-65699456D01*
X147845500Y-65699447D01*
X147833556Y-65578174D01*
X147786353Y-65422566D01*
X147709699Y-65279158D01*
X147606541Y-65153459D01*
X147575041Y-65127608D01*
X143575494Y-61128061D01*
X149730000Y-61128061D01*
X149730000Y-61331939D01*
X149769774Y-61531898D01*
X149847795Y-61720256D01*
X149961063Y-61889774D01*
X150105226Y-62033937D01*
X150274744Y-62147205D01*
X150463102Y-62225226D01*
X150624996Y-62257429D01*
X151770002Y-63402434D01*
X151733102Y-63409774D01*
X151544744Y-63487795D01*
X151375226Y-63601063D01*
X151231063Y-63745226D01*
X151117795Y-63914744D01*
X151039774Y-64103102D01*
X151000000Y-64303061D01*
X151000000Y-64506939D01*
X151039774Y-64706898D01*
X151117795Y-64895256D01*
X151231063Y-65064774D01*
X151375226Y-65208937D01*
X151544744Y-65322205D01*
X151733102Y-65400226D01*
X151899332Y-65433291D01*
X151974157Y-65494698D01*
X152117565Y-65571352D01*
X152273173Y-65618555D01*
X152394446Y-65630499D01*
X152394448Y-65630499D01*
X152434998Y-65634493D01*
X152475549Y-65630499D01*
X155404451Y-65630499D01*
X155445001Y-65634493D01*
X155485551Y-65630499D01*
X155485554Y-65630499D01*
X155606827Y-65618555D01*
X155762435Y-65571352D01*
X155905843Y-65494698D01*
X156031542Y-65391540D01*
X156057399Y-65360033D01*
X156400035Y-65017397D01*
X156431541Y-64991541D01*
X156534699Y-64865842D01*
X156611353Y-64722434D01*
X156658556Y-64566826D01*
X156670500Y-64445553D01*
X156670500Y-64445551D01*
X156674494Y-64405001D01*
X156670500Y-64364450D01*
X156670500Y-59365550D01*
X156674494Y-59325000D01*
X156670500Y-59284447D01*
X156658556Y-59163174D01*
X156611353Y-59007566D01*
X156567220Y-58925000D01*
X156534699Y-58864157D01*
X156457392Y-58769958D01*
X156457389Y-58769955D01*
X156431541Y-58738459D01*
X156400044Y-58712610D01*
X156237428Y-58549995D01*
X156205226Y-58388102D01*
X156127205Y-58199744D01*
X156013937Y-58030226D01*
X155869774Y-57886063D01*
X155700256Y-57772795D01*
X155511898Y-57694774D01*
X155311939Y-57655000D01*
X155108061Y-57655000D01*
X154908102Y-57694774D01*
X154719744Y-57772795D01*
X154550226Y-57886063D01*
X154406063Y-58030226D01*
X154292795Y-58199744D01*
X154214774Y-58388102D01*
X154175000Y-58588061D01*
X154175000Y-58791939D01*
X154214774Y-58991898D01*
X154292795Y-59180256D01*
X154406063Y-59349774D01*
X154550226Y-59493937D01*
X154719744Y-59607205D01*
X154908102Y-59685226D01*
X155019501Y-59707384D01*
X155019500Y-62833842D01*
X154876898Y-62774774D01*
X154753079Y-62750145D01*
X153697428Y-61694496D01*
X153665226Y-61532602D01*
X153587205Y-61344244D01*
X153473937Y-61174726D01*
X153329774Y-61030563D01*
X153160256Y-60917295D01*
X152971898Y-60839274D01*
X152771939Y-60799500D01*
X152568061Y-60799500D01*
X152368102Y-60839274D01*
X152179744Y-60917295D01*
X152010226Y-61030563D01*
X151871611Y-61169178D01*
X151792429Y-61089996D01*
X151760226Y-60928102D01*
X151682205Y-60739744D01*
X151568937Y-60570226D01*
X151424774Y-60426063D01*
X151255256Y-60312795D01*
X151066898Y-60234774D01*
X150866939Y-60195000D01*
X150663061Y-60195000D01*
X150463102Y-60234774D01*
X150274744Y-60312795D01*
X150105226Y-60426063D01*
X149961063Y-60570226D01*
X149847795Y-60739744D01*
X149769774Y-60928102D01*
X149730000Y-61128061D01*
X143575494Y-61128061D01*
X142267429Y-59819996D01*
X142235226Y-59658102D01*
X142157205Y-59469744D01*
X142043937Y-59300226D01*
X141899774Y-59156063D01*
X141730256Y-59042795D01*
X141541898Y-58964774D01*
X141341939Y-58925000D01*
X141138061Y-58925000D01*
X140938102Y-58964774D01*
X140749744Y-59042795D01*
X140580226Y-59156063D01*
X140436063Y-59300226D01*
X140322795Y-59469744D01*
X140244774Y-59658102D01*
X140205000Y-59858061D01*
X140205000Y-60061939D01*
X140238039Y-60228039D01*
X140071939Y-60195000D01*
X139868061Y-60195000D01*
X139668102Y-60234774D01*
X139479744Y-60312795D01*
X139310226Y-60426063D01*
X139166063Y-60570226D01*
X139052795Y-60739744D01*
X138974774Y-60928102D01*
X138935000Y-61128061D01*
X130680000Y-61128061D01*
X130680000Y-49285524D01*
X130856467Y-49711554D01*
X131276161Y-50339670D01*
X131810330Y-50873839D01*
X132438446Y-51293533D01*
X133136372Y-51582623D01*
X133877285Y-51730000D01*
X134632715Y-51730000D01*
X135373628Y-51582623D01*
X136071554Y-51293533D01*
X136699670Y-50873839D01*
X137233839Y-50339670D01*
X137653533Y-49711554D01*
X137942623Y-49013628D01*
X138090000Y-48272715D01*
X138090000Y-47517285D01*
X137942623Y-46776372D01*
X137653533Y-46078446D01*
X137233839Y-45450330D01*
X136699670Y-44916161D01*
X136071554Y-44496467D01*
X135373628Y-44207377D01*
X134632715Y-44060000D01*
X133877285Y-44060000D01*
X133136372Y-44207377D01*
X132438446Y-44496467D01*
X131810330Y-44916161D01*
X131276161Y-45450330D01*
X130856467Y-46078446D01*
X130680000Y-46504476D01*
X130680000Y-44347279D01*
X130689580Y-44249576D01*
X130708580Y-44186644D01*
X130739445Y-44128595D01*
X130780989Y-44077657D01*
X130831644Y-44035752D01*
X130889471Y-44004485D01*
X130952272Y-43985044D01*
X131047835Y-43975000D01*
X163987721Y-43975000D01*
X164085424Y-43984580D01*
%TA.AperFunction,Conductor*%
D20*
G36*
X164085424Y-43984580D02*
G01*
X164148356Y-44003580D01*
X164206405Y-44034445D01*
X164257343Y-44075989D01*
X164299248Y-44126644D01*
X164330515Y-44184471D01*
X164349956Y-44247272D01*
X164360000Y-44342835D01*
X164360000Y-46166485D01*
X164323533Y-46078446D01*
X163903839Y-45450330D01*
X163369670Y-44916161D01*
X162741554Y-44496467D01*
X162043628Y-44207377D01*
X161302715Y-44060000D01*
X160547285Y-44060000D01*
X159806372Y-44207377D01*
X159108446Y-44496467D01*
X158480330Y-44916161D01*
X157946161Y-45450330D01*
X157526467Y-46078446D01*
X157237377Y-46776372D01*
X157090000Y-47517285D01*
X157090000Y-48272715D01*
X157237377Y-49013628D01*
X157526467Y-49711554D01*
X157946161Y-50339670D01*
X158480330Y-50873839D01*
X159108446Y-51293533D01*
X159806372Y-51582623D01*
X160547285Y-51730000D01*
X161302715Y-51730000D01*
X162043628Y-51582623D01*
X162741554Y-51293533D01*
X163369670Y-50873839D01*
X163903839Y-50339670D01*
X164323533Y-49711554D01*
X164360000Y-49623515D01*
X164360001Y-137282572D01*
X164360000Y-137282582D01*
X164360001Y-146090992D01*
X164358956Y-146093200D01*
X164327332Y-146219303D01*
X164320918Y-146349153D01*
X164323105Y-146363926D01*
X164316907Y-147768512D01*
X164159843Y-149179261D01*
X163853751Y-150565348D01*
X163402106Y-151911050D01*
X162810020Y-153201134D01*
X162084187Y-154421012D01*
X161232841Y-155556844D01*
X160265622Y-156595775D01*
X159193472Y-157526046D01*
X158028541Y-158337117D01*
X156784017Y-159019808D01*
X155473994Y-159566384D01*
X154113310Y-159970657D01*
X152934566Y-160188000D01*
X142113565Y-160188000D01*
X141181127Y-160037814D01*
X139811635Y-159664447D01*
X138489573Y-159147667D01*
X138235875Y-159015881D01*
X145068724Y-159015881D01*
X145428912Y-159505548D01*
X146092882Y-159865849D01*
X146814385Y-160089694D01*
X147565695Y-160168480D01*
X148317938Y-160099178D01*
X149042208Y-159884452D01*
X149710670Y-159532555D01*
X149751088Y-159505548D01*
X150111276Y-159015881D01*
X147590000Y-156494605D01*
X145068724Y-159015881D01*
X138235875Y-159015881D01*
X137229918Y-158493328D01*
X136046918Y-157708833D01*
X134953985Y-156803072D01*
X134454850Y-156290695D01*
X143736520Y-156290695D01*
X143805822Y-157042938D01*
X144020548Y-157767208D01*
X144372445Y-158435670D01*
X144399452Y-158476088D01*
X144889119Y-158836276D01*
X147410395Y-156315000D01*
X147769605Y-156315000D01*
X150290881Y-158836276D01*
X150780548Y-158476088D01*
X151140849Y-157812118D01*
X151364694Y-157090615D01*
X151443480Y-156339305D01*
X151374178Y-155587062D01*
X151159452Y-154862792D01*
X150807555Y-154194330D01*
X150780548Y-154153912D01*
X150290881Y-153793724D01*
X147769605Y-156315000D01*
X147410395Y-156315000D01*
X144889119Y-153793724D01*
X144399452Y-154153912D01*
X144039151Y-154817882D01*
X143815306Y-155539385D01*
X143736520Y-156290695D01*
X134454850Y-156290695D01*
X133963487Y-155786298D01*
X133086653Y-154670038D01*
X132425559Y-153614119D01*
X145068724Y-153614119D01*
X147590000Y-156135395D01*
X150111276Y-153614119D01*
X149751088Y-153124452D01*
X149087118Y-152764151D01*
X148365615Y-152540306D01*
X147614305Y-152461520D01*
X146862062Y-152530822D01*
X146137792Y-152745548D01*
X145469330Y-153097445D01*
X145428912Y-153124452D01*
X145068724Y-153614119D01*
X132425559Y-153614119D01*
X132333391Y-153466906D01*
X131712250Y-152190553D01*
X131230254Y-150855413D01*
X130892865Y-149476618D01*
X130703326Y-148065482D01*
X130660386Y-146996378D01*
X130679054Y-146357021D01*
X130680000Y-146347419D01*
X130680000Y-146324632D01*
X130680665Y-146301857D01*
X130680000Y-146292234D01*
X130680000Y-145639531D01*
X131940074Y-145639531D01*
X132050921Y-145916714D01*
X132361840Y-146070089D01*
X132696705Y-146159860D01*
X133042650Y-146182576D01*
X133386380Y-146137366D01*
X133714685Y-146025966D01*
X133919079Y-145916714D01*
X134029926Y-145639531D01*
X137020074Y-145639531D01*
X137130921Y-145916714D01*
X137441840Y-146070089D01*
X137776705Y-146159860D01*
X138122650Y-146182576D01*
X138466380Y-146137366D01*
X138794685Y-146025966D01*
X138999079Y-145916714D01*
X139109926Y-145639531D01*
X138065000Y-144594605D01*
X137020074Y-145639531D01*
X134029926Y-145639531D01*
X132985000Y-144594605D01*
X131940074Y-145639531D01*
X130680000Y-145639531D01*
X130680000Y-144472650D01*
X131217424Y-144472650D01*
X131262634Y-144816380D01*
X131374034Y-145144685D01*
X131483286Y-145349079D01*
X131760469Y-145459926D01*
X132805395Y-144415000D01*
X133164605Y-144415000D01*
X134209531Y-145459926D01*
X134486714Y-145349079D01*
X134640089Y-145038160D01*
X134729860Y-144703295D01*
X134745004Y-144472650D01*
X136297424Y-144472650D01*
X136342634Y-144816380D01*
X136454034Y-145144685D01*
X136563286Y-145349079D01*
X136840469Y-145459926D01*
X137885395Y-144415000D01*
X138244605Y-144415000D01*
X139289531Y-145459926D01*
X139566714Y-145349079D01*
X139720089Y-145038160D01*
X139809860Y-144703295D01*
X139832576Y-144357350D01*
X139787664Y-144015881D01*
X145068724Y-144015881D01*
X145428912Y-144505548D01*
X146092882Y-144865849D01*
X146814385Y-145089694D01*
X147565695Y-145168480D01*
X148317938Y-145099178D01*
X149042208Y-144884452D01*
X149710670Y-144532555D01*
X149751088Y-144505548D01*
X150111276Y-144015881D01*
X147590000Y-141494605D01*
X145068724Y-144015881D01*
X139787664Y-144015881D01*
X139787366Y-144013620D01*
X139675966Y-143685315D01*
X139566714Y-143480921D01*
X139289531Y-143370074D01*
X138244605Y-144415000D01*
X137885395Y-144415000D01*
X136840469Y-143370074D01*
X136563286Y-143480921D01*
X136409911Y-143791840D01*
X136320140Y-144126705D01*
X136297424Y-144472650D01*
X134745004Y-144472650D01*
X134752576Y-144357350D01*
X134707366Y-144013620D01*
X134595966Y-143685315D01*
X134486714Y-143480921D01*
X134209531Y-143370074D01*
X133164605Y-144415000D01*
X132805395Y-144415000D01*
X131760469Y-143370074D01*
X131483286Y-143480921D01*
X131329911Y-143791840D01*
X131240140Y-144126705D01*
X131217424Y-144472650D01*
X130680000Y-144472650D01*
X130680000Y-143190469D01*
X131940074Y-143190469D01*
X132985000Y-144235395D01*
X134029926Y-143190469D01*
X133919079Y-142913286D01*
X133608160Y-142759911D01*
X133273295Y-142670140D01*
X132927350Y-142647424D01*
X132583620Y-142692634D01*
X132255315Y-142804034D01*
X132050921Y-142913286D01*
X131940074Y-143190469D01*
X130680000Y-143190469D01*
X130680000Y-141711504D01*
X133865000Y-141711504D01*
X133865000Y-142038496D01*
X133928793Y-142359204D01*
X134053927Y-142661305D01*
X134235594Y-142933188D01*
X134466812Y-143164406D01*
X134738695Y-143346073D01*
X135040796Y-143471207D01*
X135361504Y-143535000D01*
X135688496Y-143535000D01*
X136009204Y-143471207D01*
X136311305Y-143346073D01*
X136544182Y-143190469D01*
X137020074Y-143190469D01*
X138065000Y-144235395D01*
X139109926Y-143190469D01*
X138999079Y-142913286D01*
X138688160Y-142759911D01*
X138353295Y-142670140D01*
X138007350Y-142647424D01*
X137663620Y-142692634D01*
X137335315Y-142804034D01*
X137130921Y-142913286D01*
X137020074Y-143190469D01*
X136544182Y-143190469D01*
X136583188Y-143164406D01*
X136814406Y-142933188D01*
X136996073Y-142661305D01*
X137121207Y-142359204D01*
X137185000Y-142038496D01*
X137185000Y-141711504D01*
X137121207Y-141390796D01*
X137079744Y-141290695D01*
X143736520Y-141290695D01*
X143805822Y-142042938D01*
X144020548Y-142767208D01*
X144372445Y-143435670D01*
X144399452Y-143476088D01*
X144889119Y-143836276D01*
X147410395Y-141315000D01*
X147769605Y-141315000D01*
X150290881Y-143836276D01*
X150780548Y-143476088D01*
X151140849Y-142812118D01*
X151364694Y-142090615D01*
X151443480Y-141339305D01*
X151374178Y-140587062D01*
X151159452Y-139862792D01*
X150807555Y-139194330D01*
X150780548Y-139153912D01*
X150290881Y-138793724D01*
X147769605Y-141315000D01*
X147410395Y-141315000D01*
X144889119Y-138793724D01*
X144399452Y-139153912D01*
X144039151Y-139817882D01*
X143815306Y-140539385D01*
X143736520Y-141290695D01*
X137079744Y-141290695D01*
X136996073Y-141088695D01*
X136814406Y-140816812D01*
X136583188Y-140585594D01*
X136544183Y-140559531D01*
X137020074Y-140559531D01*
X137130921Y-140836714D01*
X137441840Y-140990089D01*
X137776705Y-141079860D01*
X138122650Y-141102576D01*
X138466380Y-141057366D01*
X138794685Y-140945966D01*
X138999079Y-140836714D01*
X139109926Y-140559531D01*
X138065000Y-139514605D01*
X137020074Y-140559531D01*
X136544183Y-140559531D01*
X136311305Y-140403927D01*
X136009204Y-140278793D01*
X135688496Y-140215000D01*
X135361504Y-140215000D01*
X135040796Y-140278793D01*
X134738695Y-140403927D01*
X134466812Y-140585594D01*
X134235594Y-140816812D01*
X134053927Y-141088695D01*
X133928793Y-141390796D01*
X133865000Y-141711504D01*
X130680000Y-141711504D01*
X130680000Y-140559531D01*
X131940074Y-140559531D01*
X132050921Y-140836714D01*
X132361840Y-140990089D01*
X132696705Y-141079860D01*
X133042650Y-141102576D01*
X133386380Y-141057366D01*
X133714685Y-140945966D01*
X133919079Y-140836714D01*
X134029926Y-140559531D01*
X132985000Y-139514605D01*
X131940074Y-140559531D01*
X130680000Y-140559531D01*
X130680000Y-139392650D01*
X131217424Y-139392650D01*
X131262634Y-139736380D01*
X131374034Y-140064685D01*
X131483286Y-140269079D01*
X131760469Y-140379926D01*
X132805395Y-139335000D01*
X133164605Y-139335000D01*
X134209531Y-140379926D01*
X134486714Y-140269079D01*
X134640089Y-139958160D01*
X134729860Y-139623295D01*
X134745004Y-139392650D01*
X136297424Y-139392650D01*
X136342634Y-139736380D01*
X136454034Y-140064685D01*
X136563286Y-140269079D01*
X136840469Y-140379926D01*
X137885395Y-139335000D01*
X138244605Y-139335000D01*
X139289531Y-140379926D01*
X139566714Y-140269079D01*
X139720089Y-139958160D01*
X139809860Y-139623295D01*
X139832576Y-139277350D01*
X139787366Y-138933620D01*
X139678954Y-138614119D01*
X145068724Y-138614119D01*
X147590000Y-141135395D01*
X150111276Y-138614119D01*
X149751088Y-138124452D01*
X149087118Y-137764151D01*
X148365615Y-137540306D01*
X147614305Y-137461520D01*
X146862062Y-137530822D01*
X146137792Y-137745548D01*
X145469330Y-138097445D01*
X145428912Y-138124452D01*
X145068724Y-138614119D01*
X139678954Y-138614119D01*
X139675966Y-138605315D01*
X139566714Y-138400921D01*
X139289531Y-138290074D01*
X138244605Y-139335000D01*
X137885395Y-139335000D01*
X136840469Y-138290074D01*
X136563286Y-138400921D01*
X136409911Y-138711840D01*
X136320140Y-139046705D01*
X136297424Y-139392650D01*
X134745004Y-139392650D01*
X134752576Y-139277350D01*
X134707366Y-138933620D01*
X134595966Y-138605315D01*
X134486714Y-138400921D01*
X134209531Y-138290074D01*
X133164605Y-139335000D01*
X132805395Y-139335000D01*
X131760469Y-138290074D01*
X131483286Y-138400921D01*
X131329911Y-138711840D01*
X131240140Y-139046705D01*
X131217424Y-139392650D01*
X130680000Y-139392650D01*
X130680000Y-138110469D01*
X131940074Y-138110469D01*
X132985000Y-139155395D01*
X134029926Y-138110469D01*
X137020074Y-138110469D01*
X138065000Y-139155395D01*
X139109926Y-138110469D01*
X138999079Y-137833286D01*
X138688160Y-137679911D01*
X138353295Y-137590140D01*
X138007350Y-137567424D01*
X137663620Y-137612634D01*
X137335315Y-137724034D01*
X137130921Y-137833286D01*
X137020074Y-138110469D01*
X134029926Y-138110469D01*
X133919079Y-137833286D01*
X133608160Y-137679911D01*
X133273295Y-137590140D01*
X132927350Y-137567424D01*
X132583620Y-137612634D01*
X132255315Y-137724034D01*
X132050921Y-137833286D01*
X131940074Y-138110469D01*
X130680000Y-138110469D01*
X130680000Y-122103299D01*
X133172500Y-122103299D01*
X133172500Y-122566701D01*
X133262905Y-123021199D01*
X133440241Y-123449327D01*
X133697694Y-123834631D01*
X134025369Y-124162306D01*
X134410673Y-124419759D01*
X134838801Y-124597095D01*
X135293299Y-124687500D01*
X135756701Y-124687500D01*
X136211199Y-124597095D01*
X136639327Y-124419759D01*
X137024631Y-124162306D01*
X137352306Y-123834631D01*
X137609759Y-123449327D01*
X137787095Y-123021199D01*
X137877500Y-122566701D01*
X137877500Y-122103299D01*
X137787095Y-121648801D01*
X137609759Y-121220673D01*
X137352306Y-120835369D01*
X137024631Y-120507694D01*
X136639327Y-120250241D01*
X136211199Y-120072905D01*
X135756701Y-119982500D01*
X135293299Y-119982500D01*
X134838801Y-120072905D01*
X134410673Y-120250241D01*
X134025369Y-120507694D01*
X133697694Y-120835369D01*
X133440241Y-121220673D01*
X133262905Y-121648801D01*
X133172500Y-122103299D01*
X130680000Y-122103299D01*
X130680000Y-108623299D01*
X155522500Y-108623299D01*
X155522500Y-109086701D01*
X155612905Y-109541199D01*
X155790241Y-109969327D01*
X156047694Y-110354631D01*
X156375369Y-110682306D01*
X156760673Y-110939759D01*
X157188801Y-111117095D01*
X157643299Y-111207500D01*
X158106701Y-111207500D01*
X158561199Y-111117095D01*
X158989327Y-110939759D01*
X159374631Y-110682306D01*
X159702306Y-110354631D01*
X159959759Y-109969327D01*
X160137095Y-109541199D01*
X160227500Y-109086701D01*
X160227500Y-108623299D01*
X160137095Y-108168801D01*
X159959759Y-107740673D01*
X159702306Y-107355369D01*
X159374631Y-107027694D01*
X158989327Y-106770241D01*
X158561199Y-106592905D01*
X158106701Y-106502500D01*
X157643299Y-106502500D01*
X157188801Y-106592905D01*
X156760673Y-106770241D01*
X156375369Y-107027694D01*
X156047694Y-107355369D01*
X155790241Y-107740673D01*
X155612905Y-108168801D01*
X155522500Y-108623299D01*
X130680000Y-108623299D01*
X130680000Y-95133299D01*
X133172500Y-95133299D01*
X133172500Y-95596701D01*
X133262905Y-96051199D01*
X133440241Y-96479327D01*
X133697694Y-96864631D01*
X134025369Y-97192306D01*
X134410673Y-97449759D01*
X134838801Y-97627095D01*
X135293299Y-97717500D01*
X135756701Y-97717500D01*
X136211199Y-97627095D01*
X136639327Y-97449759D01*
X137024631Y-97192306D01*
X137352306Y-96864631D01*
X137609759Y-96479327D01*
X137787095Y-96051199D01*
X137877500Y-95596701D01*
X137877500Y-95133299D01*
X137787095Y-94678801D01*
X137609759Y-94250673D01*
X137352306Y-93865369D01*
X137024631Y-93537694D01*
X136639327Y-93280241D01*
X136211199Y-93102905D01*
X135756701Y-93012500D01*
X135293299Y-93012500D01*
X134838801Y-93102905D01*
X134410673Y-93280241D01*
X134025369Y-93537694D01*
X133697694Y-93865369D01*
X133440241Y-94250673D01*
X133262905Y-94678801D01*
X133172500Y-95133299D01*
X130680000Y-95133299D01*
X130680000Y-84900413D01*
X139309192Y-84900413D01*
X139404956Y-85164814D01*
X139694571Y-85305704D01*
X140006108Y-85387384D01*
X140327595Y-85406718D01*
X140646675Y-85362961D01*
X140951088Y-85257795D01*
X141125044Y-85164814D01*
X141220808Y-84900413D01*
X140265000Y-83944605D01*
X139309192Y-84900413D01*
X130680000Y-84900413D01*
X130680000Y-83827595D01*
X138623282Y-83827595D01*
X138667039Y-84146675D01*
X138772205Y-84451088D01*
X138865186Y-84625044D01*
X139129587Y-84720808D01*
X140085395Y-83765000D01*
X140444605Y-83765000D01*
X141400413Y-84720808D01*
X141664814Y-84625044D01*
X141805704Y-84335429D01*
X141887384Y-84023892D01*
X141906718Y-83702405D01*
X141893219Y-83603967D01*
X151330000Y-83603967D01*
X151330000Y-83926033D01*
X151392832Y-84241912D01*
X151516082Y-84539463D01*
X151695013Y-84807252D01*
X151922748Y-85034987D01*
X152190537Y-85213918D01*
X152488088Y-85337168D01*
X152803967Y-85400000D01*
X153126033Y-85400000D01*
X153441912Y-85337168D01*
X153739463Y-85213918D01*
X154007252Y-85034987D01*
X154234987Y-84807252D01*
X154413918Y-84539463D01*
X154537168Y-84241912D01*
X154600000Y-83926033D01*
X154600000Y-83603967D01*
X154537168Y-83288088D01*
X154413918Y-82990537D01*
X154234987Y-82722748D01*
X154007252Y-82495013D01*
X153739463Y-82316082D01*
X153441912Y-82192832D01*
X153126033Y-82130000D01*
X152803967Y-82130000D01*
X152488088Y-82192832D01*
X152190537Y-82316082D01*
X151922748Y-82495013D01*
X151695013Y-82722748D01*
X151516082Y-82990537D01*
X151392832Y-83288088D01*
X151330000Y-83603967D01*
X141893219Y-83603967D01*
X141862961Y-83383325D01*
X141757795Y-83078912D01*
X141664814Y-82904956D01*
X141400413Y-82809192D01*
X140444605Y-83765000D01*
X140085395Y-83765000D01*
X139129587Y-82809192D01*
X138865186Y-82904956D01*
X138724296Y-83194571D01*
X138642616Y-83506108D01*
X138623282Y-83827595D01*
X130680000Y-83827595D01*
X130680000Y-82629587D01*
X139309192Y-82629587D01*
X140265000Y-83585395D01*
X141220808Y-82629587D01*
X141125044Y-82365186D01*
X140835429Y-82224296D01*
X140523892Y-82142616D01*
X140202405Y-82123282D01*
X139883325Y-82167039D01*
X139578912Y-82272205D01*
X139404956Y-82365186D01*
X139309192Y-82629587D01*
X130680000Y-82629587D01*
X130680000Y-73599133D01*
X142195472Y-73599133D01*
X142257965Y-73835450D01*
X142500678Y-73948850D01*
X142760849Y-74012719D01*
X143028482Y-74024604D01*
X143293291Y-73984048D01*
X143545100Y-73892609D01*
X143652035Y-73835450D01*
X143714528Y-73599133D01*
X142955000Y-72839605D01*
X142195472Y-73599133D01*
X130680000Y-73599133D01*
X130680000Y-72733482D01*
X141590396Y-72733482D01*
X141630952Y-72998291D01*
X141722391Y-73250100D01*
X141779550Y-73357035D01*
X142015867Y-73419528D01*
X142775395Y-72660000D01*
X143134605Y-72660000D01*
X143729262Y-73254657D01*
X143749784Y-73304201D01*
X143898619Y-73526949D01*
X144088051Y-73716381D01*
X144310799Y-73865216D01*
X144558303Y-73967736D01*
X144821052Y-74020000D01*
X145088948Y-74020000D01*
X145351697Y-73967736D01*
X145599201Y-73865216D01*
X145821949Y-73716381D01*
X146011381Y-73526949D01*
X146160216Y-73304201D01*
X146262736Y-73056697D01*
X146315000Y-72793948D01*
X146315000Y-72526052D01*
X146262736Y-72263303D01*
X146160216Y-72015799D01*
X146011381Y-71793051D01*
X145821949Y-71603619D01*
X145599201Y-71454784D01*
X145351697Y-71352264D01*
X145088948Y-71300000D01*
X144821052Y-71300000D01*
X144558303Y-71352264D01*
X144310799Y-71454784D01*
X144088051Y-71603619D01*
X143898619Y-71793051D01*
X143749784Y-72015799D01*
X143729262Y-72065343D01*
X143134605Y-72660000D01*
X142775395Y-72660000D01*
X142015867Y-71900472D01*
X141779550Y-71962965D01*
X141666150Y-72205678D01*
X141602281Y-72465849D01*
X141590396Y-72733482D01*
X130680000Y-72733482D01*
X130680000Y-71720867D01*
X142195472Y-71720867D01*
X142955000Y-72480395D01*
X143714528Y-71720867D01*
X143652035Y-71484550D01*
X143409322Y-71371150D01*
X143149151Y-71307281D01*
X142881518Y-71295396D01*
X142616709Y-71335952D01*
X142364900Y-71427391D01*
X142257965Y-71484550D01*
X142195472Y-71720867D01*
X130680000Y-71720867D01*
X130680000Y-61128061D01*
X138935000Y-61128061D01*
X138935000Y-61331939D01*
X138974774Y-61531898D01*
X139052795Y-61720256D01*
X139144501Y-61857504D01*
X139144500Y-63142497D01*
X139052795Y-63279744D01*
X138974774Y-63468102D01*
X138935000Y-63668061D01*
X138935000Y-63871939D01*
X138974774Y-64071898D01*
X139052795Y-64260256D01*
X139166063Y-64429774D01*
X139310226Y-64573937D01*
X139479744Y-64687205D01*
X139668102Y-64765226D01*
X139868061Y-64805000D01*
X140071939Y-64805000D01*
X140271898Y-64765226D01*
X140460256Y-64687205D01*
X140629774Y-64573937D01*
X140773937Y-64429774D01*
X140887205Y-64260256D01*
X140965226Y-64071898D01*
X141005000Y-63871939D01*
X141005000Y-63668061D01*
X140965226Y-63468102D01*
X140887205Y-63279744D01*
X140795500Y-63142497D01*
X140795500Y-61857503D01*
X140887205Y-61720256D01*
X140965226Y-61531898D01*
X141005000Y-61331939D01*
X141005000Y-61128061D01*
X140971961Y-60961961D01*
X141099996Y-60987429D01*
X146194500Y-66081933D01*
X146194500Y-66204448D01*
X146194501Y-68798569D01*
X146160216Y-68715799D01*
X146011381Y-68493051D01*
X145821949Y-68303619D01*
X145599201Y-68154784D01*
X145351697Y-68052264D01*
X145088948Y-68000000D01*
X144821052Y-68000000D01*
X144558303Y-68052264D01*
X144310799Y-68154784D01*
X144088051Y-68303619D01*
X143955000Y-68436670D01*
X143821949Y-68303619D01*
X143599201Y-68154784D01*
X143351697Y-68052264D01*
X143088948Y-68000000D01*
X142821052Y-68000000D01*
X142558303Y-68052264D01*
X142310799Y-68154784D01*
X142088051Y-68303619D01*
X141898619Y-68493051D01*
X141749784Y-68715799D01*
X141647264Y-68963303D01*
X141595000Y-69226052D01*
X141595000Y-69493948D01*
X141647264Y-69756697D01*
X141749784Y-70004201D01*
X141898619Y-70226949D01*
X142088051Y-70416381D01*
X142310799Y-70565216D01*
X142558303Y-70667736D01*
X142821052Y-70720000D01*
X143088948Y-70720000D01*
X143351697Y-70667736D01*
X143599201Y-70565216D01*
X143821949Y-70416381D01*
X143955000Y-70283330D01*
X144088051Y-70416381D01*
X144310799Y-70565216D01*
X144558303Y-70667736D01*
X144821052Y-70720000D01*
X145088948Y-70720000D01*
X145351697Y-70667736D01*
X145599201Y-70565216D01*
X145821949Y-70416381D01*
X146011381Y-70226949D01*
X146160216Y-70004201D01*
X146194501Y-69921431D01*
X146194501Y-70684440D01*
X146190506Y-70725000D01*
X146206445Y-70886826D01*
X146253647Y-71042433D01*
X146330301Y-71185842D01*
X146391863Y-71260854D01*
X146433460Y-71311541D01*
X146464961Y-71337393D01*
X147604726Y-72477158D01*
X147595000Y-72526052D01*
X147595000Y-72793948D01*
X147647264Y-73056697D01*
X147749784Y-73304201D01*
X147898619Y-73526949D01*
X148088051Y-73716381D01*
X148310799Y-73865216D01*
X148558303Y-73967736D01*
X148821052Y-74020000D01*
X149088948Y-74020000D01*
X149351697Y-73967736D01*
X149599201Y-73865216D01*
X149821949Y-73716381D01*
X149955000Y-73583330D01*
X150088051Y-73716381D01*
X150310799Y-73865216D01*
X150558303Y-73967736D01*
X150821052Y-74020000D01*
X151088948Y-74020000D01*
X151351697Y-73967736D01*
X151599201Y-73865216D01*
X151821949Y-73716381D01*
X152011381Y-73526949D01*
X152160216Y-73304201D01*
X152262736Y-73056697D01*
X152315000Y-72793948D01*
X152315000Y-72526052D01*
X152262736Y-72263303D01*
X152160216Y-72015799D01*
X152011381Y-71793051D01*
X151821949Y-71603619D01*
X151599201Y-71454784D01*
X151351697Y-71352264D01*
X151088948Y-71300000D01*
X150821052Y-71300000D01*
X150558303Y-71352264D01*
X150310799Y-71454784D01*
X150088051Y-71603619D01*
X149955000Y-71736670D01*
X149821949Y-71603619D01*
X149599201Y-71454784D01*
X149351697Y-71352264D01*
X149088948Y-71300000D01*
X148821052Y-71300000D01*
X148772158Y-71309726D01*
X147845500Y-70383068D01*
X147845500Y-70147451D01*
X147898619Y-70226949D01*
X148088051Y-70416381D01*
X148310799Y-70565216D01*
X148558303Y-70667736D01*
X148821052Y-70720000D01*
X149088948Y-70720000D01*
X149351697Y-70667736D01*
X149599201Y-70565216D01*
X149821949Y-70416381D01*
X149955000Y-70283330D01*
X150088051Y-70416381D01*
X150310799Y-70565216D01*
X150558303Y-70667736D01*
X150821052Y-70720000D01*
X151088948Y-70720000D01*
X151351697Y-70667736D01*
X151599201Y-70565216D01*
X151821949Y-70416381D01*
X152011381Y-70226949D01*
X152160216Y-70004201D01*
X152262736Y-69756697D01*
X152315000Y-69493948D01*
X152315000Y-69226052D01*
X152262736Y-68963303D01*
X152160216Y-68715799D01*
X152011381Y-68493051D01*
X151821949Y-68303619D01*
X151599201Y-68154784D01*
X151351697Y-68052264D01*
X151088948Y-68000000D01*
X150821052Y-68000000D01*
X150558303Y-68052264D01*
X150310799Y-68154784D01*
X150088051Y-68303619D01*
X149955000Y-68436670D01*
X149821949Y-68303619D01*
X149599201Y-68154784D01*
X149351697Y-68052264D01*
X149088948Y-68000000D01*
X148821052Y-68000000D01*
X148558303Y-68052264D01*
X148310799Y-68154784D01*
X148088051Y-68303619D01*
X147898619Y-68493051D01*
X147845500Y-68572549D01*
X147845500Y-65780542D01*
X147849493Y-65739999D01*
X147845500Y-65699456D01*
X147845500Y-65699447D01*
X147833556Y-65578174D01*
X147786353Y-65422566D01*
X147709699Y-65279158D01*
X147606541Y-65153459D01*
X147575041Y-65127608D01*
X143575494Y-61128061D01*
X149730000Y-61128061D01*
X149730000Y-61331939D01*
X149769774Y-61531898D01*
X149847795Y-61720256D01*
X149961063Y-61889774D01*
X150105226Y-62033937D01*
X150274744Y-62147205D01*
X150463102Y-62225226D01*
X150624996Y-62257429D01*
X151770002Y-63402434D01*
X151733102Y-63409774D01*
X151544744Y-63487795D01*
X151375226Y-63601063D01*
X151231063Y-63745226D01*
X151117795Y-63914744D01*
X151039774Y-64103102D01*
X151000000Y-64303061D01*
X151000000Y-64506939D01*
X151039774Y-64706898D01*
X151117795Y-64895256D01*
X151231063Y-65064774D01*
X151375226Y-65208937D01*
X151544744Y-65322205D01*
X151733102Y-65400226D01*
X151899332Y-65433291D01*
X151974157Y-65494698D01*
X152117565Y-65571352D01*
X152273173Y-65618555D01*
X152394446Y-65630499D01*
X152394448Y-65630499D01*
X152434998Y-65634493D01*
X152475549Y-65630499D01*
X155404451Y-65630499D01*
X155445001Y-65634493D01*
X155485551Y-65630499D01*
X155485554Y-65630499D01*
X155606827Y-65618555D01*
X155762435Y-65571352D01*
X155905843Y-65494698D01*
X156031542Y-65391540D01*
X156057399Y-65360033D01*
X156400035Y-65017397D01*
X156431541Y-64991541D01*
X156534699Y-64865842D01*
X156611353Y-64722434D01*
X156658556Y-64566826D01*
X156670500Y-64445553D01*
X156670500Y-64445551D01*
X156674494Y-64405001D01*
X156670500Y-64364450D01*
X156670500Y-59365550D01*
X156674494Y-59325000D01*
X156670500Y-59284447D01*
X156658556Y-59163174D01*
X156611353Y-59007566D01*
X156567220Y-58925000D01*
X156534699Y-58864157D01*
X156457392Y-58769958D01*
X156457389Y-58769955D01*
X156431541Y-58738459D01*
X156400044Y-58712610D01*
X156237428Y-58549995D01*
X156205226Y-58388102D01*
X156127205Y-58199744D01*
X156013937Y-58030226D01*
X155869774Y-57886063D01*
X155700256Y-57772795D01*
X155511898Y-57694774D01*
X155311939Y-57655000D01*
X155108061Y-57655000D01*
X154908102Y-57694774D01*
X154719744Y-57772795D01*
X154550226Y-57886063D01*
X154406063Y-58030226D01*
X154292795Y-58199744D01*
X154214774Y-58388102D01*
X154175000Y-58588061D01*
X154175000Y-58791939D01*
X154214774Y-58991898D01*
X154292795Y-59180256D01*
X154406063Y-59349774D01*
X154550226Y-59493937D01*
X154719744Y-59607205D01*
X154908102Y-59685226D01*
X155019501Y-59707384D01*
X155019500Y-62833842D01*
X154876898Y-62774774D01*
X154753079Y-62750145D01*
X153697428Y-61694496D01*
X153665226Y-61532602D01*
X153587205Y-61344244D01*
X153473937Y-61174726D01*
X153329774Y-61030563D01*
X153160256Y-60917295D01*
X152971898Y-60839274D01*
X152771939Y-60799500D01*
X152568061Y-60799500D01*
X152368102Y-60839274D01*
X152179744Y-60917295D01*
X152010226Y-61030563D01*
X151871611Y-61169178D01*
X151792429Y-61089996D01*
X151760226Y-60928102D01*
X151682205Y-60739744D01*
X151568937Y-60570226D01*
X151424774Y-60426063D01*
X151255256Y-60312795D01*
X151066898Y-60234774D01*
X150866939Y-60195000D01*
X150663061Y-60195000D01*
X150463102Y-60234774D01*
X150274744Y-60312795D01*
X150105226Y-60426063D01*
X149961063Y-60570226D01*
X149847795Y-60739744D01*
X149769774Y-60928102D01*
X149730000Y-61128061D01*
X143575494Y-61128061D01*
X142267429Y-59819996D01*
X142235226Y-59658102D01*
X142157205Y-59469744D01*
X142043937Y-59300226D01*
X141899774Y-59156063D01*
X141730256Y-59042795D01*
X141541898Y-58964774D01*
X141341939Y-58925000D01*
X141138061Y-58925000D01*
X140938102Y-58964774D01*
X140749744Y-59042795D01*
X140580226Y-59156063D01*
X140436063Y-59300226D01*
X140322795Y-59469744D01*
X140244774Y-59658102D01*
X140205000Y-59858061D01*
X140205000Y-60061939D01*
X140238039Y-60228039D01*
X140071939Y-60195000D01*
X139868061Y-60195000D01*
X139668102Y-60234774D01*
X139479744Y-60312795D01*
X139310226Y-60426063D01*
X139166063Y-60570226D01*
X139052795Y-60739744D01*
X138974774Y-60928102D01*
X138935000Y-61128061D01*
X130680000Y-61128061D01*
X130680000Y-49285524D01*
X130856467Y-49711554D01*
X131276161Y-50339670D01*
X131810330Y-50873839D01*
X132438446Y-51293533D01*
X133136372Y-51582623D01*
X133877285Y-51730000D01*
X134632715Y-51730000D01*
X135373628Y-51582623D01*
X136071554Y-51293533D01*
X136699670Y-50873839D01*
X137233839Y-50339670D01*
X137653533Y-49711554D01*
X137942623Y-49013628D01*
X138090000Y-48272715D01*
X138090000Y-47517285D01*
X137942623Y-46776372D01*
X137653533Y-46078446D01*
X137233839Y-45450330D01*
X136699670Y-44916161D01*
X136071554Y-44496467D01*
X135373628Y-44207377D01*
X134632715Y-44060000D01*
X133877285Y-44060000D01*
X133136372Y-44207377D01*
X132438446Y-44496467D01*
X131810330Y-44916161D01*
X131276161Y-45450330D01*
X130856467Y-46078446D01*
X130680000Y-46504476D01*
X130680000Y-44347279D01*
X130689580Y-44249576D01*
X130708580Y-44186644D01*
X130739445Y-44128595D01*
X130780989Y-44077657D01*
X130831644Y-44035752D01*
X130889471Y-44004485D01*
X130952272Y-43985044D01*
X131047835Y-43975000D01*
X163987721Y-43975000D01*
X164085424Y-43984580D01*
G37*
%TD.AperFunction*%
%TD*%
M02*
